<svg width="16" height="16" viewBox="0 0 16 16" fill="none" xmlns="http://www.w3.org/2000/svg">
<path fill-rule="evenodd" clip-rule="evenodd" d="M8.93477 1.38932C9.20875 1.50964 9.36899 1.79777 9.32667 2.094L8.76871 5.99971L12.2317 5.99971C12.3906 5.99968 12.552 5.99965 12.6841 6.01163C12.8096 6.02301 13.0485 6.05314 13.2564 6.22023C13.495 6.41197 13.6326 6.70241 13.6299 7.00849C13.6276 7.27522 13.4997 7.47914 13.429 7.58351C13.3546 7.69332 13.2524 7.81824 13.1517 7.94122L7.84934 14.4219C7.65986 14.6535 7.33928 14.7304 7.0653 14.6101C6.79133 14.4898 6.63109 14.2017 6.6734 13.9054L7.23136 9.99971L3.76841 9.99972C3.60949 9.99975 3.44806 9.99978 3.31599 9.9878C3.19044 9.97642 2.95161 9.94629 2.74369 9.7792C2.50511 9.58746 2.36747 9.29701 2.37016 8.99094C2.3725 8.72421 2.50041 8.52029 2.5711 8.41591C2.64546 8.30612 2.74771 8.1812 2.84836 8.05823C2.85338 8.05209 2.8584 8.04596 2.86342 8.03983L8.15073 1.57756C8.34022 1.34596 8.6608 1.269 8.93477 1.38932ZM4.07353 8.66638H8.00004C8.1933 8.66638 8.37705 8.75025 8.50367 8.89625C8.6303 9.04225 8.68733 9.23601 8.66 9.42733L8.33148 11.727L11.9265 7.33305H8.00004C7.80678 7.33305 7.62303 7.24918 7.4964 7.10318C7.36978 6.95718 7.31274 6.76342 7.34007 6.5721L7.6686 4.27241L4.07353 8.66638Z" fill="url(#paint0_linear_24389_9646)"/>
<defs>
<linearGradient id="paint0_linear_24389_9646" x1="2.37012" y1="1.33301" x2="14.304" y2="1.96639" gradientUnits="userSpaceOnUse">
<stop offset="0.285" stop-color="#00BA66"/>
<stop offset="1" stop-color="#6889FF"/>
</linearGradient>
</defs>
</svg>
