<svg width="20" height="20" viewBox="0 0 20 20" fill="none" xmlns="http://www.w3.org/2000/svg">
<path fill-rule="evenodd" clip-rule="evenodd" d="M9.99996 3.33268C8.61925 3.33268 7.49996 4.45197 7.49996 5.83268C7.49996 7.21339 8.61925 8.33268 9.99996 8.33268C11.3807 8.33268 12.5 7.21339 12.5 5.83268C12.5 4.45197 11.3807 3.33268 9.99996 3.33268ZM5.83329 5.83268C5.83329 3.5315 7.69877 1.66602 9.99996 1.66602C12.3011 1.66602 14.1666 3.5315 14.1666 5.83268C14.1666 7.84848 12.7352 9.52994 10.8333 9.916V13.3327C10.8333 13.7929 10.4602 14.166 9.99996 14.166C9.53972 14.166 9.16663 13.7929 9.16663 13.3327V9.916C7.26476 9.52994 5.83329 7.84848 5.83329 5.83268ZM7.48035 10.9994C7.57961 11.4488 7.29576 11.8936 6.84635 11.9929C5.67949 12.2506 4.75103 12.6363 4.13626 13.0682C3.50667 13.5105 3.33329 13.9014 3.33329 14.166C3.33329 14.3551 3.41604 14.598 3.69301 14.889C3.97406 15.1843 4.42014 15.4882 5.03511 15.7615C6.26294 16.3072 8.01758 16.666 9.99996 16.666C11.9823 16.666 13.737 16.3072 14.9648 15.7615C15.5798 15.4882 16.0259 15.1843 16.3069 14.889C16.5839 14.598 16.6666 14.3551 16.6666 14.166C16.6666 13.9014 16.4933 13.5105 15.8637 13.0682C15.2489 12.6363 14.3204 12.2506 13.1536 11.9929C12.7042 11.8936 12.4203 11.4488 12.5196 10.9994C12.6188 10.55 13.0636 10.2662 13.513 10.3654C14.8157 10.6532 15.9706 11.1065 16.8217 11.7044C17.6581 12.292 18.3333 13.1218 18.3333 14.166C18.3333 14.8974 17.9963 15.5314 17.5142 16.038C17.0362 16.5402 16.384 16.9546 15.6417 17.2845C14.1551 17.9453 12.1597 18.3327 9.99996 18.3327C7.8402 18.3327 5.84484 17.9453 4.35821 17.2845C3.61594 16.9546 2.96367 16.5402 2.48568 16.038C2.00361 15.5314 1.66663 14.8974 1.66663 14.166C1.66663 13.1218 2.34182 12.292 3.17818 11.7044C4.02936 11.1065 5.18423 10.6532 6.4869 10.3654C6.93631 10.2662 7.38109 10.55 7.48035 10.9994Z" fill="none"/>
</svg>
