<svg width="63" height="63" viewBox="0 0 63 63" fill="none" xmlns="http://www.w3.org/2000/svg">
<circle cx="31.0327" cy="31.0332" r="31" fill="#426CFF" fill-opacity="0.1"/>
<circle cx="31.0327" cy="31.0332" r="20" fill="#426CFF" fill-opacity="0.15"/>
<g filter="url(#filter0_d_24370_20309)">
<circle cx="31" cy="31" r="12" fill="white"/>
<circle cx="31" cy="31" r="11" stroke="#426CFF" stroke-width="2"/>
</g>
<path fill-rule="evenodd" clip-rule="evenodd" d="M31.0134 34.7911C31.0259 34.7908 31.0384 34.7915 31.0508 34.7932C31.0637 34.7948 31.0812 34.7985 31.24 34.8516L32.7695 35.3636C33.16 35.4944 33.4852 35.6032 33.7438 35.6648C33.9944 35.7244 34.2913 35.7696 34.57 35.6611C34.9361 35.5184 35.2139 35.212 35.3199 34.8337C35.4006 34.5456 35.3266 34.2546 35.2426 34.0111C35.156 33.7597 35.0158 33.4467 34.8474 33.071L32.5561 27.9573C32.3917 27.5903 32.2543 27.2837 32.1266 27.056C32.0024 26.8344 31.8369 26.5899 31.5723 26.4585C31.2234 26.2853 30.8137 26.2846 30.4643 26.4567C30.1992 26.5872 30.0329 26.8312 29.908 27.0524C29.7796 27.2798 29.6412 27.5858 29.4756 27.9524L27.1624 33.071C26.9927 33.4464 26.8513 33.7592 26.7638 34.0104C26.6791 34.2538 26.604 34.5447 26.6839 34.8331C26.7888 35.2119 27.0657 35.5192 27.4316 35.6629C27.7101 35.7723 28.0073 35.7278 28.2581 35.6688C28.5171 35.6079 28.8428 35.4997 29.2339 35.3699L30.7973 34.851C30.9562 34.7983 30.9737 34.7947 30.9866 34.7931C30.9955 34.7919 31.0044 34.7913 31.0134 34.7911Z" fill="#426CFF"/>
<defs>
<filter id="filter0_d_24370_20309" x="17" y="19" width="28" height="28" filterUnits="userSpaceOnUse" color-interpolation-filters="sRGB">
<feFlood flood-opacity="0" result="BackgroundImageFix"/>
<feColorMatrix in="SourceAlpha" type="matrix" values="0 0 0 0 0 0 0 0 0 0 0 0 0 0 0 0 0 0 127 0" result="hardAlpha"/>
<feOffset dy="2"/>
<feGaussianBlur stdDeviation="1"/>
<feComposite in2="hardAlpha" operator="out"/>
<feColorMatrix type="matrix" values="0 0 0 0 0 0 0 0 0 0 0 0 0 0 0 0 0 0 0.1 0"/>
<feBlend mode="normal" in2="BackgroundImageFix" result="effect1_dropShadow_24370_20309"/>
<feBlend mode="normal" in="SourceGraphic" in2="effect1_dropShadow_24370_20309" result="shape"/>
</filter>
</defs>
</svg>
