<svg width="16" height="17" viewBox="0 0 16 17" fill="none" xmlns="http://www.w3.org/2000/svg">
<path fill-rule="evenodd" clip-rule="evenodd" d="M8.00003 4.49947C5.60916 4.49947 3.42965 5.39745 1.77797 6.87555C1.50362 7.12107 1.08215 7.09772 0.836603 6.82341C0.591053 6.54909 0.6144 6.12769 0.888751 5.88217C2.77544 4.19377 5.26853 3.16632 8.00003 3.16632C10.7315 3.16632 13.2246 4.19377 15.1113 5.88217C15.3857 6.12769 15.409 6.54909 15.1635 6.82341C14.9179 7.09772 14.4964 7.12107 14.2221 6.87555C12.5704 5.39745 10.3909 4.49947 8.00003 4.49947ZM8.00003 7.83235C6.44546 7.83235 5.03032 8.42261 3.9641 9.39233C3.69174 9.64005 3.2701 9.6201 3.02235 9.34777C2.7746 9.07544 2.79455 8.65386 3.06692 8.40614C4.36899 7.22191 6.10087 6.4992 8.00003 6.4992C9.89918 6.4992 11.6311 7.22191 12.9331 8.40614C13.2055 8.65386 13.2255 9.07544 12.9777 9.34777C12.73 9.6201 12.3083 9.64005 12.036 9.39233C10.9697 8.42261 9.55459 7.83235 8.00003 7.83235ZM8.00003 11.1652C7.30889 11.1652 6.68051 11.4272 6.20636 11.8585C5.934 12.1062 5.51236 12.0862 5.26461 11.8139C5.01686 11.5416 5.03681 11.12 5.30918 10.8723C6.01917 10.2265 6.9643 9.83208 8.00003 9.83208C9.03575 9.83208 9.98088 10.2265 10.6909 10.8723C10.9632 11.12 10.9832 11.5416 10.7354 11.8139C10.4877 12.0862 10.0661 12.1062 9.79369 11.8585C9.31955 11.4272 8.69116 11.1652 8.00003 11.1652ZM7.33336 13.8315C7.33336 13.4634 7.63184 13.165 8.00003 13.165H8.00669C8.37488 13.165 8.67336 13.4634 8.67336 13.8315C8.67336 14.1997 8.37488 14.4981 8.00669 14.4981H8.00003C7.63184 14.4981 7.33336 14.1997 7.33336 13.8315Z" fill="#C4C4C4"/>
<path fill-rule="evenodd" clip-rule="evenodd" d="M7.99999 11.1652C7.30886 11.1652 6.68047 11.4272 6.20633 11.8584C5.93396 12.1061 5.51232 12.0862 5.26457 11.8139C5.01682 11.5415 5.03678 11.12 5.30914 10.8722C6.01914 10.2265 6.96427 9.83203 7.99999 9.83203C9.03572 9.83203 9.98085 10.2265 10.6908 10.8722C10.9632 11.12 10.9832 11.5415 10.7354 11.8139C10.4877 12.0862 10.066 12.1061 9.79366 11.8584C9.31952 11.4272 8.69113 11.1652 7.99999 11.1652ZM7.33333 13.8315C7.33333 13.4633 7.6318 13.1649 7.99999 13.1649H8.00666C8.37485 13.1649 8.67333 13.4633 8.67333 13.8315C8.67333 14.1996 8.37485 14.4981 8.00666 14.4981H7.99999C7.6318 14.4981 7.33333 14.1996 7.33333 13.8315Z" fill="#426CFF"/>
</svg>
