<svg width="16" height="17" viewBox="0 0 16 17" fill="none" xmlns="http://www.w3.org/2000/svg">
<path fill-rule="evenodd" clip-rule="evenodd" d="M7.99997 4.49947C5.6091 4.49947 3.42959 5.39745 1.77791 6.87555C1.50356 7.12107 1.08209 7.09772 0.836542 6.82341C0.590991 6.54909 0.614339 6.12769 0.88869 5.88217C2.77538 4.19377 5.26847 3.16632 7.99997 3.16632C10.7315 3.16632 13.2246 4.19377 15.1112 5.88217C15.3856 6.12769 15.4089 6.54909 15.1634 6.82341C14.9178 7.09772 14.4964 7.12107 14.222 6.87555C12.5703 5.39745 10.3908 4.49947 7.99997 4.49947ZM7.99997 7.83235C6.4454 7.83235 5.03026 8.42261 3.96404 9.39233C3.69168 9.64005 3.27004 9.6201 3.02229 9.34777C2.77454 9.07544 2.79449 8.65386 3.06686 8.40614C4.36893 7.22191 6.10081 6.4992 7.99997 6.4992C9.89912 6.4992 11.631 7.22191 12.9331 8.40614C13.2054 8.65386 13.2254 9.07544 12.9776 9.34777C12.7299 9.6201 12.3083 9.64005 12.0359 9.39233C10.9697 8.42261 9.55453 7.83235 7.99997 7.83235ZM7.99997 11.1652C7.30883 11.1652 6.68044 11.4272 6.2063 11.8585C5.93393 12.1062 5.5123 12.0862 5.26455 11.8139C5.01679 11.5416 5.03675 11.12 5.30911 10.8723C6.01911 10.2265 6.96424 9.83208 7.99997 9.83208C9.03569 9.83208 9.98082 10.2265 10.6908 10.8723C10.9632 11.12 10.9831 11.5416 10.7354 11.8139C10.4876 12.0862 10.066 12.1062 9.79363 11.8585C9.31949 11.4272 8.6911 11.1652 7.99997 11.1652ZM7.3333 13.8315C7.3333 13.4634 7.63178 13.165 7.99997 13.165H8.00663C8.37482 13.165 8.6733 13.4634 8.6733 13.8315C8.6733 14.1997 8.37482 14.4981 8.00663 14.4981H7.99997C7.63178 14.4981 7.3333 14.1997 7.3333 13.8315Z" fill="#C4C4C4"/>
<path fill-rule="evenodd" clip-rule="evenodd" d="M8.00006 7.83236C6.4455 7.83236 5.03036 8.42261 3.96414 9.39234C3.69177 9.64006 3.27014 9.6201 3.02239 9.34777C2.77464 9.07545 2.79459 8.65387 3.06696 8.40615C4.36903 7.22191 6.10091 6.49921 8.00006 6.49921C9.89922 6.49921 11.6311 7.22192 12.9332 8.40615C13.2055 8.65387 13.2255 9.07545 12.9777 9.34777C12.73 9.6201 12.3084 9.64006 12.036 9.39234C10.9698 8.42261 9.55463 7.83236 8.00006 7.83236ZM8.00006 11.1652C7.30893 11.1652 6.68054 11.4272 6.2064 11.8585C5.93403 12.1062 5.5124 12.0863 5.26464 11.8139C5.01689 11.5416 5.03685 11.12 5.30921 10.8723C6.01921 10.2266 6.96434 9.83208 8.00006 9.83208C9.03579 9.83208 9.98092 10.2266 10.6909 10.8723C10.9633 11.12 10.9832 11.5416 10.7355 11.8139C10.4877 12.0863 10.0661 12.1062 9.79373 11.8585C9.31959 11.4272 8.6912 11.1652 8.00006 11.1652ZM7.3334 13.8315C7.3334 13.4634 7.63188 13.165 8.00006 13.165H8.00673C8.37492 13.165 8.6734 13.4634 8.6734 13.8315C8.6734 14.1997 8.37492 14.4981 8.00673 14.4981H8.00006C7.63188 14.4981 7.3334 14.1997 7.3334 13.8315Z" fill="#426CFF"/>
</svg>
