<svg width="100%" height="100%" viewBox="0 0 24 25" fill="none" xmlns="http://www.w3.org/2000/svg">
<path fill-rule="evenodd" clip-rule="evenodd" d="M7.0943 6.18009L18.3199 17.4057C19.3736 16.0506 20 14.3491 20 12.5C20 8.08172 16.4183 4.5 12 4.5C10.1509 4.5 8.44939 5.12644 7.0943 6.18009ZM16.9057 18.8199L5.68009 7.5943C4.62644 8.94939 4 10.6509 4 12.5C4 16.9183 7.58172 20.5 12 20.5C13.8491 20.5 15.5506 19.8736 16.9057 18.8199ZM4.92893 5.42893C6.73748 3.62038 9.23885 2.5 12 2.5C17.5228 2.5 22 6.97715 22 12.5C22 15.2611 20.8796 17.7625 19.0711 19.5711C17.2625 21.3796 14.7611 22.5 12 22.5C6.47715 22.5 2 18.0228 2 12.5C2 9.73885 3.12038 7.23748 4.92893 5.42893Z" fill="currentColor"/>
</svg>
