<svg width="100%" height="100%" viewBox="0 0 24 24" fill="none" xmlns="http://www.w3.org/2000/svg">
<path fill-rule="evenodd" clip-rule="evenodd" d="M9.44721 3.10555C9.94119 3.35254 10.1414 3.95321 9.89443 4.44719L7.61803 8.99997H16.382L14.1056 4.44719C13.8586 3.95321 14.0588 3.35254 14.5528 3.10555C15.0468 2.85856 15.6474 3.05878 15.8944 3.55276L18.618 8.99997H21C21.5523 8.99997 22 9.44769 22 9.99997C22 10.5523 21.5523 11 21 11H20.8198L19.4884 17.657C19.4025 18.0868 19.3275 18.4615 19.2418 18.7695C19.1504 19.0976 19.0298 19.4171 18.8203 19.7171C18.5039 20.1705 18.0684 20.5275 17.5618 20.7489C17.2265 20.8954 16.8896 20.9511 16.5499 20.9763C16.231 21 15.8488 21 15.4105 21H8.58948C8.15119 21 7.769 21 7.4501 20.9763C7.11042 20.9511 6.77347 20.8954 6.43822 20.7489C5.93165 20.5275 5.4961 20.1705 5.17966 19.7171C4.97025 19.4171 4.84962 19.0976 4.75824 18.7695C4.67246 18.4615 4.59752 18.0867 4.51159 17.6569L3.1802 11H3C2.44772 11 2 10.5523 2 9.99997C2 9.44769 2.44772 8.99997 3 8.99997H5.38197L8.10557 3.55276C8.35256 3.05878 8.95324 2.85856 9.44721 3.10555ZM5.2198 11L6.46609 17.2314C6.56062 17.704 6.62149 18.0051 6.68494 18.233C6.74501 18.4487 6.78981 18.5297 6.81963 18.5724C6.92511 18.7235 7.07029 18.8425 7.23915 18.9163C7.28688 18.9371 7.37503 18.9652 7.59833 18.9818C7.83422 18.9993 8.1414 19 8.62337 19H15.3766C15.8586 19 16.1658 18.9993 16.4017 18.9818C16.625 18.9652 16.7131 18.9371 16.7609 18.9163C16.9297 18.8425 17.0749 18.7235 17.1804 18.5724C17.2102 18.5297 17.255 18.4487 17.3151 18.233C17.3785 18.0051 17.4394 17.704 17.5339 17.2314L18.7802 11H5.2198ZM9 12C9.55228 12 10 12.4477 10 13V16C10 16.5523 9.55228 17 9 17C8.44772 17 8 16.5523 8 16V13C8 12.4477 8.44772 12 9 12ZM12 12C12.5523 12 13 12.4477 13 13V16C13 16.5523 12.5523 17 12 17C11.4477 17 11 16.5523 11 16V13C11 12.4477 11.4477 12 12 12ZM15 12C15.5523 12 16 12.4477 16 13V16C16 16.5523 15.5523 17 15 17C14.4477 17 14 16.5523 14 16V13C14 12.4477 14.4477 12 15 12Z" fill="currentColor"/>
</svg>
