<svg width="100%" height="100%" viewBox="0 0 20 21" fill="none" xmlns="http://www.w3.org/2000/svg">
<path fill-rule="evenodd" clip-rule="evenodd" d="M14.032 4.66675H5.13439C4.69511 4.66673 4.31612 4.66672 4.00398 4.69222C3.67453 4.71914 3.34685 4.77857 3.03153 4.93923C2.56113 5.17892 2.17867 5.56137 1.93899 6.03177C1.77833 6.34709 1.7189 6.67477 1.69198 7.00423C1.66648 7.31635 1.66649 7.6953 1.6665 8.13457V12.8655C1.66649 13.3048 1.66648 13.6838 1.69198 13.9959C1.7189 14.3254 1.77833 14.6531 1.93899 14.9684C2.17867 15.4388 2.56113 15.8212 3.03153 16.0609C3.34685 16.2216 3.67453 16.281 4.00398 16.3079C4.31612 16.3334 4.69509 16.3334 5.13438 16.3334H14.0319C14.4712 16.3334 14.8502 16.3334 15.1624 16.3079C15.4918 16.281 15.8195 16.2216 16.1348 16.0609C16.6052 15.8212 16.9877 15.4388 17.2274 14.9684C17.388 14.6531 17.4474 14.3254 17.4744 13.9959C17.4999 13.6838 17.4999 13.3048 17.4998 12.8656V12.1667C17.9601 12.1667 18.3332 11.7937 18.3332 11.3334V9.66675C18.3332 9.20651 17.9601 8.83342 17.4998 8.83342V8.13461C17.4999 7.69533 17.4999 7.31637 17.4744 7.00423C17.4474 6.67477 17.388 6.34709 17.2274 6.03177C16.9877 5.56137 16.6052 5.17892 16.1348 4.93923C15.8195 4.77857 15.4918 4.71914 15.1624 4.69222C14.8502 4.66672 14.4712 4.66673 14.032 4.66675ZM3.78818 6.42424C3.82938 6.40325 3.91332 6.37185 4.1397 6.35336C4.37582 6.33406 4.68605 6.33342 5.16651 6.33342H13.9998C14.4803 6.33342 14.7905 6.33406 15.0266 6.35336C15.253 6.37185 15.337 6.40325 15.3782 6.42424C15.535 6.50414 15.6624 6.63162 15.7423 6.78842C15.7633 6.82963 15.7947 6.91356 15.8132 7.13995C15.8325 7.37606 15.8332 7.68629 15.8332 8.16675V12.8334C15.8332 13.3139 15.8325 13.6241 15.8132 13.8602C15.7947 14.0866 15.7633 14.1705 15.7423 14.2117C15.6624 14.3685 15.535 14.496 15.3782 14.5759C15.337 14.5969 15.253 14.6283 15.0266 14.6468C14.7905 14.6661 14.4803 14.6667 13.9998 14.6667H5.16651C4.68605 14.6667 4.37582 14.6661 4.1397 14.6468C3.91332 14.6283 3.82938 14.5969 3.78818 14.5759C3.63138 14.496 3.5039 14.3685 3.424 14.2117C3.40301 14.1705 3.37161 14.0866 3.35311 13.8602C3.33382 13.6241 3.33317 13.3139 3.33317 12.8334V8.16675C3.33317 7.68629 3.33382 7.37606 3.35311 7.13995C3.37161 6.91356 3.40301 6.82963 3.424 6.78842C3.5039 6.63162 3.63138 6.50414 3.78818 6.42424ZM7.08317 8.83342C7.08317 8.37318 6.71008 8.00008 6.24984 8.00008C5.7896 8.00008 5.41651 8.37318 5.41651 8.83342V12.1667C5.41651 12.627 5.7896 13.0001 6.24984 13.0001C6.71008 13.0001 7.08317 12.627 7.08317 12.1667V8.83342Z" fill="currentColor"/>
</svg>
