<svg width="100%" height="100%" viewBox="0 0 20 20" fill="none" xmlns="http://www.w3.org/2000/svg">
<path fill-rule="evenodd" clip-rule="evenodd" d="M9.99967 1.66699C10.4599 1.66699 10.833 2.04009 10.833 2.50033V3.39294C11.915 3.54782 12.9331 4.00267 13.7353 4.71572C14.7442 5.61251 15.333 6.85132 15.333 8.16699C15.333 9.67689 15.6729 10.7704 16.0872 11.5487L16.0947 11.5629C16.3956 12.1282 16.6304 12.5692 16.7871 12.8849C16.8655 13.0427 16.934 13.1882 16.9831 13.3119C17.0074 13.3732 17.034 13.4465 17.054 13.5237C17.0688 13.5803 17.106 13.7309 17.0827 13.9109C17.071 14.0013 17.0446 14.2002 16.9247 14.3999C16.8048 14.5997 16.6415 14.7164 16.5673 14.7691C16.4361 14.8624 16.3059 14.9022 16.2413 14.9197C16.1648 14.9404 16.0906 14.9527 16.029 14.9607C15.9059 14.9769 15.7627 14.9851 15.6135 14.9902C15.316 15.0003 14.9004 15.0003 14.3767 15.0003H5.62262C5.09898 15.0003 4.68332 15.0003 4.38589 14.9902C4.23668 14.9851 4.09346 14.9769 3.97035 14.9607C3.90878 14.9527 3.83455 14.9404 3.75808 14.9197C3.69343 14.9022 3.56322 14.8624 3.43207 14.7691C3.35782 14.7164 3.1946 14.5997 3.07465 14.3999C2.9547 14.2002 2.92838 14.0013 2.91667 13.9109C2.89335 13.7309 2.93059 13.5803 2.9453 13.5237C2.96536 13.4465 2.99195 13.3732 3.01629 13.3119C3.06539 13.1882 3.13386 13.0427 3.2122 12.8849C3.36896 12.5692 3.60371 12.1282 3.90461 11.5629L3.91218 11.5487C4.32643 10.7704 4.66634 9.67689 4.66634 8.16699C4.66634 6.85132 5.25517 5.61251 6.26406 4.71572C7.06624 4.00267 8.08434 3.54782 9.16634 3.39294V2.50033C9.16634 2.04009 9.53944 1.66699 9.99967 1.66699ZM9.99967 5.00033C8.9976 5.00033 8.05347 5.35506 7.37133 5.96141C6.69239 6.56491 6.33301 7.36094 6.33301 8.16699C6.33301 9.93886 5.93111 11.3028 5.3834 12.3318C5.16529 12.7416 4.99 13.071 4.85476 13.3319C5.06973 13.3336 5.32952 13.3337 5.64115 13.3337H14.3582C14.6698 13.3337 14.9296 13.3336 15.1446 13.3319C15.0094 13.071 14.8341 12.7416 14.6159 12.3318C14.0682 11.3028 13.6663 9.93886 13.6663 8.16699C13.6663 7.36094 13.307 6.56491 12.628 5.96141C11.9459 5.35506 11.0017 5.00033 9.99967 5.00033ZM7.16989 16.1155C7.47445 15.7705 8.00106 15.7377 8.34612 16.0422C8.78826 16.4325 9.36708 16.6683 10.003 16.6683C10.6389 16.6683 11.2178 16.4325 11.6599 16.0422C12.005 15.7377 12.5316 15.7705 12.8361 16.1155C13.1407 16.4606 13.1078 16.9872 12.7628 17.2918C12.0279 17.9404 11.0605 18.335 10.003 18.335C8.94553 18.335 7.97817 17.9404 7.24323 17.2918C6.89818 16.9872 6.86534 16.4606 7.16989 16.1155Z" fill="currentColor"/>
</svg>
