<svg width="100%" height="100%" viewBox="0 0 16 16" fill="none" xmlns="http://www.w3.org/2000/svg">
<path fill-rule="evenodd" clip-rule="evenodd" d="M14.0139 12.829C13.9585 12.9396 13.8734 13.0326 13.7681 13.0976C13.6629 13.1626 13.5416 13.197 13.4179 13.197H3.75123C3.3299 13.197 3.1299 12.8217 2.95123 12.5003C2.75846 12.1551 2.59392 11.7948 2.45923 11.423C2.1259 10.5137 1.8479 9.22765 2.0939 7.75432C2.24497 6.81603 2.56769 5.91362 3.0459 5.09232C3.48257 4.35299 4.33323 4.14565 5.0399 4.33432L6.4979 4.72499L7.1879 2.14899C7.32519 1.63659 7.66041 1.19972 8.11982 0.934479C8.34729 0.803146 8.5984 0.717903 8.85882 0.683617C9.11923 0.649331 9.38385 0.666674 9.63757 0.734655C9.89128 0.802636 10.1291 0.919923 10.3375 1.07982C10.5459 1.23972 10.7207 1.4391 10.8521 1.66657C10.9834 1.89404 11.0687 2.14516 11.1029 2.40557C11.1372 2.66599 11.1199 2.93061 11.0519 3.18432L10.3612 5.76032L11.2666 6.00299C12.3692 6.29832 12.9399 7.41565 12.7852 8.43965C12.7119 8.92632 12.6826 9.40432 12.7419 9.75165C12.8179 10.1983 13.0959 10.7763 13.3986 11.289C13.6519 11.7183 13.8919 12.0503 13.9426 12.1183C14.0939 12.3237 14.1299 12.5977 14.0139 12.829ZM9.29257 2.02232C9.20795 1.99965 9.1197 1.99387 9.03285 2.00533C8.946 2.01678 8.86226 2.04524 8.78641 2.08907C8.71057 2.13291 8.64411 2.19126 8.59083 2.26079C8.53755 2.33033 8.4985 2.40968 8.4759 2.49432L7.61323 5.71432C7.59057 5.7989 7.55146 5.87818 7.49815 5.94764C7.44484 6.01711 7.37837 6.07538 7.30253 6.11915C7.2267 6.16292 7.14298 6.19132 7.05617 6.20273C6.96935 6.21414 6.88114 6.20834 6.79657 6.18565L4.69523 5.62232C4.4399 5.55365 4.26457 5.65099 4.19457 5.76965C4.00812 6.08681 3.85124 6.42043 3.7259 6.76632L11.3992 8.80165C11.4159 8.60565 11.4399 8.41632 11.4666 8.24032C11.5366 7.77965 11.2686 7.38365 10.9212 7.29099L9.37257 6.87565C9.28799 6.85299 9.20871 6.81388 9.13925 6.76057C9.06978 6.70726 9.0115 6.64079 8.96774 6.56495C8.92397 6.48912 8.89557 6.4054 8.88416 6.31859C8.87275 6.23177 8.87855 6.14356 8.90123 6.05899L9.7639 2.83899C9.80952 2.66828 9.78549 2.48645 9.69711 2.33344C9.60874 2.18043 9.46323 2.0681 9.29257 2.02232ZM11.4739 10.2003L3.39523 8.05765C3.2219 9.20699 3.4399 10.223 3.71123 10.9643C3.8499 11.3437 4.00057 11.6457 4.11457 11.8503L4.12257 11.8637H5.2559C5.00457 11.3357 4.74723 10.6197 4.74257 9.86832C4.73919 9.77911 4.75377 9.69012 4.78543 9.60665C4.8171 9.52317 4.8652 9.44691 4.9269 9.38238C4.9886 9.31785 5.06263 9.26637 5.1446 9.231C5.22657 9.19562 5.31481 9.17707 5.40409 9.17645C5.49336 9.17582 5.58186 9.19314 5.66431 9.22736C5.74677 9.26158 5.82152 9.31202 5.88411 9.37568C5.94671 9.43934 5.99588 9.51492 6.02871 9.59794C6.06154 9.68096 6.07736 9.76973 6.07523 9.85899C6.07857 10.3763 6.2799 10.935 6.51257 11.3977C6.60457 11.5817 6.69723 11.741 6.7739 11.8643H12.1906C11.9219 11.3977 11.6172 10.791 11.4739 10.2003Z" fill="currentColor"/>
</svg>
