<svg width="100%" height="100%" viewBox="0 0 24 24" fill="none" xmlns="http://www.w3.org/2000/svg">
<path fill-rule="evenodd" clip-rule="evenodd" d="M7 2C7.55229 2 8 2.44772 8 3V4H16V3C16 2.44772 16.4477 2 17 2C17.5523 2 18 2.44772 18 3V4.00003C18.459 4.00031 18.8593 4.00314 19.195 4.03057C19.5904 4.06287 19.9836 4.13419 20.362 4.32698C20.9265 4.6146 21.3854 5.07354 21.673 5.63803C21.8658 6.01641 21.9371 6.40963 21.9694 6.80497C22 7.17954 22 7.63429 22 8.16143V10C22 10.5523 21.5523 11 21 11C20.4477 11 20 10.5523 20 10H4V17.8C4 18.3766 4.00078 18.7488 4.02393 19.0322C4.04612 19.3038 4.0838 19.4045 4.109 19.454C4.20487 19.6422 4.35785 19.7951 4.54601 19.891C4.59546 19.9162 4.69617 19.9539 4.96784 19.9761C5.25118 19.9992 5.62345 20 6.2 20H10C10.5523 20 11 20.4477 11 21C11 21.5523 10.5523 22 10 22H6.16144C5.6343 22 5.17954 22 4.80497 21.9694C4.40963 21.9371 4.01641 21.8658 3.63803 21.673C3.07355 21.3854 2.6146 20.9265 2.32698 20.362C2.13419 19.9836 2.06287 19.5904 2.03057 19.195C1.99997 18.8205 1.99998 18.3657 2 17.8385V8.16146C1.99998 7.63431 1.99997 7.17954 2.03057 6.80497C2.06287 6.40963 2.13419 6.01641 2.32698 5.63803C2.6146 5.07354 3.07354 4.6146 3.63803 4.32698C4.01641 4.13419 4.40963 4.06287 4.80497 4.03057C5.14075 4.00314 5.54097 4.00031 6 4.00003V3C6 2.44772 6.44772 2 7 2ZM6.2 6C5.62345 6 5.25118 6.00078 4.96784 6.02393C4.69617 6.04612 4.59546 6.0838 4.54601 6.10899C4.35785 6.20487 4.20487 6.35785 4.109 6.54601C4.0838 6.59545 4.04612 6.69617 4.02393 6.96784C4.00357 7.21698 4.00052 7.5349 4.00007 8H19.9999C19.9995 7.5349 19.9964 7.21698 19.9761 6.96784C19.9539 6.69617 19.9162 6.59545 19.891 6.54601C19.7951 6.35785 19.6422 6.20487 19.454 6.10899C19.4045 6.0838 19.3038 6.04612 19.0322 6.02393C18.7488 6.00078 18.3766 6 17.8 6H6.2ZM6 13C6.00001 12.4477 6.44773 12 7.00001 12L13.5 12.0001C14.0523 12.0001 14.5 12.4478 14.5 13.0001C14.5 13.5524 14.0523 14.0001 13.5 14.0001L6.99999 14C6.44771 14 6 13.5523 6 13ZM20.2929 15.2929C20.4547 15.1311 20.4547 14.8689 20.2929 14.7071C20.1311 14.5453 19.8689 14.5453 19.7071 14.7071L15.5497 18.8646C15.4814 18.9328 15.4478 18.9666 15.4242 18.9919C15.4236 18.9925 15.4231 18.9931 15.4225 18.9937C15.4223 18.9945 15.4221 18.9953 15.4219 18.9961C15.414 19.0298 15.4045 19.0764 15.3856 19.1712L15.2748 19.7252L15.8289 19.6144C15.9236 19.5955 15.9702 19.586 16.0039 19.5781C16.0047 19.5779 16.0055 19.5777 16.0063 19.5775C16.0069 19.5769 16.0075 19.5764 16.0081 19.5758C16.0334 19.5522 16.0672 19.5186 16.1354 19.4503L20.2929 15.2929ZM18.2929 13.2929C19.2357 12.3501 20.7643 12.3501 21.7071 13.2929C22.6499 14.2357 22.6499 15.7643 21.7071 16.7071L17.5497 20.8646C17.5411 20.8731 17.5323 20.882 17.5232 20.891C17.4241 20.9905 17.2993 21.1159 17.1511 21.2192C17.0223 21.309 16.8834 21.3834 16.7373 21.4407C16.569 21.5067 16.3955 21.541 16.2578 21.5683C16.2452 21.5708 16.233 21.5732 16.2211 21.5756L14.1961 21.9806C13.8683 22.0462 13.5293 21.9435 13.2929 21.7071C13.0565 21.4707 12.9538 21.1317 13.0194 20.8039L13.4244 18.7789C13.4268 18.767 13.4292 18.7548 13.4317 18.7422C13.459 18.6045 13.4933 18.431 13.5593 18.2627C13.6166 18.1166 13.691 17.9777 13.7808 17.8489C13.8842 17.7007 14.0095 17.5759 14.109 17.4768C14.118 17.4677 14.1269 17.4589 14.1354 17.4503L18.2929 13.2929ZM6 17C6.00002 16.4477 6.44775 16 7.00003 16L10 16.0001C10.5523 16.0001 11 16.4478 11 17.0001C11 17.5524 10.5523 18.0001 9.99997 18.0001L6.99997 18C6.44768 18 5.99998 17.5523 6 17Z" fill="currentColor"/>
</svg>
