<svg width="100%" height="100%" viewBox="0 0 24 24" fill="none" xmlns="http://www.w3.org/2000/svg">
<path fill-rule="evenodd" clip-rule="evenodd" d="M10.448 3.00001C10.4621 3.00002 10.4764 3.00003 10.4907 3.00003H13.5093C13.5237 3.00003 13.5379 3.00002 13.552 3.00001C13.7556 2.99992 13.9335 2.99984 14.1053 3.01951C14.993 3.12119 15.7892 3.61325 16.2771 4.36175C16.3715 4.5066 16.4511 4.66583 16.542 4.84798C16.5483 4.86059 16.5547 4.87331 16.5611 4.88615C16.5904 4.94481 16.6056 4.97494 16.617 4.99673C16.6175 4.99767 16.618 4.99855 16.6184 4.99938C16.6194 4.9994 16.6204 4.99942 16.6214 4.99944C16.6461 4.99997 16.6798 5.00003 16.7454 5.00003L17.8385 5.00002C18.3657 5.00001 18.8205 4.99999 19.195 5.0306C19.5904 5.0629 19.9836 5.13421 20.362 5.32701C20.9265 5.61463 21.3854 6.07357 21.673 6.63806C21.8658 7.01643 21.9371 7.40965 21.9694 7.805C22 8.17956 22 8.63432 22 9.16146V16.8386C22 17.3657 22 17.8205 21.9694 18.1951C21.9371 18.5904 21.8658 18.9836 21.673 19.362C21.3854 19.9265 20.9265 20.3854 20.362 20.673C19.9836 20.8658 19.5904 20.9372 19.195 20.9695C18.8205 21.0001 18.3657 21 17.8386 21H6.16144C5.6343 21 5.17954 21.0001 4.80497 20.9695C4.40963 20.9372 4.01641 20.8658 3.63803 20.673C3.07354 20.3854 2.6146 19.9265 2.32698 19.362C2.13419 18.9836 2.06287 18.5904 2.03057 18.1951C1.99997 17.8205 1.99998 17.3657 2 16.8386V9.16148C1.99998 8.63433 1.99997 8.17957 2.03057 7.805C2.06287 7.40965 2.13419 7.01643 2.32698 6.63805C2.6146 6.07357 3.07354 5.61463 3.63803 5.32701C4.01641 5.13421 4.40963 5.0629 4.80497 5.0306C5.17955 4.99999 5.63431 5.00001 6.16146 5.00002L7.25465 5.00003C7.32023 5.00003 7.35394 4.99997 7.37858 4.99944C7.37964 4.99942 7.38063 4.9994 7.38157 4.99938C7.382 4.99855 7.38247 4.99767 7.38297 4.99673C7.39446 4.97493 7.40958 4.9448 7.43891 4.88615C7.44533 4.8733 7.45169 4.86057 7.45799 4.84795C7.54897 4.66578 7.62847 4.5066 7.72289 4.36176C8.21082 3.61325 9.00699 3.12119 9.89468 3.01951C10.0665 2.99984 10.2444 2.99992 10.448 3.00001ZM10.4907 5.00003C10.2206 5.00003 10.1654 5.00158 10.1223 5.00652C9.82638 5.04041 9.56099 5.20443 9.39834 5.45394C9.37461 5.49034 9.34856 5.53898 9.22776 5.78057C9.22398 5.78815 9.2201 5.79593 9.21613 5.8039C9.17385 5.88873 9.12122 5.99434 9.05742 6.09221C8.73213 6.59121 8.20135 6.91925 7.60956 6.98703C7.49349 7.00033 7.37551 7.00017 7.28071 7.00005C7.27181 7.00004 7.26312 7.00003 7.25465 7.00003H6.2C5.62345 7.00003 5.25118 7.0008 4.96784 7.02395C4.69617 7.04615 4.59546 7.08383 4.54601 7.10902C4.35785 7.20489 4.20487 7.35787 4.109 7.54604C4.0838 7.59548 4.04612 7.6962 4.02393 7.96786C4.00078 8.2512 4 8.62347 4 9.20003V16.8C4 17.3766 4.00078 17.7489 4.02393 18.0322C4.04612 18.3039 4.0838 18.4046 4.109 18.454C4.20487 18.6422 4.35785 18.7952 4.54601 18.891C4.59546 18.9162 4.69617 18.9539 4.96784 18.9761C5.25118 18.9992 5.62345 19 6.2 19H17.8C18.3766 19 18.7488 18.9992 19.0322 18.9761C19.3038 18.9539 19.4045 18.9162 19.454 18.891C19.6422 18.7952 19.7951 18.6422 19.891 18.454C19.9162 18.4046 19.9539 18.3039 19.9761 18.0322C19.9992 17.7489 20 17.3766 20 16.8V9.20003C20 8.62347 19.9992 8.2512 19.9761 7.96786C19.9539 7.6962 19.9162 7.59548 19.891 7.54604C19.7951 7.35788 19.6422 7.20489 19.454 7.10902C19.4045 7.08383 19.3038 7.04615 19.0322 7.02395C18.7488 7.0008 18.3766 7.00003 17.8 7.00003H16.7454C16.7369 7.00003 16.7282 7.00004 16.7193 7.00005C16.6245 7.00017 16.5065 7.00033 16.3904 6.98703C15.7986 6.91925 15.2679 6.59121 14.9426 6.09221C14.8788 5.99433 14.8262 5.88874 14.7839 5.80388C14.7799 5.79592 14.776 5.78814 14.7722 5.78057C14.6515 5.539 14.6254 5.49033 14.6017 5.45394C14.439 5.20444 14.1736 5.04041 13.8777 5.00652C13.8346 5.00158 13.7794 5.00003 13.5093 5.00003H10.4907ZM12 11C10.8954 11 10 11.8955 10 13C10 14.1046 10.8954 15 12 15C13.1046 15 14 14.1046 14 13C14 11.8955 13.1046 11 12 11ZM8 13C8 10.7909 9.79086 9.00003 12 9.00003C14.2091 9.00003 16 10.7909 16 13C16 15.2092 14.2091 17 12 17C9.79086 17 8 15.2092 8 13Z" fill="currentColor"/>
</svg>
