<svg width="100%" height="100%" viewBox="0 0 20 21" fill="none" xmlns="http://www.w3.org/2000/svg">
<g clip-path="url(#clip0_25439_773)">
<path fill-rule="evenodd" clip-rule="evenodd" d="M12.8335 0.5L6.33514 6.99833L7.48346 8.14665L13.9818 1.64832L12.8335 0.5ZM4.17538 18.8334H5.56334V17.2094H14.7534V15.5855H5.56334V17.2094H4.17538C4.14675 17.2094 4.12397 17.1867 4.12397 17.1586V6.81604C4.12397 6.78741 4.14734 6.76463 4.17538 6.76463H5.56334V5.14066H4.17538C3.25182 5.14066 2.5 5.89248 2.5 6.81604V17.158C2.5 18.0822 3.25182 18.8334 4.17538 18.8334ZM14.754 18.8334H16.1419V18.834C17.0661 18.834 17.8173 18.0822 17.8173 17.1586V6.81662C17.8173 5.89248 17.0655 5.14124 16.1419 5.14124H14.754V6.76521H16.1419C16.1706 6.76521 16.1933 6.788 16.1933 6.81604V17.158C16.1933 17.1867 16.17 17.2094 16.1419 17.2094H14.754V18.8334Z" fill="currentColor"/>
</g>
<defs>
<clipPath id="clip0_25439_773">
<rect width="20" height="20" fill="white" transform="translate(0 0.5)"/>
</clipPath>
</defs>
</svg>
