<svg width="100%" height="100%" viewBox="0 0 20 20" fill="none" xmlns="http://www.w3.org/2000/svg">
<path fill-rule="evenodd" clip-rule="evenodd" d="M2.49935 1.66699C2.95959 1.66699 3.33268 2.04009 3.33268 2.50033V13.5003C3.33268 14.2141 3.33333 14.6994 3.36398 15.0745C3.39383 15.4398 3.44793 15.6266 3.51434 15.757C3.67413 16.0706 3.9291 16.3255 4.2427 16.4853C4.37303 16.5517 4.55987 16.6058 4.92521 16.6357C5.30029 16.6663 5.78553 16.667 6.49935 16.667H17.4993C17.9596 16.667 18.3327 17.0401 18.3327 17.5003C18.3327 17.9606 17.9596 18.3337 17.4993 18.3337H6.46491C5.79411 18.3337 5.24049 18.3337 4.78949 18.2968C4.32108 18.2586 3.89049 18.1764 3.48605 17.9703C2.85884 17.6508 2.34891 17.1408 2.02933 16.5136C1.82325 16.1092 1.74112 15.6786 1.70284 15.2102C1.666 14.7592 1.66601 14.2056 1.66602 13.5347L1.66602 2.50033C1.66602 2.04009 2.03911 1.66699 2.49935 1.66699ZM4.99998 5.83368C4.99998 5.37344 5.37308 5.00034 5.83331 5.00034H10.8333C11.2936 5.00034 11.6666 5.37344 11.6666 5.83368C11.6666 6.29392 11.2936 6.66701 10.8333 6.66701H5.83331C5.37308 6.66701 4.99998 6.29392 4.99998 5.83368ZM6.66665 9.16701C6.66665 8.70677 7.03974 8.33368 7.49998 8.33368H15C15.4602 8.33368 15.8333 8.70677 15.8333 9.16701C15.8333 9.62725 15.4602 10.0003 15 10.0003H7.49998C7.03974 10.0003 6.66665 9.62725 6.66665 9.16701ZM12.5 12.5003C12.5 12.0401 12.8731 11.667 13.3333 11.667H16.6666C17.1269 11.667 17.5 12.0401 17.5 12.5003C17.5 12.9606 17.1269 13.3337 16.6666 13.3337H13.3333C12.8731 13.3337 12.5 12.9606 12.5 12.5003Z" fill="currentColor"/>
</svg>
