<svg width="100%" height="100%" viewBox="0 0 24 24" fill="none" xmlns="http://www.w3.org/2000/svg">
<path d="M18 2C20.2091 2 22 3.79086 22 6V18C22 20.2091 20.2091 22 18 22H6C3.79086 22 2 20.2091 2 18V6C2 3.79086 3.79086 2 6 2H18ZM17.7344 8.32129C17.3597 7.9159 16.727 7.89116 16.3213 8.26562L10.5273 13.6133L7.70703 10.793C7.31651 10.4024 6.68349 10.4024 6.29297 10.793C5.90245 11.1835 5.90245 11.8165 6.29297 12.207L9.79297 15.707C10.1725 16.0866 10.7843 16.0984 11.1787 15.7344L17.6787 9.73438C18.0841 9.35972 18.1088 8.72696 17.7344 8.32129Z" fill="currentColor"/>
</svg>
