<svg width="100%" height="100%" viewBox="0 0 24 24" fill="none" xmlns="http://www.w3.org/2000/svg">
<path d="M17.6783 9.73481C18.0841 9.3602 18.1094 8.72755 17.7348 8.32172C17.3602 7.9159 16.7275 7.8906 16.3217 8.2652L10.5277 13.6135L7.70711 10.7929C7.31658 10.4024 6.68342 10.4024 6.29289 10.7929C5.90237 11.1834 5.90237 11.8166 6.29289 12.2071L9.79289 15.7071C10.1724 16.0866 10.7839 16.0989 11.1783 15.7348L17.6783 9.73481Z" fill="currentColor"/>
<path fill-rule="evenodd" clip-rule="evenodd" d="M2 6C2 3.79086 3.79086 2 6 2H18C20.2091 2 22 3.79086 22 6V18C22 20.2091 20.2091 22 18 22H6C3.79086 22 2 20.2091 2 18V6ZM6 4H18C19.1046 4 20 4.89543 20 6V18C20 19.1046 19.1046 20 18 20H6C4.89543 20 4 19.1046 4 18V6C4 4.89543 4.89543 4 6 4Z" fill="currentColor"/>
</svg>
