<svg width="100%" height="100%" viewBox="0 0 24 24" fill="none" xmlns="http://www.w3.org/2000/svg">
<path d="M17.999 2C20.208 2.00003 21.999 3.79098 21.999 6V17.999C21.999 20.208 20.208 21.999 17.999 21.999H6C3.79097 21.999 2 20.2081 2 17.999V6C2 3.79097 3.79097 2 6 2H17.999ZM7.49902 10.875C6.87783 10.8751 6.37402 11.3788 6.37402 12C6.37402 12.6212 6.87783 13.1249 7.49902 13.125H16.499C17.1202 13.1249 17.624 12.6212 17.624 12C17.624 11.3788 17.1202 10.8751 16.499 10.875H7.49902Z" fill="currentColor"/>
</svg>
