<svg width="100%" height="100%" viewBox="0 0 20 20" fill="none" xmlns="http://www.w3.org/2000/svg">
<path fill-rule="evenodd" clip-rule="evenodd" d="M6.66699 1.66699C7.12723 1.66699 7.50033 2.04009 7.50033 2.50033V4.18961C7.91014 4.16698 8.39569 4.16698 8.96591 4.16699L9.16699 4.16699V2.50033C9.16699 2.04009 9.54009 1.66699 10.0003 1.66699C10.4606 1.66699 10.8337 2.04009 10.8337 2.50033V4.16699L11.0347 4.16699C11.605 4.16698 12.0905 4.16698 12.5003 4.18961L12.5003 2.50033C12.5003 2.04009 12.8734 1.66699 13.3337 1.66699C13.7939 1.66699 14.167 2.04009 14.167 2.50033V4.61357C14.6737 4.90611 15.0945 5.32696 15.3871 5.83366H17.5003C17.9606 5.83366 18.3337 6.20676 18.3337 6.66699C18.3337 7.12723 17.9606 7.50033 17.5003 7.50033H15.811C15.8337 7.91013 15.8337 8.39568 15.8337 8.96589V9.16699H17.5003C17.9606 9.16699 18.3337 9.54009 18.3337 10.0003C18.3337 10.4606 17.9606 10.8337 17.5003 10.8337H15.8337V11.0348C15.8337 11.605 15.8337 12.0905 15.811 12.5003H17.5003C17.9606 12.5003 18.3337 12.8734 18.3337 13.3337C18.3337 13.7939 17.9606 14.167 17.5003 14.167H15.3871C15.0945 14.6737 14.6737 15.0945 14.167 15.3871V17.5003C14.167 17.9606 13.7939 18.3337 13.3337 18.3337C12.8734 18.3337 12.5003 17.9606 12.5003 17.5003V15.811C12.0905 15.8337 11.605 15.8337 11.0348 15.8337H10.8337V17.5003C10.8337 17.9606 10.4606 18.3337 10.0003 18.3337C9.54009 18.3337 9.16699 17.9606 9.16699 17.5003V15.8337H8.96589C8.39568 15.8337 7.91013 15.8337 7.50033 15.811L7.50033 17.5003C7.50033 17.9606 7.12723 18.3337 6.66699 18.3337C6.20676 18.3337 5.83366 17.9606 5.83366 17.5003L5.83366 15.3871C5.32696 15.0945 4.90611 14.6737 4.61357 14.167H2.50033C2.04009 14.167 1.66699 13.7939 1.66699 13.3337C1.66699 12.8734 2.04009 12.5003 2.50033 12.5003H4.18961C4.16698 12.0905 4.16698 11.605 4.16699 11.0347L4.16699 10.8337H2.50033C2.04009 10.8337 1.66699 10.4606 1.66699 10.0003C1.66699 9.54009 2.04009 9.16699 2.50033 9.16699H4.16699L4.16699 8.96591C4.16698 8.39569 4.16698 7.91014 4.18961 7.50033H2.50033C2.04009 7.50033 1.66699 7.12723 1.66699 6.66699C1.66699 6.20676 2.04009 5.83366 2.50033 5.83366H4.61357C4.90611 5.32696 5.32696 4.90611 5.83366 4.61357V2.50033C5.83366 2.04009 6.20676 1.66699 6.66699 1.66699ZM6.89399 5.95451C6.83499 5.97318 6.78631 5.99359 6.74368 6.01532C6.43007 6.1751 6.1751 6.43007 6.01532 6.74368C5.99359 6.78631 5.97318 6.83499 5.95451 6.89399C5.9517 6.90396 5.9487 6.91384 5.94553 6.92365C5.91125 7.04198 5.88345 7.19982 5.86495 7.42619C5.83431 7.80127 5.83366 8.28651 5.83366 9.00033V11.0003C5.83366 11.7141 5.83431 12.1994 5.86495 12.5745C5.88345 12.8008 5.91125 12.9587 5.94553 13.077C5.9487 13.0868 5.9517 13.0967 5.95451 13.1067C5.97318 13.1657 5.99359 13.2143 6.01532 13.257C6.1751 13.5706 6.43007 13.8255 6.74368 13.9853C6.78631 14.0071 6.83499 14.0275 6.89399 14.0461C6.90396 14.049 6.91384 14.0519 6.92365 14.0551C7.04198 14.0894 7.19982 14.1172 7.42619 14.1357C7.80127 14.1663 8.28651 14.167 9.00033 14.167H11.0003C11.7141 14.167 12.1994 14.1663 12.5745 14.1357C12.8008 14.1172 12.9587 14.0894 13.077 14.0551C13.0868 14.052 13.0967 14.049 13.1067 14.0461C13.1657 14.0275 13.2143 14.0071 13.257 13.9853C13.5706 13.8255 13.8255 13.5706 13.9853 13.257C14.0071 13.2143 14.0275 13.1657 14.0461 13.1067C14.049 13.0967 14.052 13.0868 14.0551 13.077C14.0894 12.9587 14.1172 12.8008 14.1357 12.5745C14.1663 12.1994 14.167 11.7141 14.167 11.0003V9.00033C14.167 8.28651 14.1663 7.80127 14.1357 7.42619C14.1172 7.19982 14.0894 7.04198 14.0551 6.92365C14.052 6.91384 14.049 6.90396 14.0461 6.894C14.0275 6.83499 14.0071 6.78631 13.9853 6.74368C13.8255 6.43007 13.5706 6.1751 13.257 6.01532C13.2143 5.99359 13.1657 5.97318 13.1067 5.95451C13.0967 5.9517 13.0868 5.9487 13.077 5.94553C12.9587 5.91125 12.8008 5.88345 12.5745 5.86495C12.1994 5.83431 11.7141 5.83366 11.0003 5.83366H9.00033C8.28651 5.83366 7.80127 5.83431 7.42619 5.86495C7.19982 5.88345 7.04198 5.91125 6.92365 5.94553C6.91384 5.9487 6.90396 5.9517 6.89399 5.95451ZM7.50033 8.33366C7.50033 7.87342 7.87342 7.50033 8.33366 7.50033H8.34199C8.80223 7.50033 9.17533 7.87342 9.17533 8.33366C9.17533 8.7939 8.80223 9.16699 8.34199 9.16699H8.33366C7.87342 9.16699 7.50033 8.7939 7.50033 8.33366ZM10.8337 8.33366C10.8337 7.87342 11.2068 7.50033 11.667 7.50033H11.6753C12.1356 7.50033 12.5087 7.87342 12.5087 8.33366C12.5087 8.7939 12.1356 9.16699 11.6753 9.16699H11.667C11.2068 9.16699 10.8337 8.7939 10.8337 8.33366ZM7.50033 11.667C7.50033 11.2068 7.87342 10.8337 8.33366 10.8337H8.34199C8.80223 10.8337 9.17533 11.2068 9.17533 11.667C9.17533 12.1272 8.80223 12.5003 8.34199 12.5003H8.33366C7.87342 12.5003 7.50033 12.1272 7.50033 11.667ZM10.8337 11.667C10.8337 11.2068 11.2068 10.8337 11.667 10.8337H11.6753C12.1356 10.8337 12.5087 11.2068 12.5087 11.667C12.5087 12.1272 12.1356 12.5003 11.6753 12.5003H11.667C11.2068 12.5003 10.8337 12.1272 10.8337 11.667Z" fill="currentColor"/>
</svg>
