<svg width="100%" height="100%" viewBox="0 0 20 20" fill="none" xmlns="http://www.w3.org/2000/svg">
<path fill-rule="evenodd" clip-rule="evenodd" d="M9.99996 3.33329C6.31806 3.33329 3.33329 6.31806 3.33329 9.99996C3.33329 13.6819 6.31806 16.6666 9.99996 16.6666C13.6819 16.6666 16.6666 13.6819 16.6666 9.99996C16.6666 6.31806 13.6819 3.33329 9.99996 3.33329ZM1.66663 9.99996C1.66663 5.39759 5.39759 1.66663 9.99996 1.66663C14.6023 1.66663 18.3333 5.39759 18.3333 9.99996C18.3333 14.6023 14.6023 18.3333 9.99996 18.3333C5.39759 18.3333 1.66663 14.6023 1.66663 9.99996ZM9.97245 7.70829C9.58529 7.70829 9.25788 7.97307 9.16532 8.33267C9.0506 8.77839 8.59629 9.04671 8.15058 8.93199C7.70487 8.81727 7.43654 8.36295 7.55126 7.91724C7.82874 6.83916 8.80641 6.04163 9.97245 6.04163C11.3532 6.04163 12.4725 7.16091 12.4725 8.54163C12.4725 9.31779 12.0937 9.83271 11.697 10.2156C11.5363 10.3707 11.3533 10.5223 11.1888 10.6587C11.1645 10.6788 11.1407 10.6986 11.1174 10.718C10.9253 10.8777 10.7416 11.0343 10.5617 11.2142C10.2363 11.5397 9.70865 11.5397 9.38321 11.2142C9.05778 10.8888 9.05778 10.3611 9.38321 10.0357C9.62001 9.79891 9.85293 9.60185 10.0515 9.43666C10.0778 9.41477 10.1032 9.39369 10.1278 9.37333C10.2983 9.2318 10.4276 9.12443 10.5396 9.01636C10.7679 8.79602 10.8058 8.68594 10.8058 8.54163C10.8058 8.08139 10.4327 7.70829 9.97245 7.70829ZM9.9808 13.9583H9.97247C9.51223 13.9583 9.13914 13.5852 9.13914 13.125C9.13914 12.6647 9.51223 12.2916 9.97247 12.2916H9.9808C10.441 12.2916 10.8141 12.6647 10.8141 13.125C10.8141 13.5852 10.441 13.9583 9.9808 13.9583Z" fill="currentColor"/>
</svg>
