<svg width="100%" height="100%" viewBox="0 0 16 16" fill="none" xmlns="http://www.w3.org/2000/svg">
<path fill-rule="evenodd" clip-rule="evenodd" d="M10.9997 2C11.166 2 11.3265 2.06501 11.4449 2.18087C11.5633 2.29681 11.6302 2.45453 11.6302 2.61968V3.95648H14C14.1663 3.95651 14.3262 4.02152 14.4446 4.13735C14.563 4.2533 14.6305 4.41095 14.6305 4.57616V12.7606H14.9999C15.1662 12.7607 15.326 12.8257 15.4445 12.9415C15.563 13.0575 15.6304 13.2151 15.6304 13.3803C15.6304 13.5455 15.563 13.7032 15.4445 13.8191C15.326 13.935 15.1662 14 14.9999 14H1.00014C0.833866 14 0.674023 13.935 0.555596 13.8191C0.437098 13.7032 0.369629 13.5455 0.369629 13.3803C0.369629 13.2151 0.437098 13.0575 0.555596 12.9415C0.674023 12.8257 0.833866 12.7607 1.00014 12.7606H1.36952V6.53264C1.36952 6.36743 1.43702 6.20978 1.55549 6.09383C1.6739 5.978 1.83379 5.91299 2.00003 5.91296H4.36984V2.61968C4.36984 2.45453 4.43678 2.29681 4.55517 2.18087C4.67361 2.06501 4.83406 2 5.00035 2H10.9997ZM5.63022 6.53264C5.63022 6.69782 5.56332 6.8555 5.44489 6.97145C5.32651 7.08725 5.16654 7.15225 5.00035 7.15232H2.63054V12.7606H6.36963V10.4456C6.36963 10.2803 6.43706 10.1228 6.5556 10.0068C6.67403 9.89094 6.83386 9.82592 7.00013 9.82592H8.99992C9.1662 9.82592 9.32603 9.89094 9.44446 10.0068C9.56299 10.1228 9.63043 10.2803 9.63043 10.4456V12.7606H13.3695V5.19584H10.9997C10.8335 5.19577 10.6735 5.13077 10.5552 5.01497C10.4367 4.89902 10.3698 4.74134 10.3698 4.57616V3.23936H5.63022V6.53264ZM7.63064 12.7606H8.36942V11.0653H7.63064V12.7606Z" fill="currentColor"/>
<path fill-rule="evenodd" clip-rule="evenodd" d="M12.0003 9.82605C12.1665 9.82612 12.3264 9.89113 12.4448 10.0069C12.5632 10.1229 12.6301 10.2806 12.6301 10.4457C12.6301 10.6109 12.5632 10.7686 12.4448 10.8845C12.3264 11.0003 12.1665 11.0653 12.0003 11.0654H10.9997C10.8335 11.0653 10.6736 11.0003 10.5552 10.8845C10.4368 10.7686 10.3699 10.6109 10.3699 10.4457C10.3699 10.2806 10.4368 10.1229 10.5552 10.0069C10.6736 9.89112 10.8335 9.82611 10.9997 9.82605H12.0003Z" fill="currentColor"/>
<path fill-rule="evenodd" clip-rule="evenodd" d="M12.0003 7.86957C12.1665 7.86964 12.3264 7.93465 12.4448 8.05044C12.5632 8.16638 12.6301 8.32408 12.6301 8.48925C12.6301 8.65441 12.5632 8.81211 12.4448 8.92805C12.3264 9.04385 12.1665 9.10885 12.0003 9.10892H10.9997C10.8335 9.10886 10.6736 9.04385 10.5552 8.92805C10.4368 8.81211 10.3699 8.65442 10.3699 8.48925C10.3699 8.32407 10.4368 8.16638 10.5552 8.05044C10.6736 7.93464 10.8335 7.86963 10.9997 7.86957H12.0003Z" fill="currentColor"/>
<path fill-rule="evenodd" clip-rule="evenodd" d="M12.0003 5.91309C12.1665 5.91316 12.3264 5.97817 12.4448 6.09396C12.5632 6.2099 12.6301 6.3676 12.6301 6.53277C12.6301 6.69793 12.5632 6.85563 12.4448 6.97157C12.3264 7.08736 12.1665 7.15237 12.0003 7.15244H10.9997C10.8335 7.15238 10.6736 7.08737 10.5552 6.97157C10.4368 6.85563 10.3699 6.69794 10.3699 6.53277C10.3699 6.36759 10.4368 6.2099 10.5552 6.09396C10.6736 5.97816 10.8335 5.91315 10.9997 5.91309H12.0003Z" fill="currentColor"/>
<path fill-rule="evenodd" clip-rule="evenodd" d="M8.50003 7.8695C8.66631 7.8695 8.82613 7.93451 8.94457 8.05038C9.06309 8.16633 9.13054 8.32394 9.13054 8.48918C9.13054 8.65443 9.06309 8.81203 8.94457 8.92799C8.82613 9.04385 8.66631 9.10886 8.50003 9.10886H7.50014C7.33385 9.10886 7.17403 9.04385 7.0556 8.92799C6.93707 8.81203 6.86963 8.65443 6.86963 8.48918C6.86963 8.32394 6.93707 8.16633 7.0556 8.05038C7.17403 7.93451 7.33385 7.8695 7.50014 7.8695H8.50003Z" fill="currentColor"/>
<path fill-rule="evenodd" clip-rule="evenodd" d="M8.50003 5.91302C8.66631 5.91302 8.82613 5.97803 8.94457 6.0939C9.06309 6.20985 9.13054 6.36746 9.13054 6.5327C9.13054 6.69795 9.06309 6.85555 8.94457 6.97151C8.82613 7.08737 8.66631 7.15238 8.50003 7.15238H7.50014C7.33385 7.15238 7.17403 7.08737 7.0556 6.97151C6.93707 6.85555 6.86963 6.69795 6.86963 6.5327C6.86963 6.36746 6.93707 6.20985 7.0556 6.0939C7.17403 5.97803 7.33385 5.91302 7.50014 5.91302H8.50003Z" fill="currentColor"/>
<path fill-rule="evenodd" clip-rule="evenodd" d="M8.50003 3.95654C8.66631 3.95654 8.82613 4.02155 8.94457 4.13742C9.06309 4.25337 9.13054 4.41098 9.13054 4.57622C9.13054 4.74147 9.06309 4.89907 8.94457 5.01503C8.82613 5.13089 8.66631 5.1959 8.50003 5.1959H7.50014C7.33385 5.1959 7.17403 5.13089 7.0556 5.01503C6.93707 4.89907 6.86963 4.74147 6.86963 4.57622C6.86963 4.41098 6.93707 4.25337 7.0556 4.13742C7.17403 4.02155 7.33385 3.95654 7.50014 3.95654H8.50003Z" fill="currentColor"/>
<path fill-rule="evenodd" clip-rule="evenodd" d="M5.00027 9.82611C5.16647 9.82618 5.32644 9.89118 5.44481 10.007C5.56324 10.1229 5.63014 10.2806 5.63014 10.4458C5.63014 10.611 5.56324 10.7687 5.44481 10.8846C5.32644 11.0004 5.16647 11.0654 5.00027 11.0655H3.99974C3.83356 11.0654 3.67357 11.0004 3.5552 10.8846C3.43679 10.7687 3.36987 10.611 3.36987 10.4458C3.36987 10.2806 3.43679 10.1229 3.5552 10.007C3.67357 9.89119 3.83356 9.82619 3.99974 9.82611H5.00027Z" fill="currentColor"/>
<path fill-rule="evenodd" clip-rule="evenodd" d="M5.00027 7.86963C5.16647 7.86969 5.32644 7.9347 5.44481 8.0505C5.56324 8.16644 5.63014 8.32413 5.63014 8.48931C5.63014 8.65448 5.56324 8.81217 5.44481 8.92812C5.32644 9.04392 5.16647 9.10892 5.00027 9.10899H3.99974C3.83356 9.10891 3.67357 9.04391 3.5552 8.92812C3.43679 8.81218 3.36987 8.65447 3.36987 8.48931C3.36987 8.32414 3.43679 8.16644 3.5552 8.0505C3.67357 7.93471 3.83356 7.86971 3.99974 7.86963H5.00027Z" fill="currentColor"/>
</svg>
