<svg width="100%" height="100%" viewBox="0 0 24 24" fill="none" xmlns="http://www.w3.org/2000/svg">
<path fill-rule="evenodd" clip-rule="evenodd" d="M7.7929 2.79289C8.30058 2.28521 8.98914 2 9.70711 2H14.2929C15.0109 2 15.6994 2.28521 16.2071 2.79289C16.5477 3.13352 16.7882 3.55558 16.9096 4.01331C17.0357 4.0187 17.1555 4.02631 17.2686 4.03706C17.6387 4.07223 18.0065 4.14585 18.362 4.32698C18.9265 4.6146 19.3854 5.07354 19.673 5.63803C19.8658 6.01641 19.9371 6.40963 19.9694 6.80497C20 7.17955 20 7.63432 20 8.16148V17.8385C20 18.3657 20 18.8205 19.9694 19.195C19.9371 19.5904 19.8658 19.9836 19.673 20.362C19.3854 20.9265 18.9265 21.3854 18.362 21.673C17.9836 21.8658 17.5904 21.9371 17.195 21.9694C16.8205 22 16.3657 22 15.8386 22H8.16144C7.6343 22 7.17954 22 6.80497 21.9694C6.40963 21.9371 6.01641 21.8658 5.63803 21.673C5.07354 21.3854 4.6146 20.9265 4.32698 20.362C4.13419 19.9836 4.06287 19.5904 4.03057 19.195C3.99997 18.8205 3.99998 18.3657 4 17.8385V8.16146C3.99998 7.63431 3.99997 7.17954 4.03057 6.80497C4.06287 6.40963 4.13419 6.01641 4.32698 5.63803C4.6146 5.07354 5.07354 4.6146 5.63803 4.32698C5.99353 4.14585 6.36128 4.07223 6.73139 4.03706C6.84451 4.02631 6.96427 4.0187 7.09041 4.0133C7.21179 3.55557 7.45227 3.13352 7.7929 2.79289ZM7 6.02141C6.97259 6.02344 6.94615 6.02566 6.92055 6.0281C6.68414 6.05056 6.59208 6.08552 6.54601 6.10899C6.35785 6.20487 6.20487 6.35785 6.109 6.54601C6.0838 6.59545 6.04612 6.69617 6.02393 6.96784C6.00078 7.25117 6 7.62345 6 8.2V17.8C6 18.3766 6.00078 18.7488 6.02393 19.0322C6.04612 19.3038 6.0838 19.4045 6.109 19.454C6.20487 19.6422 6.35785 19.7951 6.54601 19.891C6.59546 19.9162 6.69617 19.9539 6.96784 19.9761C7.25117 19.9992 7.62345 20 8.2 20H15.8C16.3766 20 16.7488 19.9992 17.0322 19.9761C17.3038 19.9539 17.4045 19.9162 17.454 19.891C17.6422 19.7951 17.7951 19.6422 17.891 19.454C17.9162 19.4045 17.9539 19.3038 17.9761 19.0322C17.9992 18.7488 18 18.3766 18 17.8V8.2C18 7.62345 17.9992 7.25117 17.9761 6.96784C17.9539 6.69617 17.9162 6.59545 17.891 6.54601C17.7951 6.35785 17.6422 6.20487 17.454 6.10899C17.4079 6.08552 17.3159 6.05056 17.0795 6.0281C17.0539 6.02566 17.0274 6.02344 17 6.02141V7C17 7.55228 16.5523 8 16 8H8C7.44772 8 7 7.55228 7 7V6.02141ZM15 6V4.70711C15 4.51957 14.9255 4.33972 14.7929 4.20711C14.6603 4.0745 14.4804 4 14.2929 4H9.70711C9.51957 4 9.33972 4.0745 9.20711 4.20711C9.0745 4.33972 9 4.51957 9 4.70711V6H15ZM8 12C8 11.4477 8.44772 11 9 11H9.01C9.56229 11 10.01 11.4477 10.01 12C10.01 12.5523 9.56229 13 9.01 13H9C8.44772 13 8 12.5523 8 12ZM11 12C11 11.4477 11.4477 11 12 11H15C15.5523 11 16 11.4477 16 12C16 12.5523 15.5523 13 15 13H12C11.4477 13 11 12.5523 11 12ZM8 16C8 15.4477 8.44772 15 9 15H9.01C9.56229 15 10.01 15.4477 10.01 16C10.01 16.5523 9.56229 17 9.01 17H9C8.44772 17 8 16.5523 8 16ZM11 16C11 15.4477 11.4477 15 12 15H15C15.5523 15 16 15.4477 16 16C16 16.5523 15.5523 17 15 17H12C11.4477 17 11 16.5523 11 16Z" fill="currentColor"/>
</svg>
