<svg width="100%" height="100%" viewBox="0 0 24 24" fill="none" xmlns="http://www.w3.org/2000/svg">
<path fill-rule="evenodd" clip-rule="evenodd" d="M12 4C11.7239 4 11.5 4.22386 11.5 4.5C11.5 4.77614 11.7239 5 12 5C12.2761 5 12.5 4.77614 12.5 4.5C12.5 4.22386 12.2761 4 12 4ZM14.3645 5.31384C14.4523 5.05872 14.5 4.78492 14.5 4.5C14.5 3.11929 13.3807 2 12 2C10.6193 2 9.5 3.11929 9.5 4.5C9.5 4.78492 9.54766 5.05871 9.63545 5.31383C5.81195 6.3522 3 9.84772 3 14C3 15.117 3.2039 16.1877 3.57671 17.176C2.65299 17.5433 2 18.4454 2 19.5C2 20.8807 3.11929 22 4.5 22H19.5C20.8807 22 22 20.8807 22 19.5C22 18.4454 21.347 17.5433 20.4233 17.176C20.7961 16.1877 21 15.117 21 14C21 9.84772 18.1881 6.3522 14.3645 5.31384ZM18.9106 19C18.9228 19.0002 18.9349 19.0002 18.947 19H19.5C19.7761 19 20 19.2239 20 19.5C20 19.7761 19.7761 20 19.5 20H4.5C4.22386 20 4 19.7761 4 19.5C4 19.2239 4.22386 19 4.5 19H5.05298C5.06511 19.0002 5.07725 19.0002 5.0894 19H18.9106ZM18.3266 17C18.7583 16.0916 19 15.0751 19 14C19 10.134 15.866 7 12 7C8.13401 7 5 10.134 5 14C5 15.0751 5.24172 16.0916 5.67337 17H18.3266ZM11 9C11 8.44772 11.4477 8 12 8C13.3844 8 14.5783 8.27785 15.5866 8.89834C16.5961 9.51955 17.3338 10.4314 17.8944 11.5528C18.1414 12.0468 17.9412 12.6474 17.4472 12.8944C16.9532 13.1414 16.3526 12.9412 16.1056 12.4472C15.6662 11.5686 15.1539 10.9804 14.5384 10.6017C13.9217 10.2222 13.1156 10 12 10C11.4477 10 11 9.55228 11 9Z" fill="currentColor"/>
</svg>
