<svg width="100%" height="100%" viewBox="0 0 24 24" fill="none" xmlns="http://www.w3.org/2000/svg">
<path fill-rule="evenodd" clip-rule="evenodd" d="M12 4C7.58172 4 4 7.58172 4 12C4 16.4183 7.58172 20 12 20C16.4183 20 20 16.4183 20 12C20 7.58172 16.4183 4 12 4ZM2 12C2 6.47715 6.47715 2 12 2C17.5228 2 22 6.47715 22 12C22 17.5228 17.5228 22 12 22C6.47715 22 2 17.5228 2 12ZM12 6C12.5523 6 13 6.44772 13 7V11.4338L15.0145 12.6425C15.4881 12.9267 15.6416 13.5409 15.3575 14.0145C15.0733 14.4881 14.4591 14.6416 13.9855 14.3575L11.4855 12.8575C11.1843 12.6768 11 12.3513 11 12V7C11 6.44772 11.4477 6 12 6Z" fill="currentColor"/>
</svg>
