<svg width="100%" height="100%" viewBox="0 0 24 24" fill="none" xmlns="http://www.w3.org/2000/svg">
<path fill-rule="evenodd" clip-rule="evenodd" d="M5 4.99999C5.39053 4.60946 6.02369 4.60946 6.41422 4.99999L12 10.5858L17.5858 5C17.9763 4.60948 18.6095 4.60948 19 5C19.3905 5.39052 19.3905 6.02369 19 6.41421L13.4142 12L19 17.5858C19.3905 17.9763 19.3905 18.6095 19 19C18.6095 19.3905 17.9763 19.3905 17.5858 19L12 13.4142L6.41421 19C6.02369 19.3905 5.39052 19.3905 5 19C4.60948 18.6095 4.60948 17.9763 5 17.5858L10.5858 12L5 6.4142C4.60948 6.02367 4.60948 5.39051 5 4.99999Z" fill="currentColor"/>
</svg>
