<svg width="100%" height="100%" viewBox="0 0 16 16" fill="none" xmlns="http://www.w3.org/2000/svg">
<path fill-rule="evenodd" clip-rule="evenodd" d="M10 2.66683C8.76394 2.66683 7.83848 3.03318 7.47814 3.40404C7.22157 3.66811 6.7995 3.67419 6.53543 3.41762C6.27136 3.16105 6.26528 2.73898 6.52186 2.47491C7.242 1.73372 8.59726 1.3335 10 1.3335C11.0015 1.3335 11.9412 1.53505 12.6552 1.89203C13.3293 2.22908 14 2.81804 14 3.66683V9.3335C14 9.9062 13.6143 10.3126 13.248 10.5612C12.8647 10.8213 12.3624 11.0117 11.817 11.138C11.4582 11.221 11.1002 10.9975 11.0172 10.6387C10.9342 10.28 11.1577 9.92195 11.5164 9.83895C11.9672 9.73463 12.2983 9.59431 12.4993 9.45795C12.6137 9.38034 12.6541 9.3281 12.6667 9.30743V8.20324C12.3843 8.32138 12.0712 8.416 11.7427 8.48801C11.3831 8.56687 11.0276 8.33925 10.9488 7.9796C10.8699 7.61995 11.0975 7.26448 11.4572 7.18562C11.9261 7.08281 12.2738 6.94048 12.4864 6.79994C12.6111 6.71747 12.6538 6.66186 12.6667 6.64062V5.43585C12.415 5.5627 12.1399 5.66765 11.8519 5.75094C11.4982 5.85324 11.1285 5.64945 11.0262 5.29576C10.924 4.94206 11.1277 4.57241 11.4814 4.47011C11.9193 4.34346 12.2426 4.17301 12.4424 4.00355C12.6428 3.83359 12.6667 3.7148 12.6667 3.66683C12.6667 3.59514 12.5912 3.35078 12.0589 3.0846C11.5664 2.83837 10.8394 2.66683 10 2.66683ZM3.94112 6.41794C3.40878 6.68411 3.33333 6.92848 3.33333 7.00016C3.33333 7.07185 3.40878 7.31622 3.94112 7.58239C4.43359 7.82862 5.16058 8.00016 6 8.00016C6.83942 8.00016 7.56641 7.82862 8.05888 7.58239C8.59123 7.31622 8.66667 7.07185 8.66667 7.00016C8.66667 6.92848 8.59123 6.68411 8.05888 6.41794C7.56641 6.1717 6.83942 6.00016 6 6.00016C5.16058 6.00016 4.43359 6.1717 3.94112 6.41794ZM8.66667 8.76918C8.66283 8.77112 8.659 8.77304 8.65516 8.77496C7.9412 9.13194 7.00153 9.3335 6 9.3335C4.99847 9.3335 4.0588 9.13194 3.34484 8.77496C3.341 8.77304 3.33717 8.77112 3.33333 8.76918V9.66683C3.33333 9.73851 3.40878 9.98288 3.94112 10.2491C4.43359 10.4953 5.16058 10.6668 6 10.6668C6.83942 10.6668 7.56641 10.4953 8.05888 10.2491C8.59123 9.98288 8.66667 9.73851 8.66667 9.66683V8.76918ZM8.66667 11.4359C8.66283 11.4378 8.659 11.4397 8.65517 11.4416C7.94121 11.7986 7.00153 12.0002 6 12.0002C4.99847 12.0002 4.0588 11.7986 3.34484 11.4416C3.341 11.4397 3.33717 11.4378 3.33333 11.4359V12.3335C3.33333 12.4052 3.40878 12.6496 3.94112 12.9157C4.43359 13.162 5.16058 13.3335 6 13.3335C6.83942 13.3335 7.56641 13.162 8.05888 12.9157C8.59123 12.6496 8.66667 12.4052 8.66667 12.3335V11.4359ZM10 12.3335C10 13.1823 9.32925 13.7713 8.65517 14.1083C7.94121 14.4653 7.00153 14.6668 6 14.6668C4.99847 14.6668 4.0588 14.4653 3.34484 14.1083C2.67075 13.7713 2 13.1823 2 12.3335V7.00016C2 6.15137 2.67075 5.56241 3.34484 5.22537C4.0588 4.86839 4.99847 4.66683 6 4.66683C7.00153 4.66683 7.9412 4.86839 8.65516 5.22537C9.32925 5.56241 10 6.15137 10 7.00016V12.3335Z" fill="currentColor"/>
</svg>
