<svg width="100%" height="100%" viewBox="0 0 20 20" fill="none" xmlns="http://www.w3.org/2000/svg">
<path fill-rule="evenodd" clip-rule="evenodd" d="M7.67095 0.622314C7.95431 0.905116 8.04169 1.32965 7.89306 1.70137C7.52626 2.61874 7.32031 3.6337 7.32031 4.68357C7.32031 9.10185 10.902 12.6836 15.3203 12.6836C16.373 12.6836 17.3811 12.4751 18.3039 12.1043C18.6755 11.9549 19.1004 12.0417 19.3836 12.3248C19.6669 12.6079 19.754 13.0327 19.6049 13.4044C18.1295 17.083 14.5298 19.6837 10.3203 19.6837C4.79746 19.6837 0.320312 15.2065 0.320312 9.68365C0.320312 5.47721 2.91719 1.87971 6.59147 0.402302C6.9629 0.252952 7.3876 0.339513 7.67095 0.622314ZM5.4066 3.36982C3.52761 4.83432 2.32031 7.1187 2.32031 9.68365C2.32031 14.1019 5.90203 17.6837 10.3203 17.6837C12.8857 17.6837 15.1704 16.4759 16.6349 14.5964C16.2046 14.6537 15.7658 14.6836 15.3203 14.6836C9.79746 14.6836 5.32031 10.2064 5.32031 4.68357C5.32031 4.23968 5.34978 3.80078 5.4066 3.36982Z" fill="currentColor"/>
</svg>
