<svg width="100%" height="100%" viewBox="0 0 24 24" fill="none" xmlns="http://www.w3.org/2000/svg">
<path fill-rule="evenodd" clip-rule="evenodd" d="M12 2C12.5523 2 13 2.44772 13 3V4.06189C16.6187 4.51314 19.4869 7.38128 19.9381 11H21C21.5523 11 22 11.4477 22 12C22 12.5523 21.5523 13 21 13H19.9381C19.4869 16.6187 16.6187 19.4869 13 19.9381V21C13 21.5523 12.5523 22 12 22C11.4477 22 11 21.5523 11 21V19.9381C7.38128 19.4869 4.51314 16.6187 4.06189 13H3C2.44772 13 2 12.5523 2 12C2 11.4477 2.44772 11 3 11H4.06189C4.51314 7.38128 7.38128 4.51314 11 4.06189V3C11 2.44772 11.4477 2 12 2ZM11 6.08296C8.4875 6.50448 6.50448 8.4875 6.08296 11H7C7.55228 11 8 11.4477 8 12C8 12.5523 7.55228 13 7 13H6.08296C6.50448 15.5125 8.4875 17.4955 11 17.917V17C11 16.4477 11.4477 16 12 16C12.5523 16 13 16.4477 13 17V17.917C15.5125 17.4955 17.4955 15.5125 17.917 13H17C16.4477 13 16 12.5523 16 12C16 11.4477 16.4477 11 17 11H17.917C17.4955 8.4875 15.5125 6.50448 13 6.08296V7C13 7.55228 12.5523 8 12 8C11.4477 8 11 7.55228 11 7V6.08296ZM11 12C11 11.4477 11.4477 11 12 11H12.01C12.5623 11 13.01 11.4477 13.01 12C13.01 12.5523 12.5623 13 12.01 13H12C11.4477 13 11 12.5523 11 12Z" fill="currentColor"/>
</svg>
