<svg width="100%" height="100%" viewBox="0 0 24 24" fill="none" xmlns="http://www.w3.org/2000/svg">
<path fill-rule="evenodd" clip-rule="evenodd" d="M12 22C17.5228 22 22 17.5228 22 12C22 6.47715 17.5228 2 12 2C6.47715 2 2 6.47715 2 12C2 17.5228 6.47715 22 12 22ZM8.23399 9.35287C7.922 9.04338 7.922 8.5416 8.23399 8.23212C8.54598 7.92263 9.05181 7.92263 9.36379 8.23212L12.0323 10.8793L14.6362 8.29621C14.9482 7.98672 15.454 7.98672 15.766 8.29621C16.078 8.6057 16.078 9.10748 15.766 9.41696L13.1621 12L15.766 14.583C16.078 14.8925 16.078 15.3943 15.766 15.7038C15.454 16.0133 14.9482 16.0133 14.6362 15.7038L12.0323 13.1208L9.3638 15.7679C9.05181 16.0774 8.54598 16.0774 8.234 15.7679C7.92201 15.4584 7.92201 14.9566 8.234 14.6471L10.9025 12L8.23399 9.35287Z" fill="currentColor"/>
</svg>
