<svg width="100%" height="100%" viewBox="0 0 20 20" fill="none" xmlns="http://www.w3.org/2000/svg">
<path fill-rule="evenodd" clip-rule="evenodd" d="M9.83346 2.95412C9.54643 2.99193 9.17222 3.07432 8.60262 3.20089L6.43595 3.68238C6.05158 3.76779 5.80703 3.82267 5.62205 3.87827C5.44715 3.93084 5.38144 3.9686 5.34655 3.99374C5.2239 4.0821 5.1276 4.20215 5.06795 4.34104C5.05098 4.38056 5.02837 4.45289 5.01499 4.63504C5.00085 4.82767 5.00033 5.0783 5.00033 5.47205V16.6662L10.8337 16.6662V4.99057C10.8337 4.66886 10.8334 4.40805 10.829 4.19045C10.8289 4.18619 10.8288 4.18192 10.8287 4.17764C10.825 4.0062 10.8187 3.86177 10.8076 3.73551C10.7828 3.45389 10.7404 3.3581 10.7164 3.31777C10.6136 3.14506 10.4519 3.01532 10.261 2.95245C10.2164 2.93776 10.1137 2.91719 9.83346 2.95412ZM12.4381 3.33293C12.394 3.03455 12.3123 2.74038 12.1486 2.4654C11.8403 1.94728 11.3551 1.55805 10.7824 1.36943C10.3916 1.2407 9.99914 1.25122 9.61575 1.30173C9.24733 1.35027 8.80106 1.44946 8.27633 1.56608L6.04724 2.06143C5.69788 2.13906 5.39293 2.20681 5.1423 2.28214C4.87513 2.36245 4.61552 2.46625 4.37232 2.64146C4.00438 2.90653 3.71548 3.26669 3.53653 3.68337C3.41825 3.95878 3.37324 4.23473 3.3528 4.51296C3.33363 4.77396 3.33365 5.08635 3.33366 5.44422L3.33366 16.6663L2.50032 16.6663C2.04008 16.6663 1.66699 17.0394 1.66699 17.4996C1.66699 17.9598 2.04009 18.3329 2.50033 18.3329L4.16285 18.3329C4.16423 18.3329 4.16561 18.3329 4.16699 18.3329C4.16838 18.3329 4.16976 18.3329 4.17115 18.3329L11.667 18.3329C12.1272 18.3329 12.5003 17.9598 12.5003 17.4995V4.99959H13.167C13.6475 4.99959 13.9577 5.00024 14.1938 5.01953C14.4202 5.03803 14.5041 5.06943 14.5453 5.09042C14.7021 5.17032 14.8296 5.2978 14.9095 5.4546C14.9305 5.49581 14.9619 5.57974 14.9804 5.80612C14.9997 6.04224 15.0003 6.35247 15.0003 6.83293V17.4996C15.0003 17.9598 15.3734 18.3329 15.8337 18.3329H17.5003C17.9606 18.3329 18.3337 17.9598 18.3337 17.4996C18.3337 17.0394 17.9606 16.6663 17.5003 16.6663H16.667V6.80079C16.667 6.36151 16.667 5.98254 16.6415 5.6704C16.6146 5.34095 16.5552 5.01327 16.3945 4.69795C16.1548 4.22755 15.7724 3.84509 15.302 3.60541C14.9867 3.44475 14.659 3.38532 14.3295 3.3584C14.0174 3.3329 13.6384 3.33291 13.1991 3.33293L12.4381 3.33293ZM8.33366 9.99959C8.33366 9.53936 8.70676 9.16626 9.16699 9.16626H9.17533C9.63556 9.16626 10.0087 9.53936 10.0087 9.99959C10.0087 10.4598 9.63556 10.8329 9.17533 10.8329H9.16699C8.70676 10.8329 8.33366 10.4598 8.33366 9.99959Z" fill="currentColor"/>
</svg>
