<svg width="100%" height="100%" viewBox="0 0 24 24" fill="none" xmlns="http://www.w3.org/2000/svg">
<path fill-rule="evenodd" clip-rule="evenodd" d="M12 3C12.5523 3 13 3.44772 13 4V12.5858L14.2929 11.2929C14.6834 10.9024 15.3166 10.9024 15.7071 11.2929C16.0976 11.6834 16.0976 12.3166 15.7071 12.7071L12.7071 15.7071C12.3166 16.0976 11.6834 16.0976 11.2929 15.7071L8.29289 12.7071C7.90237 12.3166 7.90237 11.6834 8.29289 11.2929C8.68342 10.9024 9.31658 10.9024 9.70711 11.2929L11 12.5858V4C11 3.44772 11.4477 3 12 3ZM5.96801 13H6.6C7.15229 13 7.6 13.4477 7.6 14C7.6 14.5523 7.15229 15 6.6 15H6C5.52038 15 5.21074 15.0005 4.97376 15.0167C4.74576 15.0323 4.65893 15.0589 4.61732 15.0761C4.37229 15.1776 4.17762 15.3723 4.07612 15.6173C4.05888 15.6589 4.03227 15.7458 4.01671 15.9738C4.00054 16.2107 4 16.5204 4 17C4 17.4796 4.00054 17.7893 4.01671 18.0262C4.03227 18.2542 4.05888 18.3411 4.07612 18.3827C4.17762 18.6277 4.37229 18.8224 4.61732 18.9239C4.65893 18.9411 4.74576 18.9677 4.97376 18.9833C5.21074 18.9995 5.52038 19 6 19H18C18.4796 19 18.7893 18.9995 19.0262 18.9833C19.2542 18.9677 19.3411 18.9411 19.3827 18.9239C19.6277 18.8224 19.8224 18.6277 19.9239 18.3827C19.9411 18.3411 19.9677 18.2542 19.9833 18.0262C19.9995 17.7893 20 17.4796 20 17C20 16.5204 19.9995 16.2107 19.9833 15.9738C19.9677 15.7458 19.9411 15.6589 19.9239 15.6173C19.8224 15.3723 19.6277 15.1776 19.3827 15.0761C19.3411 15.0589 19.2542 15.0323 19.0262 15.0167C18.7893 15.0005 18.4796 15 18 15H17.4C16.8477 15 16.4 14.5523 16.4 14C16.4 13.4477 16.8477 13 17.4 13H18.032C18.4706 13 18.8491 13 19.1624 13.0213C19.4922 13.0439 19.8221 13.0934 20.1481 13.2284C20.8831 13.5328 21.4672 14.1169 21.7716 14.852C21.9066 15.1779 21.9561 15.5078 21.9787 15.8376C22 16.1509 22 16.5294 22 16.968V17.032C22 17.4706 22 17.8491 21.9787 18.1624C21.9561 18.4922 21.9066 18.8221 21.7716 19.1481C21.4672 19.8831 20.8831 20.4672 20.1481 20.7716C19.8221 20.9066 19.4922 20.9561 19.1624 20.9787C18.8491 21 18.4706 21 18.032 21H5.96801C5.52936 21 5.15088 21 4.83762 20.9787C4.50779 20.9561 4.17788 20.9066 3.85195 20.7716C3.11687 20.4672 2.53284 19.8831 2.22836 19.1481C2.09336 18.8221 2.04386 18.4922 2.02135 18.1624C1.99998 17.8491 1.99999 17.4706 2 17.032V16.968C1.99999 16.5294 1.99998 16.1509 2.02135 15.8376C2.04386 15.5078 2.09336 15.1779 2.22836 14.8519C2.53284 14.1169 3.11687 13.5328 3.85195 13.2284C4.17788 13.0934 4.50779 13.0439 4.83762 13.0213C5.15088 13 5.52936 13 5.96801 13ZM16 17C16 16.4477 16.4477 16 17 16H17.01C17.5623 16 18.01 16.4477 18.01 17C18.01 17.5523 17.5623 18 17.01 18H17C16.4477 18 16 17.5523 16 17Z" fill="currentColor"/>
</svg>
