<svg width="100%" height="100%" viewBox="0 0 20 21" fill="none" xmlns="http://www.w3.org/2000/svg">
<path d="M16.25 3H3.75C3.41848 3 3.10054 3.1317 2.86612 3.36612C2.6317 3.60054 2.5 3.91848 2.5 4.25V16.75C2.5 17.0815 2.6317 17.3995 2.86612 17.6339C3.10054 17.8683 3.41848 18 3.75 18H16.25C16.5815 18 16.8995 17.8683 17.1339 17.6339C17.3683 17.3995 17.5 17.0815 17.5 16.75V4.25C17.5 3.91848 17.3683 3.60054 17.1339 3.36612C16.8995 3.1317 16.5815 3 16.25 3ZM8.75 4.875H11.25C11.4158 4.875 11.5747 4.94085 11.6919 5.05806C11.8092 5.17527 11.875 5.33424 11.875 5.5C11.875 5.66576 11.8092 5.82473 11.6919 5.94194C11.5747 6.05915 11.4158 6.125 11.25 6.125H8.75C8.58424 6.125 8.42527 6.05915 8.30806 5.94194C8.19085 5.82473 8.125 5.66576 8.125 5.5C8.125 5.33424 8.19085 5.17527 8.30806 5.05806C8.42527 4.94085 8.58424 4.875 8.75 4.875ZM9.375 16.75H5V8H9.375V16.75ZM15 16.75H10.625V8H15V16.75Z" fill="currentColor"/>
</svg>
