<svg width="100%" height="100%" viewBox="0 0 20 20" fill="none" xmlns="http://www.w3.org/2000/svg">
<g clip-path="url(#clip0_4957_5781)">
<path fill-rule="evenodd" clip-rule="evenodd" d="M9.83315 2.95461C9.54613 2.99242 9.17192 3.0748 8.60232 3.20138L6.43565 3.68286C6.05127 3.76828 5.80672 3.82316 5.62175 3.87876C5.44684 3.93133 5.38113 3.96909 5.34624 3.99423C5.2236 4.08259 5.12729 4.20264 5.06764 4.34153C5.05067 4.38105 5.02807 4.45338 5.01469 4.63553C5.00054 4.82816 5.00002 5.07879 5.00002 5.47254V16.6667L10.8334 16.6667V4.99106C10.8334 4.66935 10.8331 4.40854 10.8287 4.19093C10.8285 4.18668 10.8285 4.18241 10.8284 4.17813C10.8247 4.00668 10.8183 3.86226 10.8072 3.736C10.7825 3.45438 10.7401 3.35859 10.7161 3.31826C10.6133 3.14555 10.4516 3.01581 10.2607 2.95294C10.2161 2.93825 10.1134 2.91768 9.83315 2.95461ZM12.4378 3.33342C12.3937 3.03504 12.312 2.74086 12.1483 2.46589C11.84 1.94776 11.3548 1.55854 10.7821 1.36992C10.3913 1.24119 9.99884 1.25171 9.61545 1.30222C9.24703 1.35076 8.80076 1.44994 8.27602 1.56657L6.04693 2.06192C5.69757 2.13954 5.39262 2.2073 5.142 2.28263C4.87483 2.36293 4.61521 2.46674 4.37202 2.64195C4.00408 2.90702 3.71517 3.26718 3.53623 3.68386C3.41795 3.95927 3.37293 4.23522 3.3525 4.51345C3.33333 4.77444 3.33334 5.08683 3.33335 5.44471L3.33335 16.6667L2.50002 16.6667C2.03978 16.6668 1.66668 17.0399 1.66669 17.5001C1.66669 17.9603 2.03979 18.3334 2.50003 18.3334L4.16254 18.3334L4.16669 18.3334L4.17084 18.3334L11.6667 18.3334C12.1269 18.3334 12.5 17.9603 12.5 17.5V5.00008H13.1667C13.6471 5.00008 13.9574 5.00073 14.1935 5.02002C14.4199 5.03852 14.5038 5.06992 14.545 5.09091C14.7018 5.1708 14.8293 5.29829 14.9092 5.45509C14.9302 5.49629 14.9616 5.58023 14.9801 5.80661C14.9994 6.04273 15 6.35295 15 6.83342V17.5001C15 17.9603 15.3731 18.3334 15.8334 18.3334H17.5C17.9603 18.3334 18.3334 17.9603 18.3334 17.5001C18.3334 17.0398 17.9603 16.6667 17.5 16.6667H16.6667V6.80128C16.6667 6.36199 16.6667 5.98303 16.6412 5.67089C16.6143 5.34144 16.5549 5.01376 16.3942 4.69844C16.1545 4.22803 15.7721 3.84558 15.3017 3.6059C14.9863 3.44524 14.6587 3.38581 14.3292 3.35889C14.0171 3.33339 13.6381 3.3334 13.1988 3.33342L12.4378 3.33342Z" fill="currentColor"/>
<path d="M11.5 4L11 2.5L5.5 3.5L4.5 4.5L4 17.5H11.5V4Z" fill="currentColor"/>
<path d="M8.33334 10.0001C8.33334 9.53984 8.70644 9.16675 9.16668 9.16675H9.17501C9.63525 9.16675 10.0083 9.53984 10.0083 10.0001C10.0083 10.4603 9.63525 10.8334 9.17501 10.8334H9.16668C8.70644 10.8334 8.33334 10.4603 8.33334 10.0001Z" fill="currentColor"/>
<path fill-rule="evenodd" clip-rule="evenodd" d="M15.6953 8.46516C15.3629 8.13279 14.824 8.13279 14.4916 8.46516L12.4652 10.4916C12.1328 10.824 12.1328 11.3629 12.4652 11.6952L14.4916 13.7217C14.824 14.0541 15.3629 14.0541 15.6953 13.7217C16.0276 13.3893 16.0276 12.8504 15.6953 12.518L15.1217 11.9445H18.1331C18.6031 11.9445 18.9842 11.5635 18.9842 11.0934C18.9842 10.6234 18.6031 10.2423 18.1331 10.2423H15.1217L15.6953 9.66881C16.0276 9.33643 16.0276 8.79754 15.6953 8.46516Z" fill="currentColor"/>
<path fill-rule="evenodd" clip-rule="evenodd" d="M15.9435 9.02644C15.9339 8.82232 15.8511 8.62102 15.6952 8.46515C15.3628 8.13277 14.8239 8.13277 14.4916 8.46515L12.4651 10.4916C12.1328 10.824 12.1328 11.3628 12.4651 11.6952L14.4916 13.7217C14.8239 14.054 15.3628 14.054 15.6952 13.7217C15.8511 13.5658 15.9339 13.3645 15.9435 13.1604C15.9545 12.9293 15.8717 12.6945 15.6952 12.518L15.1217 11.9445H18.133C18.6031 11.9445 18.9841 11.5635 18.9841 11.0934C18.9841 10.6234 18.6031 10.2423 18.133 10.2423H15.1217L15.6952 9.66879C15.8717 9.49229 15.9545 9.25756 15.9435 9.02644ZM17.16 9.02644H18.133C19.2746 9.02644 20.2 9.95185 20.2 11.0934C20.2 12.235 19.2746 13.1604 18.133 13.1604H17.16C17.1499 13.6758 16.9482 14.1881 16.555 14.5814C15.7478 15.3886 14.439 15.3886 13.6318 14.5814L11.6054 12.555C10.7982 11.7478 10.7982 10.439 11.6054 9.63184L13.6318 7.6054C14.439 6.7982 15.7478 6.7982 16.555 7.6054C16.9482 7.99869 17.1499 8.51105 17.16 9.02644Z" fill="currentColor"/>
</g>
<defs>
<clipPath id="clip0_4957_5781">
<rect width="20" height="20" fill="white"/>
</clipPath>
</defs>
</svg>
