<svg width="100%" height="100%" viewBox="0 0 20 20" fill="none" xmlns="http://www.w3.org/2000/svg">
<path d="M17.3333 16.4667H16.0683H4.16667H2.66667C2.42355 16.4667 2.19039 16.5633 2.01849 16.7352C1.84658 16.9071 1.75 17.1402 1.75 17.3833C1.75 17.6265 1.84658 17.8596 2.01849 18.0315C2.19039 18.2034 2.42355 18.3 2.66667 18.3H17.3333C17.5764 18.3 17.8096 18.2034 17.9815 18.0315C18.1534 17.8596 18.25 17.6265 18.25 17.3833C18.25 17.1402 18.1534 16.9071 17.9815 16.7352C17.8096 16.5633 17.5764 16.4667 17.3333 16.4667Z" fill="currentColor"/>
<path fill-rule="evenodd" clip-rule="evenodd" d="M14.5048 1.46516C14.8372 1.13279 15.3761 1.13279 15.7084 1.46516L17.7349 3.4916C18.0672 3.82398 18.0672 4.36287 17.7349 4.69524L15.7084 6.72168C15.3761 7.05406 14.8372 7.05406 14.5048 6.72168C14.1724 6.38931 14.1724 5.85042 14.5048 5.51804L15.0783 4.94453H12.067C11.5969 4.94453 11.2159 4.56347 11.2159 4.09342C11.2159 3.62337 11.5969 3.24232 12.067 3.24232H15.0783L14.5048 2.66881C14.1724 2.33643 14.1724 1.79754 14.5048 1.46516Z" fill="currentColor"/>
<path fill-rule="evenodd" clip-rule="evenodd" d="M14.5048 1.46515C14.3489 1.62102 14.2661 1.82232 14.2565 2.02644C14.2455 2.25756 14.3283 2.49229 14.5048 2.66879L15.0783 3.2423H12.067C11.5969 3.2423 11.2159 3.62335 11.2159 4.0934C11.2159 4.56346 11.5969 4.94451 12.067 4.94451H15.0783L14.5048 5.51802C14.3283 5.69452 14.2455 5.92925 14.2565 6.16037C14.2661 6.36449 14.3489 6.56579 14.5048 6.72166C14.8372 7.05404 15.3761 7.05404 15.7084 6.72166L16.3 6.1301V3.88416C16.3 2.75964 15.6564 1.78543 14.7175 1.30975C14.6409 1.34915 14.569 1.40095 14.5048 1.46515ZM13.3358 1C13.1456 1.31512 13.047 1.67005 13.0401 2.02644H12.067C10.9254 2.02644 10 2.95185 10 4.0934C10 5.23496 10.9254 6.16037 12.067 6.16037H13.0401C13.0501 6.67576 13.2518 7.18812 13.6451 7.58141C14.368 8.30431 15.4931 8.37981 16.3 7.8079V18.3H3.70001V3.63333C3.70001 2.95438 3.94871 2.29178 4.4088 1.79398C4.87085 1.29405 5.51164 1 6.19445 1H13.3358Z" fill="currentColor"/>
<circle cx="13.7" cy="9.84999" r="0.8" fill="white"/>
</svg>
