<svg width="100%" height="100%" viewBox="0 0 24 24" fill="none" xmlns="http://www.w3.org/2000/svg">
    <path fill-rule="evenodd" clip-rule="evenodd" d="M2.29289 2.29289C2.68342 1.90237 3.31658 1.90237 3.70711 2.29289L21.7071 20.2929C22.0976 20.6834 22.0976 21.3166 21.7071 21.7071C21.3166 22.0976 20.6834 22.0976 20.2929 21.7071L17.2528 18.667C15.6914 19.5171 13.901 20 12.0002 20C7.07329 20 2.90535 16.7615 1.50396 12.2996C1.44269 12.1045 1.44269 11.8954 1.50396 11.7003C2.15664 9.6223 3.4081 7.8117 5.05511 6.46932L2.29289 3.70711C1.90237 3.31658 1.90237 2.68342 2.29289 2.29289ZM6.47827 7.89249C5.13145 8.9405 4.0909 10.3622 3.51203 12C4.74775 15.4966 8.08286 18 12.0002 18C13.345 18 14.6193 17.7056 15.7638 17.178L14.0318 15.446C13.4364 15.7977 12.7414 16 12 16C9.79086 16 8 14.2091 8 12C8 11.2587 8.20228 10.5637 8.55396 9.96818L6.47827 7.89249ZM10.0676 11.4818C10.0235 11.647 10 11.8206 10 12C10 13.1046 10.8954 14 12 14C12.1794 14 12.353 13.9765 12.5182 13.9324L10.0676 11.4818ZM12.0002 6C11.6957 6 11.395 6.01509 11.0988 6.0445C10.5492 6.09908 10.0595 5.6978 10.0049 5.14821C9.95032 4.59863 10.3516 4.10887 10.9012 4.05429C11.2629 4.01836 11.6296 4 12.0002 4C16.9271 4 21.0951 7.23846 22.4965 11.7004C22.5577 11.8955 22.5577 12.1046 22.4965 12.2997C22.1873 13.2838 21.7439 14.208 21.1879 15.0507C20.8837 15.5117 20.2635 15.6388 19.8025 15.3347C19.3415 15.0305 19.2143 14.4103 19.5185 13.9493C19.9165 13.346 20.2437 12.6923 20.4884 12C19.2527 8.50345 15.9175 6 12.0002 6Z" fill="currentColor"/>
</svg>
