<svg width="100%" height="100%" viewBox="0 0 24 24" fill="none" xmlns="http://www.w3.org/2000/svg">
<path fill-rule="evenodd" clip-rule="evenodd" d="M8.16146 2L13 2C13.2652 2 13.5196 2.10536 13.7071 2.2929L19.7071 8.2929C19.8946 8.48043 20 8.73479 20 9V17.8385C20 18.3657 20 18.8205 19.9694 19.195C19.9371 19.5904 19.8658 19.9836 19.673 20.362C19.3854 20.9265 18.9265 21.3854 18.362 21.673C17.9836 21.8658 17.5904 21.9371 17.195 21.9694C16.8205 22 16.3657 22 15.8386 22H8.16144C7.6343 22 7.17954 22 6.80497 21.9694C6.40963 21.9371 6.01641 21.8658 5.63803 21.673C5.07354 21.3854 4.6146 20.9265 4.32698 20.362C4.13419 19.9836 4.06287 19.5904 4.03057 19.195C3.99997 18.8205 3.99998 18.3657 4 17.8385V6.16146C3.99998 5.63431 3.99997 5.17955 4.03057 4.80497C4.06287 4.40963 4.13419 4.01641 4.32698 3.63803C4.6146 3.07354 5.07354 2.6146 5.63803 2.32698C6.01641 2.13419 6.40963 2.06287 6.80497 2.03057C7.17955 1.99997 7.63431 1.99998 8.16146 2ZM6.96784 4.02393C6.69617 4.04612 6.59546 4.0838 6.54601 4.109C6.35785 4.20487 6.20487 4.35785 6.109 4.54601C6.0838 4.59546 6.04612 4.69617 6.02393 4.96784C6.00078 5.25117 6 5.62345 6 6.2V17.8C6 18.3766 6.00078 18.7488 6.02393 19.0322C6.04612 19.3038 6.0838 19.4045 6.109 19.454C6.20487 19.6422 6.35785 19.7951 6.54601 19.891C6.59545 19.9162 6.69617 19.9539 6.96784 19.9761C7.25118 19.9992 7.62345 20 8.2 20H15.8C16.3766 20 16.7488 19.9992 17.0322 19.9761C17.3038 19.9539 17.4045 19.9162 17.454 19.891C17.6422 19.7951 17.7951 19.6422 17.891 19.454C17.9162 19.4045 17.9539 19.3038 17.9761 19.0322C17.9992 18.7488 18 18.3766 18 17.8V10L14.5681 10C14.3157 10 14.0699 10.0001 13.8618 9.98306C13.6332 9.96438 13.3634 9.92031 13.092 9.78201C12.7157 9.59027 12.4097 9.28431 12.218 8.90798C12.0797 8.63656 12.0356 8.36683 12.0169 8.13823C11.9999 7.93007 12 7.68428 12 7.4319C12 7.42128 12 7.41064 12 7.4V4H8.2C7.62345 4 7.25117 4.00078 6.96784 4.02393ZM14 5.41422L16.5858 8H14.6C14.3035 8 14.1412 7.99922 14.0246 7.9897C14.02 7.98932 14.0156 7.98894 14.0115 7.98855C14.0111 7.9844 14.0107 7.98001 14.0103 7.97537C14.0008 7.85878 14 7.69653 14 7.4V5.41422ZM8 9C8 8.44772 8.44772 8 9 8H10C10.5523 8 11 8.44772 11 9C11 9.55229 10.5523 10 10 10H9C8.44772 10 8 9.55229 8 9ZM8 13C8 12.4477 8.44772 12 9 12H15C15.5523 12 16 12.4477 16 13C16 13.5523 15.5523 14 15 14H9C8.44772 14 8 13.5523 8 13ZM8 17C8 16.4477 8.44772 16 9 16H15C15.5523 16 16 16.4477 16 17C16 17.5523 15.5523 18 15 18H9C8.44772 18 8 17.5523 8 17Z" fill="currentColor"/>
</svg>
