<svg width="100%" height="100%" viewBox="0 0 16 16" fill="none" xmlns="http://www.w3.org/2000/svg">
<path fill-rule="evenodd" clip-rule="evenodd" d="M8.7743 1.33301L10.6667 1.33301C10.8435 1.33301 11.013 1.40325 11.1381 1.52827L13.8047 4.19494C13.9298 4.31996 14 4.48953 14 4.66634V8.55872C14 8.91015 14 9.21332 13.9796 9.46303C13.9581 9.72659 13.9105 9.98874 13.782 10.241C13.5903 10.6173 13.2843 10.9233 12.908 11.115C12.6557 11.2436 12.3936 11.2911 12.13 11.3126C11.8803 11.333 11.5771 11.333 11.2257 11.333H10V12.6663C10 13.7709 9.10457 14.6663 8 14.6663H4C2.89543 14.6663 2 13.7709 2 12.6663V6.66634C2 5.56177 2.89543 4.66634 4 4.66634H6L6 4.10731C5.99999 3.75588 5.99998 3.45271 6.02038 3.20299C6.04191 2.93943 6.08946 2.67728 6.21799 2.42503C6.40973 2.0487 6.7157 1.74274 7.09202 1.551C7.34427 1.42247 7.60642 1.37492 7.86998 1.35339C8.1197 1.33299 8.42287 1.333 8.7743 1.33301ZM6 5.99968H4C3.63181 5.99968 3.33333 6.29815 3.33333 6.66634V12.6663C3.33333 13.0345 3.63181 13.333 4 13.333H8C8.36819 13.333 8.66667 13.0345 8.66667 12.6663V11.333C8.36064 11.3328 8.09383 11.3309 7.86998 11.3126C7.60642 11.2911 7.34427 11.2436 7.09202 11.115C6.7157 10.9233 6.40973 10.6173 6.21799 10.241C6.08946 9.98874 6.04191 9.72659 6.02038 9.46303C5.99998 9.21331 5.99999 8.91014 6 8.55871L6 5.99968ZM7.97856 2.68229C7.79745 2.69709 7.7303 2.72221 7.69734 2.739C7.5719 2.80292 7.46991 2.90491 7.406 3.03035C7.3892 3.06331 7.36408 3.13046 7.34929 3.31157C7.33385 3.50046 7.33333 3.74864 7.33333 4.13301V8.53301C7.33333 8.91738 7.33385 9.16556 7.34929 9.35445C7.36408 9.53556 7.3892 9.60271 7.406 9.63567C7.46991 9.76111 7.5719 9.8631 7.69734 9.92701C7.7303 9.94381 7.79745 9.96893 7.97856 9.98372C8.16745 9.99916 8.41563 9.99968 8.8 9.99968H11.2C11.5844 9.99968 11.8326 9.99916 12.0214 9.98372C12.2026 9.96893 12.2697 9.94381 12.3027 9.92701C12.4281 9.8631 12.5301 9.76111 12.594 9.63567C12.6108 9.60271 12.6359 9.53556 12.6507 9.35445C12.6661 9.16556 12.6667 8.91738 12.6667 8.53301V5.99968L11.0454 5.99968C10.8771 5.9997 10.7133 5.99972 10.5745 5.98838C10.4221 5.97593 10.2423 5.94655 10.0613 5.85435C9.81046 5.72652 9.60649 5.52255 9.47866 5.27166C9.38646 5.09071 9.35708 4.91089 9.34463 4.7585C9.33329 4.61972 9.33331 4.45586 9.33333 4.2876L9.33333 2.66634H8.8C8.41563 2.66634 8.16745 2.66686 7.97856 2.68229ZM10.6667 2.94248V4.26634C10.6667 4.46403 10.6672 4.5722 10.6735 4.64992C10.6738 4.65301 10.674 4.65594 10.6743 4.65871C10.6771 4.65897 10.68 4.65922 10.6831 4.65947C10.7608 4.66582 10.869 4.66634 11.0667 4.66634H12.3905L10.6667 2.94248Z" fill="currentColor"/>
</svg>
