<svg width="100%" height="100%" viewBox="0 0 36 36" fill="none" xmlns="http://www.w3.org/2000/svg">
<path d="M30 10.5L31.41 7.41L34.5 6L31.41 4.59L30 1.5L28.59 4.59L25.5 6L28.59 7.41L30 10.5ZM12.75 10.5L14.16 7.41L17.25 6L14.16 4.59L12.75 1.5L11.34 4.59L8.25 6L11.34 7.41L12.75 10.5ZM30 18.75L28.59 21.84L25.5 23.25L28.59 24.66L30 27.75L31.41 24.66L34.5 23.25L31.41 21.84L30 18.75ZM26.565 13.68L22.32 9.435C22.02 9.15 21.645 9 21.255 9C20.865 9 20.49 9.15 20.19 9.435L3.435 26.19C3.29595 26.3288 3.18563 26.4936 3.11036 26.6751C3.03508 26.8565 2.99634 27.051 2.99634 27.2475C2.99634 27.444 3.03508 27.6385 3.11036 27.8199C3.18563 28.0014 3.29595 28.1662 3.435 28.305L7.68 32.55C7.98 32.85 8.355 33 8.745 33C9.135 33 9.51 32.85 9.81 32.565L26.565 15.81C27.15 15.225 27.15 14.265 26.565 13.68ZM21.255 12.63L23.37 14.745L21.615 16.5L19.5 14.385L21.255 12.63ZM8.745 29.385L6.63 27.27L17.385 16.5L19.5 18.615L8.745 29.385Z" fill="currentColor"/>
</svg>
