<svg width="100%" height="100%" viewBox="0 0 24 24" fill="none" xmlns="http://www.w3.org/2000/svg">
<path fill-rule="evenodd" clip-rule="evenodd" d="M16.2343 6.23431C16.5467 5.9219 17.0533 5.9219 17.3657 6.23431L19.7657 8.63431C20.0781 8.94673 20.0781 9.45326 19.7657 9.76568L17.3657 12.1657C17.0533 12.4781 16.5467 12.4781 16.2343 12.1657C15.9219 11.8533 15.9219 11.3467 16.2343 11.0343L17.2686 10H8.4C6.8536 10 5.6 11.2536 5.6 12.8C5.6 14.3464 6.8536 15.6 8.4 15.6H19.2C19.6418 15.6 20 15.9582 20 16.4C20 16.8418 19.6418 17.2 19.2 17.2H8.4C5.96995 17.2 4 15.23 4 12.8C4 10.3699 5.96995 8.4 8.4 8.4H17.2686L16.2343 7.36568C15.9219 7.05326 15.9219 6.54673 16.2343 6.23431Z" fill="currentColor"/>
</svg>
