<svg width="100%" height="100%" viewBox="0 0 24 24" fill="none" xmlns="http://www.w3.org/2000/svg">
<path fill-rule="evenodd" clip-rule="evenodd" d="M7.76569 6.23431C8.0781 6.54673 8.0781 7.05326 7.76569 7.36568L6.73137 8.4H15.6C18.0301 8.4 20 10.3699 20 12.8C20 15.23 18.0301 17.2 15.6 17.2H4.8C4.35817 17.2 4 16.8418 4 16.4C4 15.9582 4.35817 15.6 4.8 15.6H15.6C17.1464 15.6 18.4 14.3464 18.4 12.8C18.4 11.2536 17.1464 10 15.6 10H6.73137L7.76569 11.0343C8.0781 11.3467 8.0781 11.8533 7.76569 12.1657C7.45327 12.4781 6.94673 12.4781 6.63431 12.1657L4.23431 9.76568C3.9219 9.45326 3.9219 8.94673 4.23431 8.63431L6.63431 6.23431C6.94673 5.9219 7.45327 5.9219 7.76569 6.23431Z" fill="currentColor"/>
</svg>
