<svg width="100%" height="100%" viewBox="0 0 36 36" fill="none" xmlns="http://www.w3.org/2000/svg">
<path fill-rule="evenodd" clip-rule="evenodd" d="M15.6104 6H20.3896C22.3048 5.99999 23.8308 5.99998 25.0676 6.09795C26.3364 6.19845 27.422 6.40862 28.43 6.89538C30.0627 7.68372 31.4191 8.94676 32.3218 10.5191C32.8791 11.4899 33.1661 12.5578 33.3567 13.8161C33.5426 15.0428 33.6513 16.5649 33.7877 18.4752L34.1613 23.7049C34.4043 27.1066 31.7101 30 28.2998 30C26.5558 30 24.9019 29.2253 23.7854 27.8856L23.2226 27.2103C22.6746 26.5526 22.5098 26.3628 22.3373 26.216C21.9277 25.8672 21.4319 25.6349 20.9018 25.5436C20.6785 25.5051 20.4273 25.5 19.5711 25.5H16.4288C15.5727 25.5 15.3215 25.5051 15.0982 25.5436C14.568 25.6349 14.0722 25.8672 13.6626 26.2159C13.4901 26.3628 13.3254 26.5525 12.7773 27.2103L12.2146 27.8856C11.0981 29.2254 9.44417 30 7.70016 30C4.28982 30 1.59568 27.1066 1.83866 23.7049L2.2122 18.4753C2.34865 16.5649 2.45736 15.0429 2.64321 13.8161C2.83384 12.5578 3.12083 11.4899 3.67816 10.5191C4.58082 8.94676 5.93729 7.68372 7.56992 6.89538C8.57797 6.40862 9.66359 6.19845 10.9323 6.09795C12.1692 5.99998 13.6951 5.99999 15.6104 6ZM11.1692 9.08859C10.0829 9.17463 9.4116 9.33752 8.8744 9.59692C7.78599 10.1225 6.88167 10.9645 6.2799 12.0127C5.98289 12.5301 5.77258 13.1881 5.60936 14.2655C5.4434 15.361 5.34205 16.7645 5.20009 18.7519L4.83104 23.9186C4.7121 25.5837 6.03085 27 7.70016 27C8.55383 27 9.3634 26.6208 9.9099 25.965L10.4726 25.2897C10.4969 25.2606 10.5209 25.2318 10.5445 25.2034C10.9895 24.6691 11.3249 24.2663 11.7176 23.9319C12.5368 23.2343 13.5284 22.7699 14.5887 22.5872C15.097 22.4995 15.6212 22.4997 16.3166 22.5C16.3535 22.5 16.3909 22.5 16.4288 22.5H19.5711C19.609 22.5 19.6465 22.5 19.6834 22.5C20.3788 22.4997 20.9029 22.4995 21.4113 22.5872C22.4715 22.7699 23.4632 23.2343 24.2823 23.9319C24.6751 24.2663 25.0105 24.6691 25.4555 25.2035C25.4791 25.2319 25.503 25.2606 25.5273 25.2897L26.0901 25.965C26.6366 26.6208 27.4461 27 28.2998 27C29.9691 27 31.2878 25.5837 31.1689 23.9186L30.7999 18.7519C30.6579 16.7645 30.5566 15.361 30.3906 14.2655C30.2274 13.1881 30.0171 12.5301 29.7201 12.0127C29.1183 10.9645 28.214 10.1225 27.1255 9.59692C26.5884 9.33752 25.917 9.17463 24.8308 9.08859C23.7262 9.00109 22.319 9 20.3265 9H15.6734C13.6809 9 12.2738 9.00109 11.1692 9.08859ZM12 12C12.8284 12 13.5 12.6716 13.5 13.5V15H15C15.8284 15 16.5 15.6716 16.5 16.5C16.5 17.3284 15.8284 18 15 18H13.5V19.5C13.5 20.3284 12.8284 21 12 21C11.1715 21 10.5 20.3284 10.5 19.5V18H8.99998C8.17155 18 7.49998 17.3284 7.49998 16.5C7.49998 15.6716 8.17155 15 8.99998 15H10.5V13.5C10.5 12.6716 11.1715 12 12 12ZM25.5 15C25.5 14.1716 26.1715 13.5 27 13.5H27.015C27.8434 13.5 28.515 14.1716 28.515 15C28.515 15.8284 27.8434 16.5 27.015 16.5H27C26.1715 16.5 25.5 15.8284 25.5 15ZM21 18C21 17.1716 21.6715 16.5 22.5 16.5H22.515C23.3434 16.5 24.015 17.1716 24.015 18C24.015 18.8284 23.3434 19.5 22.515 19.5H22.5C21.6715 19.5 21 18.8284 21 18Z" fill="currentColor"/>
</svg>
