<svg width="100%" height="100%" viewBox="0 0 24 24" fill="none" xmlns="http://www.w3.org/2000/svg">
<path fill-rule="evenodd" clip-rule="evenodd" d="M11.9096 1.99986C11.9398 1.99992 11.9699 1.99997 12 1.99997C12.0301 1.99997 12.0603 1.99992 12.0904 1.99986C12.4636 1.9992 12.8368 1.99853 13.1847 2.10005L12.9049 3.059L13.1847 2.10005C13.6868 2.24653 14.1302 2.54676 14.4527 2.95848C14.6761 3.24381 14.8141 3.59055 14.9521 3.93733C14.9632 3.96533 14.9744 3.99333 14.9856 4.0213C15.0376 4.15147 15.1822 4.2185 15.3152 4.17416L15.8856 3.98402C15.9116 3.97534 15.9377 3.96661 15.9637 3.95788C16.2886 3.84899 16.614 3.73993 16.9495 3.72039C17.4354 3.69208 17.9191 3.80625 18.3411 4.0489C18.6324 4.21642 18.8747 4.45947 19.1165 4.70216C19.1359 4.72162 19.1553 4.74107 19.1747 4.76048C19.1954 4.78119 19.2162 4.80187 19.2369 4.82255C19.4945 5.07923 19.7522 5.336 19.9244 5.64548C20.1739 6.09374 20.2794 6.6079 20.2267 7.11818C20.1903 7.47048 20.0546 7.80801 19.919 8.1454C19.9081 8.17258 19.8971 8.19976 19.8863 8.22694C19.8047 8.43079 19.8832 8.66368 20.0714 8.77663L20.3493 8.94335C20.3765 8.95965 20.4037 8.97592 20.4309 8.99219C20.7728 9.19644 21.1166 9.40182 21.3774 9.69842L20.6265 10.3588L21.3774 9.69842C21.605 9.95727 21.7767 10.2604 21.8815 10.5887C22.0017 10.965 22.0009 11.3681 22.0001 11.7697C22.0001 11.8019 22 11.8341 22 11.8662C22 11.9046 22.0001 11.9431 22.0002 11.9815C22.0012 12.4551 22.0023 12.9294 21.8423 13.3583C21.703 13.7318 21.4763 14.0666 21.1813 14.3346C20.8426 14.6424 20.4047 14.8165 19.9683 14.9899C19.9331 15.0039 19.8979 15.0179 19.8627 15.0319L19.8627 15.0319C19.7974 15.058 19.7638 15.1305 19.786 15.1971L20.0011 15.8422C20.0106 15.8709 20.0203 15.8996 20.0299 15.9284C20.1502 16.287 20.2708 16.6466 20.2822 17.0178C20.2958 17.4579 20.1929 17.8938 19.9839 18.2814C19.8077 18.6083 19.539 18.876 19.2711 19.1429C19.2496 19.1643 19.2281 19.1857 19.2067 19.2072C19.1853 19.2286 19.1639 19.25 19.1425 19.2715C18.8755 19.5395 18.6079 19.8081 18.2809 19.9844C17.8934 20.1934 17.4575 20.2963 17.0174 20.2827C16.6461 20.2712 16.2865 20.1506 15.9279 20.0304C15.8992 20.0207 15.8705 20.0111 15.8417 20.0015L15.8416 20.0015L15.315 19.8259C15.1821 19.7815 15.0376 19.8485 14.9856 19.9786C14.9744 20.0066 14.9632 20.0346 14.9521 20.0626C14.8141 20.4094 14.6761 20.7561 14.4527 21.0415C14.1302 21.4532 13.6868 21.7534 13.1847 21.8999C12.8368 22.0014 12.4636 22.0007 12.0904 22.0001C12.0603 22 12.0301 22 12 22C11.9699 22 11.9398 22 11.9096 22.0001C11.5364 22.0007 11.1632 22.0014 10.8153 21.8999C10.3133 21.7534 9.86981 21.4532 9.54736 21.0415L10.2829 20.4654L9.54736 21.0415C9.32389 20.7561 9.18591 20.4094 9.04791 20.0626C9.03677 20.0346 9.02563 20.0066 9.01445 19.9786C8.96238 19.8485 8.81786 19.7814 8.68485 19.8258L8.15788 20.0014C8.12915 20.011 8.10041 20.0207 8.07167 20.0303C7.71306 20.1506 7.3535 20.2711 6.98225 20.2826C6.54214 20.2962 6.10625 20.1933 5.71867 19.9843C5.39175 19.808 5.12408 19.5394 4.85712 19.2714C4.83572 19.25 4.81432 19.2285 4.7929 19.2071C4.77149 19.1857 4.75002 19.1643 4.72854 19.1429C4.46061 18.8759 4.19194 18.6082 4.01567 18.2813L4.89588 17.8067L4.01567 18.2813C3.8067 17.8937 3.7038 17.4578 3.71738 17.0177C3.72884 16.6465 3.84942 16.2869 3.96968 15.9283C3.97932 15.8996 3.98896 15.8708 3.99854 15.8421L4.21369 15.1967C4.23585 15.1302 4.20235 15.0579 4.13728 15.0319C4.10213 15.0179 4.06692 15.0039 4.0317 14.9899C3.59536 14.8165 3.15744 14.6424 2.81874 14.3346C2.5237 14.0666 2.29706 13.7318 2.15771 13.3583C1.99771 12.9294 1.99878 12.4551 1.99984 11.9815C1.99992 11.9431 2.00001 11.9046 2.00001 11.8662C2.00001 11.8341 1.99995 11.8019 1.99988 11.7698C1.99911 11.3681 1.99833 10.965 2.1185 10.5887L3.0711 10.8929L2.1185 10.5887C2.22336 10.2604 2.39498 9.95727 2.62258 9.69842L3.22263 10.226L2.62258 9.69842C2.88339 9.40181 3.22718 9.19644 3.56909 8.99219C3.5963 8.97593 3.6235 8.95969 3.65064 8.9434C3.65067 8.94338 3.6507 8.94337 3.65072 8.94335L3.92815 8.77686L4.44273 9.6343L3.92815 8.77686C4.11645 8.66386 4.19491 8.43091 4.11335 8.22702C4.10248 8.19983 4.09155 8.17265 4.08062 8.14546C3.94498 7.80807 3.80929 7.47056 3.77289 7.11826C3.72016 6.60797 3.8257 6.09381 4.07517 5.64556C4.24741 5.33608 4.50508 5.07931 4.76265 4.82263C4.78341 4.80195 4.80416 4.78127 4.82487 4.76056C4.84428 4.74115 4.86367 4.72169 4.88307 4.70223C5.12496 4.45954 5.3672 4.21649 5.65854 4.04897C6.08053 3.80633 6.56418 3.69215 7.05013 3.72046C7.38563 3.74001 7.711 3.84906 8.03589 3.95796C8.0619 3.96667 8.08791 3.97539 8.11392 3.98406C8.11395 3.98407 8.11399 3.98408 8.11402 3.9841L8.6847 4.17425C8.81778 4.21859 8.96235 4.15153 9.01445 4.0213L9.94292 4.39269L9.01445 4.02129C9.02563 3.99333 9.03678 3.96532 9.04792 3.93732C9.18591 3.59055 9.32389 3.24381 9.54736 2.95848L10.308 3.55418L9.54736 2.95848C9.86981 2.54677 10.3133 2.24653 10.8153 2.10005L11.0064 2.75487L10.8153 2.10005C11.1632 1.99853 11.5364 1.9992 11.9096 1.99986ZM12 3.99997C11.4714 3.99997 11.4111 4.00961 11.3755 4.01999C11.2751 4.04928 11.1864 4.10933 11.1219 4.19167C11.0991 4.22085 11.0677 4.27331 10.8714 4.76408C10.4261 5.87744 9.1901 6.45076 8.05246 6.07169L7.48167 5.8815L7.48157 5.88146C7.02271 5.72851 6.96838 5.71909 6.93381 5.71708L6.99197 4.71877L6.93381 5.71708C6.83662 5.71142 6.73989 5.73425 6.65549 5.78278C6.62547 5.80004 6.5811 5.83276 6.23908 6.17477C5.87529 6.53856 5.84041 6.58644 5.82276 6.61816L4.94897 6.13186L5.82276 6.61816C5.77286 6.70781 5.75175 6.81064 5.7623 6.9127C5.76603 6.94881 5.77923 7.00656 5.9703 7.48424C6.41641 8.59949 5.98724 9.87365 4.95731 10.4917L4.47039 9.6804L4.95731 10.4917L4.6798 10.6583L4.67971 10.6583C4.19815 10.9473 4.15158 10.9883 4.12452 11.0191C4.079 11.0709 4.04468 11.1315 4.02371 11.1972C4.01132 11.2359 4.00001 11.2987 4.00001 11.8662C4.00001 12.5399 4.01529 12.6156 4.03155 12.6592C4.05942 12.7339 4.10475 12.8008 4.16375 12.8545C4.19838 12.8859 4.26121 12.9274 4.88006 13.175C5.92834 13.5943 6.46809 14.758 6.11105 15.8291L5.89591 16.4746C5.72694 16.9815 5.71761 17.0412 5.71643 17.0794C5.71371 17.1674 5.73429 17.2546 5.77609 17.3321C5.79425 17.3658 5.82931 17.4151 6.20711 17.7929C6.58493 18.1707 6.63416 18.2057 6.66785 18.2239C6.74536 18.2657 6.83254 18.2863 6.92057 18.2835C6.95882 18.2824 7.01853 18.273 7.52542 18.1041L8.0524 17.9284C9.19002 17.5492 10.426 18.1225 10.8714 19.2359C11.0677 19.7266 11.0991 19.7791 11.1219 19.8083C11.1864 19.8906 11.2751 19.9507 11.3755 19.98C11.4111 19.9903 11.4714 20 12 20C12.5286 20 12.5889 19.9903 12.6245 19.98C12.7249 19.9507 12.8136 19.8906 12.8781 19.8083C12.9009 19.7791 12.9323 19.7266 13.1286 19.2359C13.574 18.1225 14.8101 17.5492 15.9477 17.9286L16.4742 18.1042C16.9811 18.2731 17.0408 18.2824 17.079 18.2836C17.1671 18.2863 17.2542 18.2658 17.3317 18.224C17.3654 18.2058 17.4147 18.1707 17.7925 17.7929C18.1703 17.4151 18.2054 17.3659 18.2235 17.3322C18.2653 17.2547 18.2859 17.1675 18.2832 17.0795C18.282 17.0412 18.2727 16.9815 18.1037 16.4746L17.8887 15.8296C17.5316 14.7582 18.0715 13.5943 19.12 13.1749C19.7388 12.9274 19.8016 12.8859 19.8363 12.8545C19.8953 12.8008 19.9406 12.7339 19.9685 12.6592L20.9054 13.0087L19.9685 12.6592C19.9847 12.6156 20 12.5399 20 11.8662C20 11.2987 19.9887 11.2359 19.9763 11.1972C19.9553 11.1315 19.921 11.0709 19.8755 11.0191L20.5987 10.3832L19.8755 11.0191C19.8484 10.9883 19.8019 10.9473 19.3203 10.6583L19.0424 10.4916C18.0124 9.87361 17.5832 8.59944 18.0293 7.48416C18.2204 7.00649 18.2336 6.94873 18.2373 6.91263C18.2478 6.81057 18.2267 6.70774 18.1768 6.61808C18.1592 6.58637 18.1243 6.53849 17.7605 6.1747C17.4185 5.83269 17.3741 5.79996 17.3441 5.7827C17.2597 5.73417 17.163 5.71134 17.0658 5.717C17.0312 5.71902 16.9769 5.72843 16.518 5.88139L15.9476 6.07153C14.81 6.45073 13.574 5.87746 13.1286 4.76408L14.0571 4.39269L13.1286 4.76408C12.9323 4.27331 12.9009 4.22085 12.8781 4.19167L13.6654 3.57508L12.8781 4.19167C12.8136 4.10933 12.7249 4.04928 12.6245 4.01999C12.5889 4.00961 12.5286 3.99997 12 3.99997ZM12 9.99997C10.8954 9.99997 10 10.8954 10 12C10 13.1045 10.8954 14 12 14C13.1046 14 14 13.1045 14 12C14 10.8954 13.1046 9.99997 12 9.99997ZM8.00001 12C8.00001 9.79083 9.79087 7.99997 12 7.99997C14.2091 7.99997 16 9.79083 16 12C16 14.2091 14.2091 16 12 16C9.79087 16 8.00001 14.2091 8.00001 12Z" fill="currentColor"/>
</svg>
