<svg width="100%" height="100%" viewBox="0 0 20 20" fill="none" xmlns="http://www.w3.org/2000/svg">
<path d="M4.16634 4.16699C3.7061 4.16699 3.33301 4.54009 3.33301 5.00033C3.33301 5.46056 3.7061 5.83366 4.16634 5.83366H15.833C16.2932 5.83366 16.6663 5.46056 16.6663 5.00033C16.6663 4.54009 16.2932 4.16699 15.833 4.16699H4.16634Z" fill="currentColor"/>
<path d="M4.16634 9.16699C3.7061 9.16699 3.33301 9.54009 3.33301 10.0003C3.33301 10.4606 3.7061 10.8337 4.16634 10.8337H15.833C16.2932 10.8337 16.6663 10.4606 16.6663 10.0003C16.6663 9.54009 16.2932 9.16699 15.833 9.16699H4.16634Z" fill="currentColor"/>
<path d="M3.33301 15.0003C3.33301 14.5401 3.7061 14.167 4.16634 14.167H15.833C16.2932 14.167 16.6663 14.5401 16.6663 15.0003C16.6663 15.4606 16.2932 15.8337 15.833 15.8337H4.16634C3.7061 15.8337 3.33301 15.4606 3.33301 15.0003Z" fill="currentColor"/>
</svg>
