<svg width="100%" height="100%" viewBox="0 0 16 16" fill="none" xmlns="http://www.w3.org/2000/svg">
<path fill-rule="evenodd" clip-rule="evenodd" d="M4.22843 4.2285C3.26329 5.19364 2.66659 6.52722 2.66659 7.99998V8.67185C2.7834 8.66635 2.91318 8.66663 3.04549 8.66665H4.28768C4.45594 8.66663 4.62026 8.66638 4.75903 8.67771C4.91137 8.69018 5.09121 8.71969 5.27205 8.81183C5.52289 8.93965 5.72691 9.14367 5.85474 9.39451C5.94688 9.57535 5.97639 9.75519 5.98885 9.90753C6.00019 10.0463 5.99994 10.2106 5.99992 10.3789V13.2005C6.00019 13.3179 6.00079 13.4617 5.97453 13.5937C5.86926 14.1225 5.45572 14.536 4.927 14.6413C4.79496 14.6675 4.65118 14.6669 4.53377 14.6666H4.43091C4.03349 14.6668 3.73879 14.6667 3.47974 14.6152C2.42189 14.4048 1.5951 13.578 1.38468 12.5202C1.35853 12.3887 1.3454 12.2478 1.33911 12.0892C1.33521 12.06 1.33325 12.0302 1.33325 12V7.99998C1.33325 6.15903 2.0793 4.49222 3.28573 3.28579L4.22843 4.2285ZM3.06632 9.99998C2.8688 9.99998 2.76055 10.0008 2.68286 10.0071C2.67989 10.0074 2.67707 10.0075 2.6744 10.0078C2.67415 10.0105 2.67399 10.0133 2.67375 10.0163C2.6674 10.0939 2.66659 10.2022 2.66659 10.3997V11.5C2.66659 11.9966 2.66959 12.1478 2.69198 12.2604C2.79725 12.7891 3.21078 13.2027 3.7395 13.3079C3.85207 13.3303 4.00331 13.3333 4.49992 13.3333C4.58188 13.3333 4.6267 13.3331 4.65942 13.332C4.6615 13.3319 4.66354 13.3321 4.66528 13.332C4.66536 13.3303 4.66521 13.3282 4.66528 13.3262C4.6664 13.2934 4.66659 13.2486 4.66659 13.1666V10.3997C4.66658 10.2022 4.66577 10.0939 4.65942 10.0163C4.65918 10.0133 4.65902 10.0105 4.65877 10.0078C4.6561 10.0075 4.65328 10.0074 4.65031 10.0071C4.57262 10.0008 4.46436 9.99998 4.26685 9.99998H3.06632Z" fill="currentColor"/>
<path d="M11.3333 11.3333V13.1666C11.3333 13.2486 11.3334 13.2934 11.3346 13.3262C11.3346 13.3282 11.3345 13.3303 11.3346 13.332C11.3363 13.3321 11.3383 13.3319 11.3404 13.332C11.3731 13.3331 11.418 13.3333 11.4999 13.3333C11.9965 13.3333 12.1478 13.3303 12.2603 13.3079C12.5247 13.2553 12.7601 13.1253 12.9426 12.9427L13.8853 13.8854C13.5201 14.2507 13.049 14.51 12.5201 14.6152C12.261 14.6667 11.9663 14.6668 11.5689 14.6666H11.4661C11.3487 14.6669 11.2049 14.6675 11.0728 14.6413C10.5441 14.536 10.1306 14.1225 10.0253 13.5937C9.99904 13.4617 9.99965 13.3179 9.99992 13.2005V10.3789C9.9999 10.249 10.0012 10.1216 10.0064 10.0065L11.3333 11.3333Z" fill="currentColor"/>
<path d="M7.99992 1.33331C11.6818 1.33332 14.6666 4.31808 14.6666 7.99998V12C14.6666 12.0302 14.6646 12.06 14.6607 12.0892C14.6579 12.1595 14.653 12.2263 14.6471 12.2903L13.3333 10.9765V10.3997C13.3333 10.2022 13.3324 10.0939 13.3261 10.0163C13.3258 10.0133 13.3257 10.0105 13.3254 10.0078C13.3228 10.0075 13.3199 10.0074 13.317 10.0071C13.2393 10.0008 13.131 9.99998 12.9335 9.99998H12.3567L11.0592 8.70245C11.1227 8.69057 11.1836 8.68239 11.2408 8.67771C11.3796 8.66638 11.5439 8.66663 11.7122 8.66665H12.9543C13.0867 8.66663 13.2164 8.66635 13.3333 8.67185V7.99998C13.3333 5.05446 10.9454 2.66665 7.99992 2.66665C7.13481 2.66665 6.31815 2.87332 5.59562 3.23891L4.61385 2.25714C5.60636 1.67068 6.76359 1.33331 7.99992 1.33331Z" fill="currentColor"/>
<path d="M1.52851 1.52858C1.78886 1.26823 2.21097 1.26823 2.47132 1.52858L14.4713 13.5286C14.7317 13.7889 14.7317 14.211 14.4713 14.4714C14.211 14.7317 13.7889 14.7317 13.5285 14.4714L11.421 12.3639L5.33325 6.27612L1.52851 2.47138C1.26816 2.21103 1.26816 1.78892 1.52851 1.52858Z" fill="currentColor"/>
</svg>
