<svg width="100%" height="100%" viewBox="0 0 16 16" fill="none" xmlns="http://www.w3.org/2000/svg">
<path fill-rule="evenodd" clip-rule="evenodd" d="M1.33333 7.99992C1.33333 4.31802 4.3181 1.33325 8 1.33325C11.6819 1.33325 14.6667 4.31802 14.6667 7.99992V10.3347C14.6667 10.3493 14.6667 10.3639 14.6667 10.3786L14.6667 11.4999C14.6667 11.5232 14.6667 11.5461 14.6667 11.5687C14.6667 11.6128 14.6667 11.6556 14.6667 11.6972V11.9999C14.6667 12.0302 14.6646 12.06 14.6607 12.0893C14.6544 12.2479 14.6416 12.3887 14.6154 12.5202C14.405 13.578 13.5781 14.4049 12.5202 14.6153C12.2611 14.6669 11.9663 14.6668 11.5688 14.6666C11.5462 14.6666 11.5233 14.6666 11.5 14.6666C11.489 14.6666 11.4777 14.6666 11.4662 14.6666C11.3488 14.6669 11.2053 14.6672 11.0732 14.641C10.5443 14.5358 10.1308 14.1223 10.0256 13.5934C9.99935 13.4613 9.99968 13.3178 9.99995 13.2004C9.99997 13.1889 10 13.1776 10 13.1666L10 10.3787C9.99998 10.2104 9.99996 10.0465 10.0113 9.90777C10.0237 9.75537 10.0531 9.57555 10.1453 9.3946C10.2732 9.14372 10.4771 8.93974 10.728 8.81191C10.909 8.71971 11.0888 8.69033 11.2412 8.67788C11.38 8.66654 11.5438 8.66656 11.7121 8.66658H12.9546C13.0869 8.66657 13.2165 8.66655 13.3333 8.67206V7.99992C13.3333 5.0544 10.9455 2.66659 8 2.66659C5.05448 2.66659 2.66667 5.0544 2.66667 7.99992V8.67206C2.78349 8.66655 2.91309 8.66657 3.04541 8.66658H4.28792C4.45618 8.66656 4.62005 8.66654 4.75882 8.67788C4.91122 8.69033 5.09104 8.71971 5.27199 8.81191C5.52287 8.93974 5.72684 9.14371 5.85468 9.3946C5.94687 9.57555 5.97625 9.75537 5.9887 9.90777C6.00004 10.0465 6.00002 10.2104 6 10.3787L6 13.1666C6 13.1776 6.00003 13.1889 6.00005 13.2004C6.00032 13.3178 6.00065 13.4613 5.97438 13.5934C5.86917 14.1223 5.45571 14.5358 4.92679 14.641C4.79472 14.6672 4.65122 14.6669 4.5338 14.6666C4.52227 14.6666 4.51099 14.6666 4.5 14.6666C4.47673 14.6666 4.45381 14.6666 4.43121 14.6666C4.03367 14.6668 3.73886 14.6669 3.47976 14.6153C2.42192 14.4049 1.59499 13.578 1.38457 12.5202C1.35841 12.3887 1.34556 12.2479 1.33927 12.0893C1.33536 12.06 1.33333 12.0302 1.33333 11.9999V11.6976C1.33328 11.6558 1.3333 11.6129 1.33332 11.5687C1.33332 11.5461 1.33333 11.5232 1.33333 11.4999L1.33333 10.3787C1.33333 10.3645 1.33333 10.3503 1.33333 10.3363V7.99992ZM2.66667 11.4999C2.66667 11.9965 2.6699 12.1475 2.69229 12.26C2.7975 12.789 3.21096 13.2024 3.73988 13.3076C3.85245 13.33 4.00339 13.3333 4.5 13.3333C4.58196 13.3333 4.62677 13.3332 4.65949 13.332C4.66157 13.332 4.66348 13.3319 4.66524 13.3318C4.66531 13.3301 4.66539 13.3282 4.66546 13.3261C4.66658 13.2934 4.66667 13.2485 4.66667 13.1666V10.3999C4.66667 10.2022 4.66615 10.0941 4.6598 10.0163C4.65955 10.0132 4.65929 10.0103 4.65904 10.0076C4.65627 10.0073 4.65334 10.007 4.65024 10.0068C4.57252 10.0004 4.46435 9.99992 4.26667 9.99992H3.06667C2.86898 9.99992 2.76081 10.0004 2.68309 10.0068C2.67999 10.007 2.67707 10.0073 2.6743 10.0076C2.67404 10.0103 2.67379 10.0132 2.67354 10.0163C2.66719 10.0941 2.66667 10.2022 2.66667 10.3999V11.4999ZM13.3333 11.4999V10.3999C13.3333 10.2022 13.3328 10.0941 13.3265 10.0163C13.3262 10.0132 13.326 10.0103 13.3257 10.0076C13.3229 10.0073 13.32 10.007 13.3169 10.0068C13.2392 10.0004 13.131 9.99992 12.9333 9.99992H11.7333C11.5356 9.99992 11.4275 10.0004 11.3498 10.0068C11.3467 10.007 11.3437 10.0073 11.341 10.0076C11.3407 10.0103 11.3405 10.0132 11.3402 10.0163C11.3339 10.0941 11.3333 10.2022 11.3333 10.3999V13.1666C11.3333 13.2485 11.3334 13.2934 11.3345 13.3261C11.3346 13.3282 11.3347 13.3301 11.3348 13.3318C11.3365 13.3319 11.3384 13.332 11.3405 13.332C11.3732 13.3332 11.418 13.3333 11.5 13.3333C11.9966 13.3333 12.1476 13.33 12.2601 13.3076C12.789 13.2024 13.2025 12.789 13.3077 12.26C13.3301 12.1475 13.3333 11.9965 13.3333 11.4999Z" fill="currentColor"/>
</svg>
