<svg width="100%" height="100%" viewBox="0 0 24 24" fill="none" xmlns="http://www.w3.org/2000/svg">
<path fill-rule="evenodd" clip-rule="evenodd" d="M12.784 4.17171C12.2706 4.03269 11.7294 4.03269 11.216 4.17171C10.6814 4.31644 10.163 4.69562 8.68472 5.84541L6.08472 7.86763C5.13328 8.60764 4.81384 8.8671 4.58804 9.17239C4.37105 9.46577 4.2094 9.79628 4.11104 10.1477C4.00868 10.5133 4 10.9248 4 12.1301V14.6C4 15.7366 4.00078 16.5289 4.05117 17.1458C4.10062 17.7509 4.19279 18.0986 4.32698 18.362C4.6146 18.9265 5.07354 19.3854 5.63803 19.673C5.90138 19.8072 6.24907 19.8994 6.85424 19.9488C7.47108 19.9992 8.26339 20 9.4 20H14.6C15.7366 20 16.5289 19.9992 17.1458 19.9488C17.7509 19.8994 18.0986 19.8072 18.362 19.673C18.9265 19.3854 19.3854 18.9265 19.673 18.362C19.8072 18.0986 19.8994 17.7509 19.9488 17.1458C19.9992 16.5289 20 15.7366 20 14.6V12.1301C20 10.9248 19.9913 10.5133 19.889 10.1477C19.7906 9.79628 19.6289 9.46577 19.412 9.17239C19.1862 8.8671 18.8667 8.60764 17.9153 7.86763L15.3153 5.84541C13.837 4.69562 13.3186 4.31644 12.784 4.17171ZM10.6933 2.24122C11.549 2.00952 12.451 2.00952 13.3067 2.24122C14.28 2.50474 15.134 3.16964 16.373 4.13427C16.4289 4.17781 16.4856 4.22196 16.5432 4.26671L19.1432 6.28893C19.1791 6.31688 19.2146 6.34444 19.2496 6.37164C20.0539 6.9968 20.6103 7.42928 21.0199 7.98309C21.3816 8.47206 21.651 9.02291 21.8149 9.60858C22.0006 10.2719 22.0004 10.9767 22 11.9954C22 12.0397 22 12.0846 22 12.1301V14.6428C22 15.7266 22 16.6007 21.9422 17.3086C21.8826 18.0375 21.7568 18.6777 21.455 19.2699C20.9757 20.2108 20.2108 20.9757 19.2699 21.455C18.6777 21.7568 18.0375 21.8826 17.3086 21.9422C16.6007 22 15.7266 22 14.6428 22H9.35716C8.27339 22 7.39925 22 6.69137 21.9422C5.96252 21.8826 5.32234 21.7568 4.73005 21.455C3.78923 20.9757 3.02433 20.2108 2.54497 19.2699C2.24318 18.6777 2.11737 18.0375 2.05782 17.3086C1.99998 16.6007 1.99999 15.7266 2 14.6428L2 12.1301C2 12.0846 1.99998 12.0397 1.99997 11.9954C1.99963 10.9767 1.99939 10.2719 2.18507 9.60858C2.349 9.02291 2.61841 8.47206 2.98007 7.9831C3.38968 7.42928 3.94611 6.9968 4.75045 6.37164C4.78544 6.34444 4.8209 6.31688 4.85684 6.28893L7.45684 4.2667C7.51438 4.22195 7.57109 4.1778 7.62701 4.13426C8.86599 3.16963 9.71998 2.50474 10.6933 2.24122ZM8.78044 14.3748C8.77971 14.3739 8.77899 14.373 8.77826 14.3721C8.4327 13.9437 7.80548 13.875 7.3753 14.2191C6.94404 14.5641 6.87412 15.1934 7.21913 15.6247L8 15C7.21913 15.6247 7.21889 15.6244 7.21913 15.6247L7.2201 15.6259L7.22122 15.6273L7.22392 15.6306L7.23115 15.6395L7.25285 15.6657C7.27051 15.6867 7.29457 15.7148 7.32485 15.749C7.38533 15.8173 7.47102 15.9102 7.58039 16.0196C7.79824 16.2375 8.11503 16.5254 8.51876 16.8137C9.31761 17.3843 10.5189 18 12 18C13.4811 18 14.6824 17.3843 15.4812 16.8137C15.885 16.5254 16.2018 16.2375 16.4196 16.0196C16.529 15.9102 16.6147 15.8173 16.6751 15.749C16.7054 15.7148 16.7295 15.6867 16.7471 15.6657L16.7688 15.6395L16.7761 15.6306L16.7788 15.6273L16.7799 15.6259C16.7801 15.6256 16.7809 15.6247 16 15L16.7809 15.6247C17.1259 15.1934 17.056 14.5641 16.6247 14.2191C16.1945 13.875 15.5673 13.9437 15.2218 14.372C15.221 14.3729 15.2203 14.3739 15.2196 14.3748L15.2206 14.3734L15.2218 14.372L15.2157 14.3793C15.2088 14.3875 15.1961 14.4024 15.178 14.4229C15.1416 14.464 15.0835 14.5273 15.0054 14.6054C14.8482 14.7625 14.615 14.9746 14.3188 15.1863C13.7176 15.6157 12.9188 16 12 16C11.0811 16 10.2824 15.6157 9.68124 15.1863C9.38497 14.9746 9.15175 14.7625 8.9946 14.6054C8.91648 14.5273 8.85841 14.464 8.82202 14.4229C8.80386 14.4024 8.79121 14.3875 8.78426 14.3793L8.77826 14.3721L8.77936 14.3734L8.78044 14.3748Z" fill="currentColor"/>
</svg>
