<svg width="100%" height="100%" viewBox="0 0 10 11" fill="none" xmlns="http://www.w3.org/2000/svg">
<path d="M1 3.64282C1 3.09054 1.44772 2.64282 2 2.64282H5.71428C6.26657 2.64282 6.71429 3.09054 6.71429 3.64282V4.92854C6.71429 6.50649 5.4351 7.78568 3.85714 7.78568C2.27919 7.78568 1 6.50649 1 4.92854V3.64282Z" fill="currentColor"/>
<path d="M3.21436 1.5C3.21436 1.22386 2.9905 1 2.71436 1C2.43821 1 2.21436 1.22386 2.21436 1.5H3.21436ZM2.21436 1.5V5.5H3.21436V1.5H2.21436Z" fill="currentColor"/>
<path d="M5.5 1.5C5.5 1.22386 5.27614 1 5 1C4.72386 1 4.5 1.22386 4.5 1.5H5.5ZM4.5 1.5V5.5H5.5V1.5H4.5Z" fill="currentColor"/>
<path d="M8.92836 5.49995C8.92836 5.22381 8.7045 4.99995 8.42836 4.99995C8.15222 4.99995 7.92836 5.22381 7.92836 5.49995H8.92836ZM3.35693 3.21423V7.21424H4.35693V3.21423H3.35693ZM8.92836 7.21423V5.49995H7.92836V7.21423H8.92836ZM6.14265 9.99995C7.68115 9.99995 8.92836 8.75274 8.92836 7.21423H7.92836C7.92836 8.20046 7.12887 8.99995 6.14265 8.99995V9.99995ZM3.35693 7.21424C3.35693 8.75274 4.60414 9.99995 6.14265 9.99995V8.99995C5.15642 8.99995 4.35693 8.20046 4.35693 7.21424H3.35693Z" fill="currentColor"/>
</svg>
