<svg width="100%" height="100%" viewBox="0 0 10 10" fill="none" xmlns="http://www.w3.org/2000/svg">
<g clip-path="url(#clip0_4170_23)">
<path fill-rule="evenodd" clip-rule="evenodd" d="M5.94256 0.570737C5.97262 0.34857 5.85878 0.132474 5.66412 0.0422324C5.46946 -0.0480088 5.24169 0.00971618 5.10707 0.18341L1.35048 5.03009L1.33979 5.04388L1.33978 5.04389C1.26827 5.13612 1.19563 5.2298 1.1428 5.31215C1.09257 5.39043 1.00169 5.54337 1.00003 5.74342C0.99812 5.97297 1.09591 6.1908 1.26542 6.3346C1.41315 6.45992 1.58283 6.48252 1.67203 6.49106C1.76586 6.50004 1.88054 6.50002 1.99345 6.49999H1.99347L4.45387 6.49999L4.05744 9.42926C4.02737 9.65143 4.14122 9.86753 4.33588 9.95777C4.53054 10.048 4.75831 9.99028 4.89293 9.81659L8.6602 4.95613C8.73172 4.86389 8.80437 4.7702 8.8572 4.68785C8.90743 4.60957 8.99831 4.45663 8.99997 4.25658C9.00188 4.02703 8.90409 3.8092 8.73458 3.6654C8.58685 3.54008 8.41717 3.51748 8.32797 3.50894C8.23413 3.49996 8.11944 3.49998 8.00653 3.50001L5.54613 3.50001L5.94256 0.570737Z" fill="currentColor"/>
</g>
<defs>
<linearGradient id="paint0_linear_4170_23" x1="1" y1="0" x2="9.48135" y2="0.426433" gradientUnits="userSpaceOnUse">
<stop offset="0.285" stop-color="#00BA66"/>
<stop offset="1" stop-color="#6889FF"/>
</linearGradient>
<clipPath id="clip0_4170_23">
<rect width="10" height="10" fill="white"/>
</clipPath>
</defs>
</svg>
