<svg width="100%" height="100%" viewBox="0 0 24 24" fill="none" xmlns="http://www.w3.org/2000/svg">
<path fill-rule="evenodd" clip-rule="evenodd" d="M17.4371 4H17.4376L20.2933 6.10282L20.2932 6.10302L17.4371 4ZM14.28 4H5C2.79086 4 1 5.79086 1 8V18C1 20.2091 2.79086 22 5 22H19C21.2091 22 23 20.2091 23 18V8C23 7.39939 22.8676 6.8297 22.6305 6.31851C22.6161 6.33846 22.6014 6.35832 22.5866 6.37809L21 8.49441V18C21 19.1046 20.1046 20 19 20H5C3.89543 20 3 19.1046 3 18V8C3 6.89543 3.89543 6 5 6H12.7805L14.28 4ZM15.2805 6H15.2802L16.1991 4.7743L16.1993 4.77444L15.2805 6Z" fill="currentColor"/>
<path d="M20.9871 5.17841C21.6618 4.27852 21.4745 3.00841 20.5688 2.34153C19.6631 1.67466 18.382 1.86355 17.7074 2.76344L17.0142 3.68807L20.2939 6.10304L20.9871 5.17841Z" fill="currentColor"/>
<path d="M19.4795 7.1893L16.1998 4.77433L10.9577 11.7664C10.5143 12.3577 10.2355 12.7295 10.0354 13.1438C9.85816 13.5108 9.72926 13.8989 9.65192 14.2983C9.56462 14.7492 9.5662 15.212 9.5687 15.948L9.56968 16.2447C9.5704 16.4643 9.67862 16.6696 9.85989 16.7952C10.0412 16.9209 10.2729 16.9512 10.4813 16.8766L10.8607 16.7408C11.4946 16.5139 11.8933 16.3712 12.259 16.1626C12.583 15.9777 12.8842 15.7558 13.1562 15.5014C13.4632 15.2144 13.7161 14.8769 14.1184 14.3403L19.4795 7.1893Z" fill="currentColor"/>
</svg>
