<svg width="100%" height="100%" viewBox="0 0 24 24" fill="none" xmlns="http://www.w3.org/2000/svg">
<path d="M11.9929 3C6.4611 3 2 6.47488 2 10.6934C2 13.4317 3.85582 15.8293 6.63954 17.1985L5.69736 20.6248C5.67959 20.6761 5.67686 20.7312 5.68947 20.784C5.70208 20.8368 5.72952 20.8851 5.76874 20.9236C5.82592 20.9727 5.89949 20.9998 5.97573 21C6.03895 20.9951 6.09892 20.9707 6.14704 20.9305L10.2013 18.2688C10.7997 18.3492 11.403 18.3909 12.0071 18.3938C17.5318 18.3938 22 14.9189 22 10.6934C22 6.46793 17.5175 3 11.9929 3Z" fill="currentColor"/>
</svg>
