<svg width="100%" height="100%" viewBox="0 0 32 32" fill="none" xmlns="http://www.w3.org/2000/svg">
<path fill-rule="evenodd" clip-rule="evenodd" d="M20 10.6667H12C11.2636 10.6667 10.6666 11.2636 10.6666 12V20C10.6666 20.7364 11.2636 21.3333 12 21.3333H20C20.7364 21.3333 21.3333 20.7364 21.3333 20V12C21.3333 11.2636 20.7364 10.6667 20 10.6667ZM12 9.33334C10.5272 9.33334 9.33331 10.5273 9.33331 12V20C9.33331 21.4728 10.5272 22.6667 12 22.6667H20C21.4727 22.6667 22.6666 21.4728 22.6666 20V12C22.6666 10.5273 21.4727 9.33334 20 9.33334H12Z" fill="currentColor"/>
</svg>
