<svg width="100%" height="100%" viewBox="0 0 32 32" fill="none" xmlns="http://www.w3.org/2000/svg">
<path d="M19.7855 14.4899C20.056 14.2401 20.0729 13.8184 19.8232 13.5478C19.5734 13.2773 19.1517 13.2604 18.8811 13.5101L15.0185 17.0757L13.1381 15.1953C12.8777 14.9349 12.4556 14.9349 12.1952 15.1953C11.9349 15.4556 11.9349 15.8777 12.1952 16.1381L14.5286 18.4714C14.7816 18.7244 15.1892 18.7326 15.4522 18.4899L19.7855 14.4899Z" fill="currentColor"/>
<path fill-rule="evenodd" clip-rule="evenodd" d="M9.33331 12C9.33331 10.5273 10.5272 9.33334 12 9.33334H20C21.4727 9.33334 22.6666 10.5273 22.6666 12V20C22.6666 21.4728 21.4727 22.6667 20 22.6667H12C10.5272 22.6667 9.33331 21.4728 9.33331 20V12ZM12 10.6667H20C20.7364 10.6667 21.3333 11.2636 21.3333 12V20C21.3333 20.7364 20.7364 21.3333 20 21.3333H12C11.2636 21.3333 10.6666 20.7364 10.6666 20V12C10.6666 11.2636 11.2636 10.6667 12 10.6667Z" fill="currentColor"/>
</svg>
