<svg width="100%" height="100%" viewBox="0 0 24 24" fill="none" xmlns="http://www.w3.org/2000/svg">
<path d="M13.4157 3.43088L19.9106 7.78339C20.0503 7.87707 20.1649 8.00398 20.2441 8.15286C20.3234 8.30175 20.3649 8.468 20.3649 8.63686C20.3649 8.80572 20.3234 8.97197 20.2441 9.12085C20.1649 9.26974 20.0503 9.39665 19.9106 9.49033L13.4157 13.8439C12.9966 14.1248 12.5042 14.2747 12.0004 14.2747C11.4967 14.2747 11.0042 14.1248 10.5851 13.8439L4.09029 9.49033C3.95053 9.39665 3.83595 9.26974 3.7567 9.12085C3.67745 8.97197 3.63598 8.80572 3.63598 8.63686C3.63598 8.468 3.67745 8.30175 3.7567 8.15286C3.83595 8.00398 3.95053 7.87707 4.09029 7.78339L10.5851 3.43088C11.0042 3.14993 11.4967 3 12.0004 3C12.5042 3 12.9966 3.14993 13.4157 3.43088ZM20.1901 12.4241C20.0388 12.6678 19.8382 12.8768 19.6014 13.0376L13.428 17.227C13.0063 17.5132 12.5092 17.6661 12.0004 17.6661C11.4917 17.6661 10.9945 17.5132 10.5729 17.227L4.39947 13.0376C4.02999 12.787 3.75227 12.4217 3.60873 11.9975C3.46519 11.5733 3.46373 11.1136 3.60458 10.6885L10.5851 15.3662C10.977 15.6287 11.4336 15.7771 11.9042 15.7948C12.3748 15.8126 12.8411 15.699 13.2514 15.4667L13.4147 15.3662L20.3952 10.6885C20.4903 10.9751 20.5212 11.2793 20.4858 11.5794C20.4503 11.8794 20.3494 12.1679 20.1901 12.4241ZM20.1901 15.758C20.0388 16.0017 19.8382 16.2107 19.6014 16.3715L13.428 20.5609C13.0063 20.8471 12.5092 21 12.0004 21C11.4917 21 10.9945 20.8471 10.5729 20.5609L4.39947 16.3715C4.02999 16.1209 3.75227 15.7556 3.60873 15.3314C3.46519 14.9072 3.46373 14.4475 3.60458 14.0224L10.5851 18.7C10.977 18.9626 11.4336 19.1109 11.9042 19.1287C12.3748 19.1464 12.8411 19.0329 13.2514 18.8006L13.4147 18.7L20.3952 14.0224C20.4903 14.309 20.5212 14.6132 20.4858 14.9132C20.4503 15.2133 20.3494 15.5017 20.1901 15.758Z" fill="currentColor"/>
</svg>
