<svg width="100%" height="100%" viewBox="0 0 24 25" fill="none" xmlns="http://www.w3.org/2000/svg">
<path fill-rule="evenodd" clip-rule="evenodd" d="M2.10555 3.05276C2.35254 2.55878 2.95321 2.35856 3.44719 2.60555L5.44719 3.60555C5.94117 3.85254 6.14139 4.45321 5.8944 4.94719C5.64741 5.44117 5.04674 5.64139 4.55276 5.3944L2.55276 4.3944C2.05878 4.14741 1.85856 3.54674 2.10555 3.05276ZM21.8944 3.05276C22.1414 3.54674 21.9412 4.14741 21.4472 4.3944L19.4472 5.3944C18.9532 5.64139 18.3525 5.44117 18.1055 4.94719C17.8586 4.45321 18.0588 3.85254 18.5528 3.60555L20.5528 2.60555C21.0467 2.35856 21.6474 2.55878 21.8944 3.05276ZM5.99997 8.49997C5.99997 5.18627 8.68627 2.49997 12 2.49997C15.3137 2.49997 18 5.18627 18 8.49997V14.5C18 15.0523 17.5523 15.5 17 15.5H6.99997C6.44769 15.5 5.99997 15.0523 5.99997 14.5V8.49997ZM12 4.49997C9.79084 4.49997 7.99997 6.29084 7.99997 8.49997V13.5H16V8.49997C16 6.29084 14.2091 4.49997 12 4.49997ZM12 7.49997C11.4477 7.49997 11 7.94769 11 8.49997C11 8.58784 11.0111 8.67165 11.0314 8.75072C11.1691 9.28557 10.8471 9.83075 10.3122 9.96841C9.77739 10.1061 9.23221 9.78409 9.09455 9.24923C9.03263 9.00868 8.99997 8.75741 8.99997 8.49997C8.99997 6.84312 10.3431 5.49997 12 5.49997C12.2106 5.49997 12.4172 5.52184 12.6173 5.56376C13.1579 5.67703 13.5042 6.20705 13.391 6.7476C13.2777 7.28814 12.7477 7.63452 12.2071 7.52125C12.1411 7.50742 12.072 7.49997 12 7.49997ZM1.99997 10.5C1.99997 9.94769 2.44769 9.49997 2.99997 9.49997H3.99997C4.55226 9.49997 4.99997 9.94769 4.99997 10.5C4.99997 11.0523 4.55226 11.5 3.99997 11.5H2.99997C2.44769 11.5 1.99997 11.0523 1.99997 10.5ZM19 10.5C19 9.94769 19.4477 9.49997 20 9.49997H21C21.5523 9.49997 22 9.94769 22 10.5C22 11.0523 21.5523 11.5 21 11.5H20C19.4477 11.5 19 11.0523 19 10.5ZM5.56809 16.5H18.4319C18.6842 16.4999 18.93 16.4999 19.1382 16.5169C19.3668 16.5356 19.6365 16.5797 19.908 16.718C20.2843 16.9097 20.5902 17.2157 20.782 17.592C20.9203 17.8634 20.9644 18.1332 20.983 18.3617C21 18.5699 21 18.8157 21 19.0681V19.9319C21 20.1843 21 20.4301 20.983 20.6382C20.9644 20.8668 20.9203 21.1365 20.782 21.408C20.5902 21.7843 20.2843 22.0902 19.908 22.282C19.6365 22.4203 19.3668 22.4644 19.1382 22.483C18.93 22.5 18.6843 22.5 18.4319 22.5H5.56806C5.31568 22.5 5.0699 22.5 4.86175 22.483C4.63315 22.4644 4.36342 22.4203 4.09199 22.282C3.71567 22.0902 3.40971 21.7843 3.21796 21.408C3.07966 21.1365 3.0356 20.8668 3.01692 20.6382C2.99991 20.43 2.99994 20.1843 2.99997 19.9319V19.0681C2.99994 18.8157 2.99991 18.5699 3.01692 18.3617C3.0356 18.1332 3.07966 17.8634 3.21796 17.592C3.40971 17.2157 3.71567 16.9097 4.09199 16.718C4.36342 16.5797 4.63315 16.5356 4.86174 16.5169C5.06991 16.4999 5.31571 16.4999 5.56809 16.5ZM5.01142 18.5114C5.01104 18.5156 5.01066 18.52 5.01028 18.5246C5.00075 18.6412 4.99997 18.8034 4.99997 19.1V19.9C4.99997 20.1965 5.00075 20.3588 5.01028 20.4753C5.01066 20.48 5.01104 20.4844 5.01142 20.4885C5.01557 20.4889 5.01997 20.4893 5.02461 20.4897C5.14119 20.4992 5.30345 20.5 5.59998 20.5H18.4C18.6965 20.5 18.8588 20.4992 18.9753 20.4897C18.98 20.4893 18.9844 20.4889 18.9885 20.4885C18.9889 20.4844 18.9893 20.48 18.9897 20.4753C18.9992 20.3588 19 20.1965 19 19.9V19.1C19 18.8034 18.9992 18.6412 18.9897 18.5246C18.9893 18.52 18.9889 18.5156 18.9885 18.5114C18.9844 18.511 18.98 18.5107 18.9753 18.5103C18.8588 18.5008 18.6965 18.5 18.4 18.5H5.59997C5.30345 18.5 5.14119 18.5008 5.02461 18.5103C5.01997 18.5107 5.01557 18.511 5.01142 18.5114Z" fill="currentColor"/>
</svg>
