<svg width="100%" height="100%" viewBox="0 0 20 20" fill="none" xmlns="http://www.w3.org/2000/svg">
<path fill-rule="evenodd" clip-rule="evenodd" d="M9.99999 1.6665C10.4602 1.6665 10.8333 2.0396 10.8333 2.49984V3.33317C10.8333 3.79341 10.4602 4.1665 9.99999 4.1665C9.53975 4.1665 9.16666 3.79341 9.16666 3.33317V2.49984C9.16666 2.0396 9.53975 1.6665 9.99999 1.6665ZM4.10719 4.10703C4.43262 3.7816 4.96026 3.7816 5.2857 4.10703L5.87495 4.69629C6.20039 5.02173 6.20039 5.54936 5.87495 5.8748C5.54952 6.20024 5.02188 6.20024 4.69644 5.8748L4.10719 5.28554C3.78175 4.96011 3.78175 4.43247 4.10719 4.10703ZM15.8928 4.10703C16.2182 4.43247 16.2182 4.96011 15.8928 5.28554L15.3035 5.8748C14.9781 6.20024 14.4505 6.20024 14.125 5.8748C13.7996 5.54936 13.7996 5.02173 14.125 4.69629L14.7143 4.10703C15.0397 3.7816 15.5674 3.7816 15.8928 4.10703ZM9.99999 6.6665C8.15904 6.6665 6.66666 8.15889 6.66666 9.99984C6.66666 11.8408 8.15904 13.3332 9.99999 13.3332C11.8409 13.3332 13.3333 11.8408 13.3333 9.99984C13.3333 8.15889 11.8409 6.6665 9.99999 6.6665ZM4.99999 9.99984C4.99999 7.23841 7.23857 4.99984 9.99999 4.99984C12.7614 4.99984 15 7.23841 15 9.99984C15 11.8505 13.9945 13.4664 12.5 14.3309L12.5 15.8328C12.5 17.2136 11.3807 18.3328 9.99999 18.3328C8.61928 18.3328 7.49999 17.2136 7.49999 15.8328V14.3309C6.00549 13.4664 4.99999 11.8505 4.99999 9.99984ZM9.16666 14.9307V15.8328C9.16666 16.2931 9.53975 16.6662 9.99999 16.6662C10.4602 16.6662 10.8333 16.2931 10.8333 15.8328V14.9307C10.5623 14.9762 10.2839 14.9998 9.99999 14.9998C9.71606 14.9998 9.43766 14.9762 9.16666 14.9307ZM1.66666 9.99984C1.66666 9.5396 2.03975 9.1665 2.49999 9.1665H3.33332C3.79356 9.1665 4.16666 9.5396 4.16666 9.99984C4.16666 10.4601 3.79356 10.8332 3.33332 10.8332H2.49999C2.03975 10.8332 1.66666 10.4601 1.66666 9.99984ZM15.8333 9.99984C15.8333 9.5396 16.2064 9.1665 16.6667 9.1665H17.5C17.9602 9.1665 18.3333 9.5396 18.3333 9.99984C18.3333 10.4601 17.9602 10.8332 17.5 10.8332H16.6667C16.2064 10.8332 15.8333 10.4601 15.8333 9.99984Z" fill="currentColor"/>
</svg>
