<svg width="100%" height="100%" viewBox="0 0 16 17" fill="none" xmlns="http://www.w3.org/2000/svg">
<path fill-rule="evenodd" clip-rule="evenodd" d="M11.3153 9.43822C11.5385 9.32957 11.7948 9.32957 12.018 9.43822C12.1766 9.51538 12.2878 9.65706 12.3815 9.8052C12.4747 9.95274 12.5768 10.1512 12.7003 10.3913L14.2934 13.4882C14.4091 13.7132 14.5053 13.9003 14.5685 14.0552C14.6325 14.2119 14.6821 14.3799 14.6622 14.5578C14.6339 14.8104 14.5077 15.0386 14.3143 15.1869C14.1782 15.2912 14.0166 15.3257 13.8573 15.3413C13.6999 15.3567 13.5003 15.3567 13.2601 15.3567H10.0732C9.83307 15.3567 9.63341 15.3567 9.47604 15.3413C9.31676 15.3257 9.15514 15.2912 9.01899 15.1869C8.82565 15.0386 8.69943 14.8104 8.67113 14.5578C8.65119 14.3799 8.70085 14.2119 8.76481 14.0552C8.828 13.9003 8.92423 13.7132 9.03998 13.4882L10.633 10.3913C10.7565 10.1512 10.8586 9.95274 10.9519 9.8052C11.0455 9.65706 11.1568 9.51538 11.3153 9.43822Z" fill="currentColor"/>
<path d="M11.6191 11.2377C11.8163 11.2377 11.9762 11.3976 11.9762 11.5948V13.0234C11.9762 13.2206 11.8163 13.3805 11.6191 13.3805C11.4218 13.3805 11.2619 13.2206 11.2619 13.0234V11.5948C11.2619 11.3976 11.4218 11.2377 11.6191 11.2377Z" fill="currentColor"/>
<path d="M11.2619 14.0948C11.2619 13.8976 11.4218 13.7377 11.6191 13.7377H11.6226C11.8199 13.7377 11.9798 13.8976 11.9798 14.0948C11.9798 14.2921 11.8199 14.452 11.6226 14.452H11.6191C11.4218 14.452 11.2619 14.2921 11.2619 14.0948Z" fill="currentColor"/>
<path d="M8.98243 11.5006H3.71224C3.622 11.5006 3.54673 11.5008 3.48308 11.5019L3.32292 11.5084C3.2778 11.5121 3.24641 11.517 3.22461 11.5221L3.1823 11.5371C3.1353 11.561 3.09454 11.5957 3.06381 11.638L3.03646 11.6829C3.03224 11.6913 3.02649 11.7039 3.02149 11.7252L3.00782 11.8235C3.00054 11.9132 2.99998 12.033 3 12.2129V12.7884L3.00131 13.0175C3.00239 13.0807 3.00418 13.133 3.00782 13.1777L3.02149 13.276C3.02653 13.2974 3.03224 13.31 3.03646 13.3183L3.06381 13.3632C3.09455 13.4055 3.13532 13.4402 3.1823 13.4642L3.22461 13.4791C3.24642 13.4842 3.27783 13.4891 3.32292 13.4928L3.48308 13.4993C3.54672 13.5004 3.622 13.5006 3.71224 13.5006H7.88282C7.79322 13.6636 7.70732 13.8205 7.63607 13.9655L7.5599 14.1295C7.51495 14.2325 7.46589 14.3581 7.4323 14.5006H3.71224C3.544 14.5006 3.37965 14.5009 3.24089 14.4895C3.08859 14.4771 2.90866 14.4475 2.72787 14.3554C2.47712 14.2276 2.27302 14.0235 2.14519 13.7727C2.05311 13.592 2.02355 13.412 2.01107 13.2597C1.99974 13.121 1.99998 12.9565 2 12.7884V12.2129C1.99998 12.0447 1.99976 11.8802 2.01107 11.7415C2.02353 11.5892 2.05315 11.4092 2.14519 11.2285C2.27299 10.9777 2.4771 10.7736 2.72787 10.6458C2.9087 10.5537 3.08856 10.5241 3.24089 10.5117C3.37966 10.5003 3.54399 10.5006 3.71224 10.5006H9.53256L8.98243 11.5006Z" fill="currentColor"/>
<path d="M8 1.16663C10.2091 1.16663 12 2.95814 12 5.16728V8.28512C11.7375 8.23769 11.4662 8.2548 11.2109 8.33915L11.0495 8.4023C11.0325 8.41002 11.0163 8.41877 11 8.42704V5.16728C11 3.51042 9.65686 2.16728 8 2.16728C6.34315 2.16728 5 3.51043 5 5.16728V8.83394H10.5104C10.5018 8.84443 10.4926 8.85415 10.4844 8.86454L10.3698 9.02275C10.3025 9.12231 10.2327 9.23713 10.1615 9.36129L9.94141 9.75712L9.89909 9.83394H4.66667C4.29859 9.83394 4.00018 9.53532 4 9.16728V5.16728C4 2.95814 5.79087 1.16663 8 1.16663Z" fill="currentColor"/>
<path d="M7.33333 4.0234C6.96514 4.0234 6.66667 4.32187 6.66667 4.69006C6.66667 4.74864 6.67406 4.80451 6.68763 4.85722C6.77941 5.21379 6.56475 5.57725 6.20818 5.66902C5.85161 5.7608 5.48816 5.54614 5.39638 5.18957C5.35511 5.0292 5.33333 4.86169 5.33333 4.69006C5.33333 3.58549 6.22876 2.69006 7.33333 2.69006C7.47376 2.69006 7.6115 2.70464 7.74489 2.73259C8.10525 2.8081 8.33617 3.16145 8.26066 3.52181C8.18515 3.88217 7.8318 4.11309 7.47144 4.03758C7.42745 4.02836 7.38133 4.0234 7.33333 4.0234Z" fill="currentColor"/>
</svg>
