<svg width="100%" height="100%" viewBox="0 0 16 17" fill="none" xmlns="http://www.w3.org/2000/svg">
<path fill-rule="evenodd" clip-rule="evenodd" d="M6.18314 3.19233C6.53716 3.29348 6.74216 3.66247 6.64101 4.01649L3.97434 13.3498C3.87319 13.7038 3.5042 13.9088 3.15018 13.8077C2.79616 13.7065 2.59116 13.3376 2.69231 12.9835L5.35898 3.65019C5.46013 3.29617 5.82912 3.09118 6.18314 3.19233ZM8.76094 3.17338C9.12543 3.22545 9.3787 3.56313 9.32663 3.92762L7.99329 13.261C7.94122 13.6254 7.60354 13.8787 7.23905 13.8266C6.87456 13.7746 6.62129 13.4369 6.67336 13.0724L8.00669 3.73906C8.05876 3.37457 8.39645 3.12131 8.76094 3.17338ZM11.3335 3.16668C11.7016 3.16668 12.0001 3.46515 12.0001 3.83334V13.1667C12.0001 13.5349 11.7016 13.8333 11.3335 13.8333C10.9653 13.8333 10.6668 13.5349 10.6668 13.1667V3.83334C10.6668 3.46515 10.9653 3.16668 11.3335 3.16668Z" fill="currentColor"/>
</svg>
