<svg width="100%" height="100%" viewBox="0 0 24 24" fill="none" xmlns="http://www.w3.org/2000/svg">
<path fill-rule="evenodd" clip-rule="evenodd" d="M12.0265 19.5812C12.0515 19.5807 12.0766 19.5821 12.1014 19.5853C12.1273 19.5887 12.1623 19.5959 12.4798 19.7022L15.5389 20.7263C16.3197 20.9877 16.9701 21.2055 17.4874 21.3286C17.9886 21.4479 18.5824 21.5383 19.1399 21.3211C19.8721 21.0359 20.4275 20.423 20.6396 19.6664C20.8011 19.0903 20.6529 18.5082 20.4851 18.0212C20.3118 17.5184 20.0313 16.8925 19.6946 16.141L15.112 5.91365C14.7831 5.17953 14.5084 4.56647 14.2531 4.11102C14.0046 3.66778 13.6737 3.17876 13.1444 2.91601C12.4466 2.56962 11.6272 2.5683 10.9283 2.91245C10.3982 3.1735 10.0657 3.66145 9.81577 4.1039C9.55895 4.55852 9.2823 5.17072 8.95102 5.90378L4.32452 16.141C3.98512 16.8919 3.70244 17.5174 3.52747 18.0198C3.35796 18.5066 3.2078 19.0885 3.3676 19.6653C3.57744 20.4228 4.13132 21.0375 4.86292 21.3248C5.42002 21.5436 6.01437 21.4547 6.51609 21.3366C7.03401 21.2147 7.68544 20.9985 8.46756 20.7389L11.5943 19.7011C11.9121 19.5956 11.9472 19.5885 11.973 19.5852C11.9908 19.5829 12.0087 19.5816 12.0265 19.5812Z" fill="currentColor"/>
</svg>
