<svg width="100%" height="100%" viewBox="0 0 24 24" fill="none" xmlns="http://www.w3.org/2000/svg">
<path d="M19.6524 4.06269C19.3259 4.1622 18.8836 4.34017 18.21 4.61284L13.5171 6.51234C13.1382 6.6657 12.7042 6.57303 12.4209 6.27831C11.9306 5.76809 12.1108 4.92395 12.7667 4.65844L17.5033 2.74126C18.1213 2.49111 18.6471 2.27826 19.0694 2.14955C19.4724 2.02674 20.003 1.90409 20.5267 2.07614C21.188 2.29337 21.7066 2.812 21.9238 3.47326C22.0959 3.99698 21.9732 4.52756 21.8504 4.93055C21.7217 5.35288 21.5089 5.87871 21.2587 6.49668L19.1788 11.6352C18.8976 12.3299 17.9803 12.4798 17.4925 11.9107C17.2494 11.6269 17.1847 11.2312 17.3249 10.8848L19.3871 5.78998C19.6598 5.11632 19.8378 4.67406 19.9373 4.34753C19.9861 4.18741 20.0012 4.09853 20.0063 4.05921C19.9902 4.03231 19.9676 4.00979 19.9408 3.99369C19.9014 3.99881 19.8125 4.01389 19.6524 4.06269Z" fill="currentColor"/>
<path d="M5.66735 9.68962C4.98388 9.96627 4.53371 10.1495 4.22588 10.3063C4.10954 10.3656 4.0392 10.4091 3.99955 10.4359C4.04031 10.4609 4.11245 10.5014 4.23122 10.5556C4.54546 10.6992 5.00305 10.8629 5.69772 11.1101L9.83851 12.5835L9.89361 12.603C10.0976 12.6749 10.3543 12.7653 10.579 12.9217C10.7737 13.0572 10.9427 13.2262 11.0782 13.4209C11.2346 13.6456 11.3251 13.9024 11.397 14.1063L11.4165 14.1615L12.8898 18.3022C13.137 18.9969 13.3008 19.4545 13.4443 19.7687C13.4986 19.8875 13.5391 19.9596 13.5641 20.0004C13.5908 19.9608 13.6344 19.8904 13.6937 19.7741C13.8505 19.4663 14.0337 19.0161 14.3103 18.3326L15.9987 14.1615L17.5033 15.7747L16.1467 19.1263C15.8924 19.7547 15.6769 20.2871 15.4757 20.682C15.2895 21.0476 15.0053 21.5342 14.5015 21.7848C13.884 22.092 13.1551 22.0765 12.5513 21.7431C12.0586 21.4712 11.7956 20.9729 11.6251 20.5996C11.441 20.1965 11.2485 19.6555 11.0213 19.0169L9.53219 14.8319C9.48209 14.6911 9.4566 14.6204 9.43567 14.5699L9.43402 14.5659L9.43007 14.5643C9.37959 14.5434 9.30884 14.5179 9.16805 14.4678L4.98313 12.9787C4.34454 12.7515 3.80343 12.559 3.40032 12.3749C3.0271 12.2044 2.52878 11.9413 2.25683 11.4487C1.92351 10.8449 1.90792 10.1159 2.21513 9.49842C2.46577 8.99462 2.9524 8.71049 3.31799 8.52424C3.71285 8.32307 4.24522 8.1076 4.87349 7.85332L4.87353 7.85331L8.22521 6.49668L9.89361 7.979L5.66735 9.68962Z" fill="currentColor"/>
<path d="M5.23562 3.23562C5.54978 2.92146 6.05913 2.92146 6.37329 3.23562L11.6512 8.51354C11.6781 8.53702 11.7036 8.56245 11.7274 8.58977L17.0913 13.9537C17.1316 13.9868 17.1681 14.0235 17.2005 14.0629L20.8535 17.7158C21.1676 18.03 21.1676 18.5393 20.8535 18.8535C20.5393 19.1676 20.03 19.1676 19.7158 18.8535L16.685 15.8227L15.5434 14.6811L11.0169 10.1546L9.87532 9.01299L8.73552 7.87319L7.59669 6.73436L5.23562 4.37329C4.92146 4.05913 4.92146 3.54978 5.23562 3.23562Z" fill="currentColor" stroke="currentColor" stroke-width="0.4" stroke-linecap="round" stroke-linejoin="round"/>
</svg>
