<svg width="100%" height="100%" viewBox="0 0 20 20" fill="none" xmlns="http://www.w3.org/2000/svg">
<path fill-rule="evenodd" clip-rule="evenodd" d="M16.3769 3.38546C16.1048 3.46839 15.7362 3.6167 15.1748 3.84392L4.72264 8.07457C4.15308 8.30511 3.77794 8.45778 3.52142 8.58847C3.42447 8.63786 3.36585 8.67415 3.33281 8.69644C3.36677 8.71729 3.42689 8.75104 3.52586 8.79625C3.78773 8.91585 4.16906 9.05234 4.74795 9.25833L8.1986 10.4861C8.2135 10.4914 8.22882 10.4968 8.24452 10.5024C8.4145 10.5623 8.62845 10.6377 8.81572 10.768C8.97795 10.8809 9.11881 11.0218 9.23171 11.184C9.36203 11.3713 9.43743 11.5852 9.49733 11.7552C9.50286 11.7709 9.50826 11.7862 9.51356 11.8011L10.7414 15.2518C10.9474 15.8306 11.0839 16.212 11.2035 16.4738C11.2487 16.5728 11.2824 16.6329 11.3033 16.6669C11.3256 16.6339 11.3618 16.5752 11.4112 16.4783C11.5419 16.2218 11.6946 15.8466 11.9251 15.2771L16.1558 4.82487C16.383 4.26348 16.5313 3.89493 16.6142 3.62283C16.6549 3.4894 16.6675 3.41533 16.6717 3.38256C16.6583 3.36014 16.6396 3.34138 16.6171 3.32797C16.5844 3.33223 16.5103 3.3448 16.3769 3.38546ZM15.891 1.79118C16.2269 1.68884 16.669 1.58663 17.1054 1.73C17.6565 1.91103 18.0887 2.34322 18.2697 2.89427C18.4131 3.3307 18.3109 3.77285 18.2085 4.10868C18.1013 4.46062 17.9239 4.89881 17.7154 5.41379L13.4554 15.9385C13.2435 16.4621 13.0639 16.9058 12.8963 17.2349C12.7411 17.5395 12.5043 17.945 12.0845 18.1539C11.5699 18.4099 10.9624 18.3969 10.4592 18.1192C10.0487 17.8925 9.82948 17.4773 9.68743 17.1663C9.53401 16.8303 9.37358 16.3794 9.18425 15.8473L7.94334 12.3598C7.90159 12.2425 7.88034 12.1835 7.86291 12.1415C7.86243 12.1403 7.86197 12.1392 7.86153 12.1382C7.86048 12.1377 7.85938 12.1373 7.85824 12.1368C7.81617 12.1194 7.75721 12.0981 7.63989 12.0564L4.15246 10.8155C3.6203 10.6261 3.16937 10.4657 2.83345 10.3123C2.52243 10.1702 2.10716 9.951 1.88054 9.54048C1.60277 9.03731 1.58978 8.42982 1.84579 7.91523C2.05466 7.4954 2.46018 7.25863 2.76484 7.10342C3.0939 6.93578 3.53755 6.75622 4.06112 6.54431L14.5859 2.28428C15.1009 2.07582 15.5391 1.89844 15.891 1.79118Z" fill="currentColor"/>
</svg>
