<svg width="100%" height="100%" viewBox="0 0 20 21" fill="none" xmlns="http://www.w3.org/2000/svg">
<path fill-rule="evenodd" clip-rule="evenodd" d="M8.75016 3.83341C5.98014 3.83341 3.75016 5.98887 3.75016 8.83342C3.75016 9.45028 4.03336 10.2876 4.56186 11.2682C5.0784 12.2266 5.77724 13.2283 6.49162 14.1481C7.20363 15.0647 7.91771 15.8828 8.45484 16.4726C8.56079 16.589 8.65969 16.6963 8.75016 16.7935C8.81846 16.7201 8.89158 16.641 8.9689 16.5565C9.27971 16.2171 9.80684 16.1939 10.1463 16.5047C10.4857 16.8155 10.5089 17.3426 10.1981 17.6821C9.94157 17.9622 9.72872 18.1872 9.57932 18.3428C9.5046 18.4207 9.44569 18.4812 9.40507 18.5227L9.35813 18.5705L9.34551 18.5832L9.34201 18.5867L9.34098 18.5878L8.75016 18.0001C8.1599 18.5883 8.15967 18.5881 8.15967 18.5881L8.15435 18.5827L8.1405 18.5687L8.08892 18.5162C8.04428 18.4706 7.97959 18.404 7.89771 18.3185C7.734 18.1476 7.5013 17.9009 7.22257 17.5948C6.66595 16.9836 5.9217 16.1313 5.17537 15.1704C4.43142 14.2127 3.67192 13.1299 3.09471 12.0589C2.52947 11.0101 2.0835 9.87322 2.0835 8.83342C2.0835 5.05129 5.07686 2.16675 8.75016 2.16675C12.4235 2.16675 15.4168 5.05129 15.4168 8.83342C15.4168 9.62476 15.1593 10.462 14.8024 11.2578C14.614 11.6777 14.1209 11.8655 13.701 11.6771C13.281 11.4887 13.0933 10.9956 13.2817 10.5757C13.5949 9.87739 13.7502 9.28848 13.7502 8.83342C13.7502 5.98887 11.5202 3.83341 8.75016 3.83341ZM8.75016 18.0001L8.15967 18.5881C8.31603 18.745 8.52865 18.8334 8.75016 18.8334C8.97167 18.8334 9.18462 18.7447 9.34098 18.5878L8.75016 18.0001Z" fill="currentColor"/>
<path fill-rule="evenodd" clip-rule="evenodd" d="M8.75016 7.16675C7.82969 7.16675 7.0835 7.91294 7.0835 8.83342C7.0835 9.75389 7.82969 10.5001 8.75016 10.5001C9.67064 10.5001 10.4168 9.75389 10.4168 8.83342C10.4168 7.91294 9.67064 7.16675 8.75016 7.16675ZM5.41683 8.83342C5.41683 6.99247 6.90921 5.50008 8.75016 5.50008C10.5911 5.50008 12.0835 6.99247 12.0835 8.83342C12.0835 10.6744 10.5911 12.1667 8.75016 12.1667C6.90921 12.1667 5.41683 10.6744 5.41683 8.83342Z" fill="currentColor"/>
<path fill-rule="evenodd" clip-rule="evenodd" d="M12.3276 13.2442C12.653 12.9187 13.1806 12.9187 13.5061 13.2442L15.0002 14.7382L16.4942 13.2442C16.8197 12.9187 17.3473 12.9187 17.6728 13.2442C17.9982 13.5696 17.9982 14.0972 17.6728 14.4227L16.1787 15.9167L17.6728 17.4108C17.9982 17.7363 17.9982 18.2639 17.6728 18.5893C17.3473 18.9148 16.8197 18.9148 16.4942 18.5893L15.0002 17.0953L13.5061 18.5893C13.1806 18.9148 12.653 18.9148 12.3276 18.5893C12.0021 18.2639 12.0021 17.7363 12.3276 17.4108L13.8217 15.9167L12.3276 14.4227C12.0021 14.0972 12.0021 13.5696 12.3276 13.2442Z" fill="currentColor"/>
</svg>
