<svg width="100%" height="100%" viewBox="0 0 24 24" fill="none" xmlns="http://www.w3.org/2000/svg">
<path fill-rule="evenodd" clip-rule="evenodd" d="M11.8237 4.70109C11.8129 4.71139 11.7249 4.79056 11.5571 5.08761C11.35 5.45417 11.1101 5.98281 10.7535 6.77189L6.1672 16.92C5.80247 17.7271 5.55808 18.2702 5.41622 18.6776C5.30102 19.0084 5.29973 19.1298 5.29894 19.1448C5.34224 19.2856 5.4455 19.4002 5.58107 19.4579C5.59612 19.4587 5.717 19.47 6.05797 19.3898C6.47788 19.291 7.04344 19.1043 7.88398 18.8253L10.9643 17.8029C10.9762 17.799 10.9881 17.795 11 17.791C11.5 17.6245 12.1014 17.4667 13 17.7672C13.0205 17.774 13.041 17.7809 13.0615 17.7878C13.0793 17.7938 13.097 17.7997 13.1147 17.8057L16.1274 18.8142C16.9666 19.0952 17.5312 19.2832 17.9505 19.383C18.291 19.464 18.4118 19.453 18.4269 19.4523C18.5626 19.395 18.6662 19.2807 18.7099 19.14C18.7091 19.125 18.7082 19.0037 18.5942 18.6728C18.4538 18.2653 18.2113 17.7218 17.8495 16.9142L13.3068 6.77599C12.9528 5.98577 12.7145 5.45636 12.5086 5.08913C12.3417 4.79155 12.254 4.7121 12.2433 4.70177C12.1103 4.64001 11.9568 4.63977 11.8237 4.70109ZM12.0265 19.5812C12.0515 19.5807 12.0766 19.5821 12.1014 19.5853C12.1273 19.5887 12.1623 19.5959 12.4798 19.7022L15.5389 20.7263C16.3197 20.9877 16.9701 21.2055 17.4874 21.3286C17.9886 21.4479 18.5824 21.5383 19.1399 21.3211C19.8721 21.0359 20.4275 20.423 20.6396 19.6664C20.8011 19.0903 20.6529 18.5082 20.4851 18.0212C20.3118 17.5184 20.0313 16.8925 19.6946 16.141L15.112 5.91365C14.7831 5.17953 14.5084 4.56647 14.2531 4.11102C14.0046 3.66778 13.6737 3.17876 13.1444 2.91601C12.4466 2.56962 11.6272 2.5683 10.9283 2.91245C10.3982 3.1735 10.0657 3.66145 9.81577 4.1039C9.55895 4.55852 9.2823 5.17072 8.95102 5.90378L4.32452 16.141C3.98512 16.8919 3.70244 17.5174 3.52747 18.0198C3.35796 18.5066 3.2078 19.0885 3.3676 19.6653C3.57744 20.4228 4.13132 21.0375 4.86292 21.3248C5.42002 21.5436 6.01437 21.4547 6.51609 21.3366C7.03401 21.2147 7.68544 20.9985 8.46756 20.7389L11.5943 19.7011C11.9121 19.5956 11.9472 19.5885 11.973 19.5852C11.9908 19.5829 12.0087 19.5816 12.0265 19.5812Z" fill="currentColor"/>
</svg>
