<svg width="100%" height="100%" viewBox="0 0 24 24" fill="none" xmlns="http://www.w3.org/2000/svg">
<path fill-rule="evenodd" clip-rule="evenodd" d="M4 10.2C4 5.69801 7.55535 2 12 2C16.4446 2 20 5.69801 20 10.2C20 12.4965 18.9859 14.5068 17.613 16.3405C16.4671 17.871 15.0003 19.3666 13.5411 20.8543C13.2654 21.1355 12.99 21.4163 12.717 21.6971C12.5287 21.8907 12.2701 22 12 22C11.7299 22 11.4713 21.8907 11.283 21.6971C11.01 21.4163 10.7346 21.1355 10.4589 20.8543C8.99974 19.3666 7.53292 17.871 6.38702 16.3405C5.01406 14.5068 4 12.4965 4 10.2ZM9 10C9 8.34315 10.3431 7 12 7C13.6569 7 15 8.34315 15 10C15 11.6569 13.6569 13 12 13C10.3431 13 9 11.6569 9 10Z" fill="currentColor"/>
</svg>
