<svg width="100%" height="100%" viewBox="0 0 21 21" fill="none" xmlns="http://www.w3.org/2000/svg">
<path fill-rule="evenodd" clip-rule="evenodd" d="M10.5 4.5C9.25736 4.5 8.25 5.50736 8.25 6.75C8.25 7.99264 9.25736 9 10.5 9C11.7426 9 12.75 7.99264 12.75 6.75C12.75 5.50736 11.7426 4.5 10.5 4.5ZM6.75 6.75C6.75 4.67893 8.42893 3 10.5 3C12.5711 3 14.25 4.67893 14.25 6.75C14.25 8.56422 12.9617 10.0775 11.25 10.425V13.5C11.25 13.9142 10.9142 14.25 10.5 14.25C10.0858 14.25 9.75 13.9142 9.75 13.5V10.425C8.03832 10.0775 6.75 8.56422 6.75 6.75ZM8.23235 11.4001C8.32168 11.8045 8.06622 12.2049 7.66175 12.2942C6.61158 12.5261 5.77597 12.8733 5.22267 13.262C4.65604 13.6601 4.5 14.0118 4.5 14.25C4.5 14.4202 4.57447 14.6388 4.82374 14.9007C5.07669 15.1665 5.47816 15.44 6.03163 15.686C7.13668 16.1771 8.71586 16.5 10.5 16.5C12.2841 16.5 13.8633 16.1771 14.9684 15.686C15.5218 15.44 15.9233 15.1665 16.1763 14.9007C16.4255 14.6388 16.5 14.4202 16.5 14.25C16.5 14.0118 16.344 13.6601 15.7773 13.262C15.224 12.8733 14.3884 12.5261 13.3382 12.2942C12.9338 12.2049 12.6783 11.8045 12.7677 11.4001C12.857 10.9956 13.2573 10.7402 13.6618 10.8295C14.8342 11.0884 15.8735 11.4964 16.6396 12.0346C17.3923 12.5634 18 13.3102 18 14.25C18 14.9082 17.6967 15.4789 17.2628 15.9348C16.8327 16.3868 16.2456 16.7598 15.5776 17.0567C14.2396 17.6513 12.4438 18 10.5 18C8.55622 18 6.7604 17.6513 5.42243 17.0567C4.75439 16.7598 4.16734 16.3868 3.73715 15.9348C3.30329 15.4789 3 14.9082 3 14.25C3 13.3102 3.60767 12.5634 4.3604 12.0346C5.12646 11.4964 6.16584 11.0884 7.33825 10.8295C7.74271 10.7402 8.14302 10.9956 8.23235 11.4001Z" fill="currentColor"/>
</svg>
