<svg width="100%" height="100%" viewBox="0 0 21 21" fill="none" xmlns="http://www.w3.org/2000/svg">
<path d="M11.317 10.3249V13.4913C11.317 13.9178 10.9712 14.2635 10.5447 14.2635C10.1182 14.2635 9.77241 13.9178 9.77241 13.4913V10.3249C8.00989 9.96715 6.68331 8.40889 6.68331 6.54078C6.68331 6.20745 6.72555 5.88398 6.80496 5.57544L8.27821 7.02346C8.47342 7.94463 9.21601 8.66364 10.1496 8.82405L11.5967 10.2571C11.5048 10.2831 11.4115 10.3057 11.317 10.3249Z" fill="currentColor"/>
<path d="M8.20969 11.329C8.30167 11.7455 8.03862 12.1576 7.62214 12.2496C6.54078 12.4885 5.68035 12.8459 5.11061 13.2462C4.52715 13.6561 4.36648 14.0183 4.36648 14.2635C4.36648 14.4388 4.44317 14.6638 4.69984 14.9336C4.9603 15.2072 5.3737 15.4888 5.94361 15.7421C7.08148 16.2479 8.70756 16.5804 10.5447 16.5804C12.3818 16.5804 14.0079 16.2479 15.1458 15.7421C15.2589 15.6919 15.3658 15.6405 15.4666 15.5883L16.7229 16.6422C16.433 16.8321 16.1132 17.0024 15.7731 17.1536C14.3954 17.7659 12.5462 18.1249 10.5447 18.1249C8.54318 18.1249 6.69401 17.7659 5.3163 17.1536C4.62842 16.8478 4.02394 16.4638 3.58098 15.9983C3.13422 15.5289 2.82193 14.9413 2.82193 14.2635C2.82193 13.2959 3.44765 12.5268 4.22273 11.9823C5.01154 11.4282 6.0818 11.0081 7.28903 10.7414C7.70551 10.6494 8.1177 10.9125 8.20969 11.329Z" fill="currentColor"/>
<path d="M2.73574 2.11062C3.0499 1.79646 3.55925 1.79646 3.87341 2.11062L9.15133 7.38854C9.17822 7.41202 9.2037 7.43745 9.22756 7.46477L14.5915 12.8287C14.6318 12.8618 14.6682 12.8985 14.7006 12.9379L18.3536 16.5908C18.6677 16.905 18.6677 17.4143 18.3536 17.7285C18.0394 18.0426 17.5301 18.0426 17.2159 17.7285L14.1851 14.6977L13.0435 13.5561L8.51702 9.02957L7.37544 7.88799L6.23564 6.74819L5.09681 5.60936L2.73574 3.24829C2.42158 2.93413 2.42158 2.42478 2.73574 2.11062Z" fill="currentColor"/>
<path fill-rule="evenodd" clip-rule="evenodd" d="M10.2861 4.36892C10.0047 4.36892 9.73404 4.41233 9.48004 4.4928C9.09886 4.61356 8.65054 4.53148 8.43143 4.197C8.21231 3.86252 8.30431 3.40693 8.67205 3.2499C9.16804 3.03811 9.71393 2.9209 10.2861 2.9209C12.5577 2.9209 14.3992 4.76239 14.3992 7.03398C14.3992 7.64023 14.2677 8.21683 14.0315 8.73582C13.8659 9.09978 13.4083 9.18115 13.0791 8.9543C12.7498 8.72746 12.6781 8.27737 12.8079 7.89914C12.9008 7.62816 12.9512 7.33728 12.9512 7.03398C12.9512 5.56211 11.758 4.36892 10.2861 4.36892Z" fill="currentColor"/>
</svg>
