<svg width="100%" height="100%" viewBox="0 0 20 20" fill="none" xmlns="http://www.w3.org/2000/svg">
<path fill-rule="evenodd" clip-rule="evenodd" d="M10.0003 3.33366C9.1297 3.33366 8.33366 4.10299 8.33366 5.16699C8.33366 5.6556 8.53817 6.15107 8.95721 6.73147C9.24627 7.13182 9.60042 7.52497 10.0003 7.95181C10.4002 7.52497 10.7544 7.13182 11.0434 6.73147C11.4625 6.15107 11.667 5.6556 11.667 5.16699C11.667 4.10299 10.871 3.33366 10.0003 3.33366ZM6.66699 5.16699C6.66699 3.28547 8.10953 1.66699 10.0003 1.66699C11.8911 1.66699 13.3337 3.28547 13.3337 5.16699C13.3337 6.15114 12.9132 6.98901 12.3947 7.70709C11.9657 8.30134 11.4162 8.88208 10.8957 9.43222C10.7986 9.5349 10.7024 9.63651 10.6083 9.73694C10.4507 9.90499 10.2307 10.0003 10.0003 10.0003C9.76999 10.0003 9.54992 9.90499 9.39238 9.73694C9.29822 9.63651 9.20208 9.5349 9.10494 9.43222C8.58444 8.88208 8.03499 8.30134 7.60594 7.70709C7.08748 6.98901 6.66699 6.15114 6.66699 5.16699ZM2.06222 2.62478C2.3079 2.47294 2.61468 2.45914 2.873 2.5883L4.53967 3.42164C4.95132 3.62746 5.11817 4.12802 4.91235 4.53967C4.70652 4.95132 4.20596 5.11817 3.79431 4.91235L3.33366 4.68202V13.652L6.66699 15.3186V11.667C6.66699 11.2068 7.04009 10.8337 7.50033 10.8337C7.96056 10.8337 8.33366 11.2068 8.33366 11.667V15.3186L11.667 13.652V11.667C11.667 11.2068 12.0401 10.8337 12.5003 10.8337C12.9606 10.8337 13.3337 11.2068 13.3337 11.667V13.652L16.667 15.3186V6.34869L15.461 5.74568C15.0493 5.53986 14.8825 5.0393 15.0883 4.62765C15.2941 4.216 15.7947 4.04915 16.2063 4.25497L17.873 5.0883C18.1553 5.22946 18.3337 5.51802 18.3337 5.83366V16.667C18.3337 16.9558 18.1841 17.224 17.9384 17.3759C17.6928 17.5277 17.386 17.5415 17.1276 17.4123L12.5003 15.0987L7.873 17.4123C7.6384 17.5297 7.36225 17.5297 7.12765 17.4123L2.12765 14.9123C1.84533 14.7712 1.66699 14.4826 1.66699 14.167V3.33366C1.66699 3.04484 1.81654 2.77662 2.06222 2.62478ZM9.16699 5.00033C9.16699 4.54009 9.54009 4.16699 10.0003 4.16699H10.0087C10.4689 4.16699 10.842 4.54009 10.842 5.00033C10.842 5.46056 10.4689 5.83366 10.0087 5.83366H10.0003C9.54009 5.83366 9.16699 5.46056 9.16699 5.00033Z" fill="currentColor"/>
</svg>
