<svg width="100%" height="100%" viewBox="0 0 20 21" fill="none" xmlns="http://www.w3.org/2000/svg">
<path fill-rule="evenodd" clip-rule="evenodd" d="M2.5 3.83333C2.5 3.3731 2.8731 3 3.33333 3H7.08333C7.54357 3 7.91667 3.3731 7.91667 3.83333C7.91667 4.29357 7.54357 4.66667 7.08333 4.66667H5.34518L8.92259 8.24408C9.24803 8.56951 9.24803 9.09715 8.92259 9.42259C8.59715 9.74803 8.06951 9.74803 7.74408 9.42259L4.16667 5.84518V7.58333C4.16667 8.04357 3.79357 8.41667 3.33333 8.41667C2.8731 8.41667 2.5 8.04357 2.5 7.58333V3.83333ZM14.6548 4.66667H12.9167C12.4564 4.66667 12.0833 4.29357 12.0833 3.83333C12.0833 3.3731 12.4564 3 12.9167 3H16.6667C17.1269 3 17.5 3.3731 17.5 3.83333V7.58333C17.5 8.04357 17.1269 8.41667 16.6667 8.41667C16.2064 8.41667 15.8333 8.04357 15.8333 7.58333V5.84518L12.2559 9.42259C11.9305 9.74803 11.4028 9.74803 11.0774 9.42259C10.752 9.09715 10.752 8.56951 11.0774 8.24408L14.6548 4.66667ZM8.92259 11.5774C9.24803 11.9028 9.24803 12.4305 8.92259 12.7559L5.34518 16.3333H7.08333C7.54357 16.3333 7.91667 16.7064 7.91667 17.1667C7.91667 17.6269 7.54357 18 7.08333 18H3.33333C3.11232 18 2.90036 17.9122 2.74408 17.7559C2.5878 17.5996 2.5 17.3877 2.5 17.1667L2.5 13.4167C2.5 12.9564 2.8731 12.5833 3.33333 12.5833C3.79357 12.5833 4.16667 12.9564 4.16667 13.4167L4.16667 15.1548L7.74408 11.5774C8.06951 11.252 8.59715 11.252 8.92259 11.5774ZM11.0774 11.5774C11.4028 11.252 11.9305 11.252 12.2559 11.5774L15.8333 15.1548V13.4167C15.8333 12.9564 16.2064 12.5833 16.6667 12.5833C17.1269 12.5833 17.5 12.9564 17.5 13.4167V17.1667C17.5 17.6269 17.1269 18 16.6667 18H12.9167C12.4564 18 12.0833 17.6269 12.0833 17.1667C12.0833 16.7064 12.4564 16.3333 12.9167 16.3333H14.6548L11.0774 12.7559C10.752 12.4305 10.752 11.9028 11.0774 11.5774Z" fill="currentColor"/>
</svg>
