<svg width="100%" height="100%" viewBox="0 0 22 22" fill="none" xmlns="http://www.w3.org/2000/svg">
<path d="M6.66671 7.66683C6.40149 7.66683 6.14714 7.56147 5.9596 7.37394C5.77206 7.1864 5.66671 6.93205 5.66671 6.66683C5.66671 6.40161 5.77206 6.14726 5.9596 5.95972C6.14714 5.77219 6.40149 5.66683 6.66671 5.66683C6.93192 5.66683 7.18628 5.77219 7.37381 5.95972C7.56135 6.14726 7.66671 6.40161 7.66671 6.66683C7.66671 6.93205 7.56135 7.1864 7.37381 7.37394C7.18628 7.56147 6.93192 7.66683 6.66671 7.66683ZM17.2734 10.7202L11.2734 4.72016C11.0334 4.48016 10.7 4.3335 10.3334 4.3335H5.66671C4.92671 4.3335 4.33337 4.92683 4.33337 5.66683V10.3335C4.33337 10.7002 4.48004 11.0335 4.72671 11.2735L10.72 17.2735C10.9667 17.5135 11.3 17.6668 11.6667 17.6668C12.0334 17.6668 12.3667 17.5135 12.6067 17.2735L17.2734 12.6068C17.52 12.3668 17.6667 12.0335 17.6667 11.6668C17.6667 11.2935 17.5134 10.9602 17.2734 10.7202Z" fill="currentColor"/>
</svg>
