<svg width="100%" height="100%" viewBox="0 0 16 16" fill="none" xmlns="http://www.w3.org/2000/svg">
<path d="M3.33276 6C3.70095 6 3.99976 6.2988 3.99976 6.66699V8C3.99976 10.2091 5.79069 11.9999 7.99976 12C9.10453 12 10.104 11.5512 10.8279 10.8271L11.7703 11.7695C10.9531 12.5869 9.87312 13.1415 8.66675 13.292V14H10.6667C11.0349 14.0001 11.3328 14.2989 11.3328 14.667C11.3326 15.035 11.0348 15.3329 10.6667 15.333H5.33276C4.9649 15.3327 4.66692 15.0349 4.66675 14.667C4.66675 14.299 4.96479 14.0003 5.33276 14H7.33276V13.292C4.70212 12.9637 2.66675 10.7196 2.66675 8V6.66699C2.66675 6.29896 2.96479 6.00026 3.33276 6ZM6.66675 6.66602V8C6.66675 8.73633 7.26345 9.33292 7.99976 9.33301C8.36791 9.33301 8.70086 9.18362 8.94214 8.94238L9.8855 9.88477C9.40289 10.3676 8.73634 10.667 7.99976 10.667C6.52707 10.6669 5.33276 9.47271 5.33276 8V5.33203L6.66675 6.66602ZM12.6667 6C13.0349 6.00009 13.3328 6.29886 13.3328 6.66699V8C13.3328 8.86488 13.1259 9.68094 12.7605 10.4033L11.7498 9.39258C11.9109 8.95881 11.9998 8.48987 11.9998 8V6.66699C11.9998 6.2988 12.2986 6 12.6667 6ZM7.99976 0.666992C9.47241 0.666992 10.6666 1.8604 10.6667 3.33301V8C10.6667 8.09873 10.6596 8.19604 10.6492 8.29199L9.33276 6.97559V3.33301C9.33259 2.59678 8.73603 2 7.99976 2C7.26356 2.00008 6.66692 2.59683 6.66675 3.33301V4.30957L5.3562 2.99902C5.52078 1.68424 6.64038 0.667069 7.99976 0.666992Z" fill="currentColor"/>
<path d="M1.52851 1.52858C1.78886 1.26823 2.21097 1.26823 2.47132 1.52858L14.4713 13.5286C14.7317 13.7889 14.7317 14.211 14.4713 14.4714C14.211 14.7317 13.7889 14.7317 13.5285 14.4714L11.421 12.3639L5.33325 6.27612L1.52851 2.47138C1.26816 2.21103 1.26816 1.78892 1.52851 1.52858Z" fill="currentColor"/>
</svg>
