<svg width="100%" height="100%" viewBox="0 0 21 21" fill="none" xmlns="http://www.w3.org/2000/svg">
<path fill-rule="evenodd" clip-rule="evenodd" d="M3.24408 3.24408C3.56951 2.91864 4.09715 2.91864 4.42259 3.24408L8 6.82149V5.08333C8 4.6231 8.3731 4.25 8.83333 4.25C9.29357 4.25 9.66667 4.6231 9.66667 5.08333V8.83333C9.66667 9.29357 9.29357 9.66667 8.83333 9.66667H5.08333C4.6231 9.66667 4.25 9.29357 4.25 8.83333C4.25 8.3731 4.6231 8 5.08333 8H6.82149L3.24408 4.42259C2.91864 4.09715 2.91864 3.56951 3.24408 3.24408ZM17.7559 3.24408C18.0814 3.56951 18.0814 4.09715 17.7559 4.42259L14.1785 8H15.9167C16.3769 8 16.75 8.3731 16.75 8.83333C16.75 9.29357 16.3769 9.66667 15.9167 9.66667H12.1667C11.7064 9.66667 11.3333 9.29357 11.3333 8.83333V5.08333C11.3333 4.6231 11.7064 4.25 12.1667 4.25C12.6269 4.25 13 4.6231 13 5.08333V6.82149L16.5774 3.24408C16.9028 2.91864 17.4305 2.91864 17.7559 3.24408ZM4.25 12.1667C4.25 11.7064 4.6231 11.3333 5.08333 11.3333H8.83333C9.29357 11.3333 9.66667 11.7064 9.66667 12.1667V15.9167C9.66667 16.3769 9.29357 16.75 8.83333 16.75C8.3731 16.75 8 16.3769 8 15.9167V14.1785L4.42259 17.7559C4.09715 18.0814 3.56951 18.0814 3.24408 17.7559C2.91864 17.4305 2.91864 16.9028 3.24408 16.5774L6.82149 13H5.08333C4.6231 13 4.25 12.6269 4.25 12.1667ZM11.3333 12.1667C11.3333 11.7064 11.7064 11.3333 12.1667 11.3333H15.9167C16.3769 11.3333 16.75 11.7064 16.75 12.1667C16.75 12.6269 16.3769 13 15.9167 13H14.1785L17.7559 16.5774C18.0814 16.9028 18.0814 17.4305 17.7559 17.7559C17.4305 18.0814 16.9028 18.0814 16.5774 17.7559L13 14.1785V15.9167C13 16.3769 12.6269 16.75 12.1667 16.75C11.7064 16.75 11.3333 16.3769 11.3333 15.9167V12.1667Z" fill="currentColor"/>
</svg>
