<svg width="100%" height="100%" viewBox="0 0 20 20" fill="none" xmlns="http://www.w3.org/2000/svg">
<path fill-rule="evenodd" clip-rule="evenodd" d="M5.13487 1.66699H14.8658C15.3051 1.66698 15.684 1.66697 15.9962 1.69247C16.3256 1.71939 16.6533 1.77882 16.9686 1.93948C17.439 2.17916 17.8215 2.56161 18.0612 3.03202C18.2218 3.34733 18.2813 3.67502 18.3082 4.00447C18.3337 4.31661 18.3337 4.69557 18.3337 5.13486V11.5325C18.3337 11.9717 18.3337 12.3507 18.3082 12.6629C18.2813 12.9923 18.2218 13.32 18.0612 13.6353C17.8215 14.1057 17.439 14.4882 16.9686 14.7278C16.6533 14.8885 16.3256 14.9479 15.9962 14.9749C15.684 15.0004 15.3051 15.0003 14.8658 15.0003H13.3337V16.667H14.167C14.6272 16.667 15.0003 17.0401 15.0003 17.5003C15.0003 17.9606 14.6272 18.3337 14.167 18.3337H5.83366C5.37342 18.3337 5.00033 17.9606 5.00033 17.5003C5.00033 17.0401 5.37342 16.667 5.83366 16.667H6.66699V15.0003H5.13489C4.69559 15.0003 4.31662 15.0004 4.00447 14.9749C3.67502 14.9479 3.34733 14.8885 3.03202 14.7278C2.56161 14.4882 2.17916 14.1057 1.93948 13.6353C1.77882 13.32 1.71939 12.9923 1.69247 12.6629C1.66697 12.3507 1.66698 11.9717 1.66699 11.5324V5.13487C1.66698 4.69558 1.66697 4.31661 1.69247 4.00447C1.71939 3.67502 1.77882 3.34733 1.93948 3.03202C2.17916 2.56161 2.56161 2.17916 3.03202 1.93948C3.34733 1.77882 3.67502 1.71939 4.00447 1.69247C4.31661 1.66697 4.69558 1.66698 5.13487 1.66699ZM8.33366 15.0003V16.667H11.667V15.0003H8.33366ZM5.16699 13.3337C4.68653 13.3337 4.3763 13.333 4.14019 13.3137C3.9138 13.2952 3.82987 13.2638 3.78867 13.2428C3.63187 13.1629 3.50438 13.0355 3.42449 12.8787C3.40349 12.8375 3.3721 12.7535 3.3536 12.5271C3.33431 12.291 3.33366 11.9808 3.33366 11.5003V5.16699C3.33366 4.68653 3.33431 4.3763 3.3536 4.14019C3.3721 3.9138 3.40349 3.82987 3.42449 3.78867C3.50438 3.63187 3.63187 3.50438 3.78867 3.42449C3.82987 3.40349 3.9138 3.3721 4.14019 3.3536C4.3763 3.33431 4.68653 3.33366 5.16699 3.33366H14.8337C15.3141 3.33366 15.6244 3.33431 15.8605 3.3536C16.0869 3.3721 16.1708 3.40349 16.212 3.42449C16.3688 3.50438 16.4963 3.63187 16.5762 3.78867C16.5972 3.82987 16.6286 3.9138 16.6471 4.14019C16.6663 4.37631 16.667 4.68653 16.667 5.16699V11.5003C16.667 11.9808 16.6663 12.291 16.6471 12.5271C16.6286 12.7535 16.5972 12.8375 16.5762 12.8787C16.4963 13.0355 16.3688 13.1629 16.212 13.2428C16.1708 13.2638 16.0869 13.2952 15.8605 13.3137C15.6244 13.333 15.3141 13.3337 14.8337 13.3337H5.16699Z" fill="currentColor"/>
</svg>
