<svg width="100%" height="100%" viewBox="0 0 20 20" fill="none" xmlns="http://www.w3.org/2000/svg">
<path fill-rule="evenodd" clip-rule="evenodd" d="M18.039 1.86448C18.2259 2.02282 18.3337 2.25537 18.3337 2.50033V5.82001C18.3338 5.82981 18.3338 5.83958 18.3337 5.84933V14.167C18.3337 14.9926 17.8317 15.638 17.2303 16.0389C16.6231 16.4437 15.8323 16.667 15.0003 16.667C14.1684 16.667 13.3775 16.4437 12.7703 16.0389C12.1689 15.638 11.667 14.9926 11.667 14.167C11.667 13.3414 12.1689 12.696 12.7703 12.2951C13.3775 11.8903 14.1684 11.667 15.0003 11.667C15.5941 11.667 16.1669 11.7807 16.667 11.993V6.81738L8.33366 8.20627V15.8337C8.33366 16.6592 7.83174 17.3046 7.23034 17.7056C6.62312 18.1104 5.83226 18.3337 5.00033 18.3337C4.1684 18.3337 3.37753 18.1104 2.77031 17.7056C2.16891 17.3046 1.66699 16.6592 1.66699 15.8337C1.66699 15.0081 2.16891 14.3627 2.77031 13.9618C3.37753 13.557 4.1684 13.3337 5.00033 13.3337C5.59408 13.3337 6.16691 13.4474 6.66699 13.6597V7.51403C6.66682 7.5042 6.66682 7.4944 6.66699 7.48463V4.167C6.66699 3.75963 6.9615 3.41197 7.36333 3.345L17.3633 1.67834C17.605 1.63807 17.8521 1.70615 18.039 1.86448ZM8.33366 6.51661L16.667 5.12773V3.48405L8.33366 4.87294V6.51661ZM6.66699 15.8337C6.66699 15.7387 6.60927 15.5508 6.30584 15.3485C6.00824 15.1501 5.54911 15.0003 5.00033 15.0003C4.45154 15.0003 3.99241 15.1501 3.69481 15.3485C3.39138 15.5508 3.33366 15.7387 3.33366 15.8337C3.33366 15.9286 3.39138 16.1165 3.69481 16.3188C3.99241 16.5172 4.45154 16.667 5.00033 16.667C5.54911 16.667 6.00824 16.5172 6.30584 16.3188C6.60927 16.1165 6.66699 15.9286 6.66699 15.8337ZM16.667 14.167C16.667 14.0721 16.6093 13.8841 16.3058 13.6819C16.0082 13.4835 15.5491 13.3337 15.0003 13.3337C14.4515 13.3337 13.9924 13.4835 13.6948 13.6819C13.3914 13.8841 13.3337 14.0721 13.3337 14.167C13.3337 14.2619 13.3914 14.4499 13.6948 14.6521C13.9924 14.8505 14.4515 15.0003 15.0003 15.0003C15.5491 15.0003 16.0082 14.8505 16.3058 14.6521C16.6093 14.4499 16.667 14.2619 16.667 14.167Z" fill="currentColor"/>
</svg>
