<svg width="100%" height="100%" viewBox="0 0 24 24" fill="none" xmlns="http://www.w3.org/2000/svg">
<path fill-rule="evenodd" clip-rule="evenodd" d="M6.11997 13.18C5.96997 12.94 5.83497 12.695 5.71997 12.44C5.25997 11.475 5 10.395 5 9.24998C5 7.47998 5.615 5.85498 6.635 4.59998C7.915 3.00998 9.84501 2 12 2C12.77 2 13.51 2.13 14.2 2.37C15.995 2.98 17.465 4.325 18.285 6.06C18.745 7.025 19 8.105 19 9.25C19 10.7 18.585 12.045 17.88 13.18H17.885C17.885 13.18 16 15.945 14.415 18C13.045 19.775 12.645 21.295 12.53 22.03C12.485 22.3 12.265 22.5 12 22.5C11.735 22.5 11.515 22.3 11.47 22.03C11.355 21.295 10.955 19.775 9.58501 18L6.11997 13.18ZM9.5 12V7H11L13 9.5V7H14.5V12H13L11 9.5V12H9.5Z" fill="currentColor"/>
</svg>
