<svg width="100%" height="100%" viewBox="0 0 24 24" fill="none" xmlns="http://www.w3.org/2000/svg">
    <path d="M18.0016 2H6.00109V4.12163H18.0016V2Z" fill="currentColor"/>
    <path d="M18.0016 17.765H6.00109V19.8866H18.0016V17.765Z" fill="currentColor"/>
    <path d="M19.8123 22H17.9989V19.8784H19.8123C19.8481 19.8784 19.8784 19.8481 19.8784 19.8123V6.30931C19.8784 6.27353 19.8481 6.24326 19.8123 6.24326H17.9989V4.12163H19.8123C21.0176 4.12163 22 5.10127 22 6.30931V19.8123C22 21.0176 21.0176 22 19.8123 22Z" fill="currentColor"/>
    <path d="M6.0011 22H4.18767C2.98239 22 2 21.0176 2 19.8123V6.30931C2 5.10402 2.98239 4.12163 4.18767 4.12163L6.00109 4.12163L6.0011 6.24326H4.18767C4.1519 6.24326 4.12163 6.27353 4.12163 6.30931V19.8123C4.12163 19.8481 4.1519 19.8784 4.18767 19.8784H6.0011V22Z" fill="currentColor"/>
</svg>
