<svg width="100%" height="100%" viewBox="0 0 24 24" fill="none" xmlns="http://www.w3.org/2000/svg">
<path fill-rule="evenodd" clip-rule="evenodd" d="M14.9576 3.46027C14.7949 3.50332 14.5739 3.58267 14.195 3.72047L10.6762 5.00003H15V4.28435C15 3.88111 14.999 3.64628 14.9839 3.47867C14.9831 3.46994 14.9823 3.46177 14.9815 3.45415C14.974 3.456 14.9661 3.45803 14.9576 3.46027ZM17 5.01765L17 4.24533C17 3.89476 17.0001 3.56755 16.9758 3.29874C16.9502 3.01596 16.8895 2.66525 16.6774 2.3386C16.3952 1.90392 15.9553 1.59577 15.4503 1.47908C15.0708 1.39139 14.7205 1.45419 14.446 1.52682C14.1851 1.59586 13.8776 1.70771 13.5481 1.82755L6.23807 4.48576C6.20127 4.49914 6.16442 4.51244 6.12755 4.52575C5.67205 4.69021 5.21515 4.85517 4.86024 5.16356C4.55122 5.43207 4.31286 5.77237 4.16612 6.15454C3.99759 6.59348 3.9987 7.07925 3.99981 7.56352C3.9999 7.60272 3.99999 7.6419 3.99999 7.68105V9.08486C3.99999 9.11023 3.99999 9.13577 3.99999 9.16148V17.8386C3.99998 18.3657 3.99996 18.8205 4.03056 19.1951C4.06286 19.5904 4.13418 19.9836 4.32697 20.362C4.61459 20.9265 5.07354 21.3854 5.63802 21.673C6.0164 21.8658 6.40962 21.9372 6.80497 21.9695C7.17953 22.0001 7.63429 22 8.16143 22H15.8386C16.3657 22 16.8205 22.0001 17.195 21.9695C17.5904 21.9372 17.9836 21.8658 18.362 21.673C18.9265 21.3854 19.3854 20.9265 19.673 20.362C19.8658 19.9836 19.9371 19.5904 19.9694 19.1951C20 18.8205 20 18.3657 20 17.8386V9.16151C20 8.63435 20 8.17958 19.9694 7.805C19.9371 7.40966 19.8658 7.01644 19.673 6.63806C19.3854 6.07357 18.9265 5.61463 18.362 5.32701C17.9836 5.13422 17.5904 5.0629 17.195 5.0306C17.1323 5.02547 17.0672 5.0212 17 5.01765ZM7.99999 10C7.99999 9.44774 8.44771 9.00003 8.99999 9.00003H15C15.5523 9.00003 16 9.44774 16 10C16 10.5523 15.5523 11 15 11H8.99999C8.44771 11 7.99999 10.5523 7.99999 10ZM7.99999 13.5C7.99999 12.9477 8.44771 12.5 8.99999 12.5H15C15.5523 12.5 16 12.9477 16 13.5C16 14.0523 15.5523 14.5 15 14.5H8.99999C8.44771 14.5 7.99999 14.0523 7.99999 13.5ZM7.99999 17C7.99999 16.4477 8.44771 16 8.99999 16H15C15.5523 16 16 16.4477 16 17C16 17.5523 15.5523 18 15 18H8.99999C8.44771 18 7.99999 17.5523 7.99999 17Z" fill="currentColor"/>
</svg>
