<svg width="100%" height="100%" viewBox="0 0 78 78" fill="none" xmlns="http://www.w3.org/2000/svg">
<path fill-rule="evenodd" clip-rule="evenodd" d="M7.4906 39.25C7.4906 21.871 21.7654 7.75 39.4148 7.75C52.3702 7.75 63.5146 15.3627 68.5203 26.2888L66.0574 24.7907C65.3497 24.3601 64.4269 24.5849 63.9964 25.2927C63.5658 26.0004 63.7906 26.9232 64.4984 27.3537L70.1042 30.7637C70.812 31.1943 71.7348 30.9695 72.1653 30.2617L75.5753 24.6559C76.0059 23.9481 75.7811 23.0253 75.0733 22.5948C74.3656 22.1643 73.4428 22.389 73.0123 23.0968L71.4948 25.5914C66.1361 13.3251 53.7845 4.75 39.4148 4.75C20.1448 4.75 4.49059 20.1782 4.49059 39.25C4.49059 40.0784 5.16217 40.75 5.99059 40.75C6.81902 40.75 7.4906 40.0784 7.4906 39.25ZM28.9998 30.9C28.9998 25.4324 33.477 21 38.9998 21C44.5227 21 48.9998 25.4324 48.9998 30.9V32.7981C49.4718 32.9005 49.9239 33.0495 50.3598 33.2694C51.6142 33.9021 52.634 34.9118 53.2732 36.1537C53.6853 36.9545 53.8496 37.807 53.9262 38.7345C53.9999 39.6274 53.9998 40.7236 53.9998 42.0518V44.4982C53.9998 45.8264 53.9999 46.9225 53.9262 47.8155C53.8496 48.743 53.6853 49.5955 53.2732 50.3963C52.634 51.6382 51.6142 52.6479 50.3598 53.2806C49.5509 53.6887 48.6897 53.8513 47.7529 53.9271C46.8509 54 45.7436 54 44.402 54H33.5976C32.256 54 31.1488 54 30.2468 53.9271C29.3099 53.8513 28.4488 53.6887 27.6399 53.2806C26.3855 52.6479 25.3656 51.6382 24.7264 50.3963C24.3143 49.5955 24.15 48.743 24.0735 47.8155C23.9998 46.9225 23.9998 45.8263 23.9998 44.4981V42.0519C23.9998 40.7237 23.9998 39.6275 24.0735 38.7345C24.15 37.807 24.3143 36.9545 24.7264 36.1537C25.3656 34.9118 26.3855 33.9021 27.6399 33.2694C28.0757 33.0495 28.5279 32.9005 28.9998 32.7981V30.9ZM32.3332 32.5527C32.7343 32.55 33.1621 32.55 33.6175 32.55H44.3821C44.8376 32.55 45.2653 32.55 45.6665 32.5527V30.9C45.6665 27.2549 42.6817 24.3 38.9998 24.3C35.3179 24.3 32.3332 27.2549 32.3332 30.9V32.5527ZM33.6665 35.85C32.4014 35.85 31.4914 35.8507 30.7681 35.8944C29.8712 35.9486 29.4448 36.0626 29.1532 36.2097C28.526 36.5261 28.016 37.0309 27.6965 37.6518C27.5636 37.9099 27.4554 38.2798 27.3957 39.0032C27.3344 39.7459 27.3332 40.7066 27.3332 42.12V44.43C27.3332 45.8434 27.3344 46.8041 27.3957 47.5468C27.4554 48.2702 27.5636 48.6401 27.6965 48.8982C28.016 49.5191 28.526 50.0239 29.1532 50.3403C29.4139 50.4718 29.7875 50.5789 30.5182 50.638C31.2684 50.6987 32.2389 50.7 33.6665 50.7H44.3332C45.7608 50.7 46.7313 50.6987 47.4814 50.638C48.2121 50.5789 48.5858 50.4718 48.8465 50.3403C49.4737 50.0239 49.9836 49.5191 50.3032 48.8982C50.436 48.6401 50.5442 48.2702 50.6039 47.5468C50.6652 46.8041 50.6665 45.8434 50.6665 44.43V42.12C50.6665 40.7066 50.6652 39.7459 50.6039 39.0032C50.5442 38.2798 50.436 37.9099 50.3032 37.6518C49.9836 37.0309 49.4737 36.5261 48.8465 36.2097C48.5548 36.0626 48.1285 35.9486 47.2316 35.8944C46.5082 35.8507 45.5982 35.85 44.3332 35.85H33.6665ZM38.9998 39.975C39.9203 39.975 40.6665 40.7137 40.6665 41.625V44.925C40.6665 45.8363 39.9203 46.575 38.9998 46.575C38.0793 46.575 37.3332 45.8363 37.3332 44.925V41.625C37.3332 40.7137 38.0793 39.975 38.9998 39.975ZM38.5663 70.7499C56.2157 70.7499 70.4905 56.6288 70.4905 39.2499C70.4905 38.4214 71.1621 37.7499 71.9905 37.7499C72.8189 37.7499 73.4905 38.4214 73.4905 39.2499C73.4905 58.3217 57.8363 73.7499 38.5663 73.7499C24.564 73.7499 12.4779 65.6076 6.91096 53.8419L6.02115 56.821C5.78406 57.6148 4.94838 58.066 4.1546 57.8289C3.36083 57.5919 2.90954 56.7562 3.14663 55.9624L5.01556 49.7052C5.25265 48.9114 6.08833 48.4601 6.88211 48.6972L13.1393 50.5662C13.9331 50.8032 14.3844 51.6389 14.1473 52.4327C13.9102 53.2265 13.0745 53.6778 12.2807 53.4407L9.67146 52.6613C14.7743 63.3457 25.7896 70.7499 38.5663 70.7499Z" fill="currentColor"/>
</svg>
