<svg width="100%" height="100%" viewBox="0 0 16 16" fill="none" xmlns="http://www.w3.org/2000/svg">
<path fill-rule="evenodd" clip-rule="evenodd" d="M13.0215 2.86404C12.7612 2.6037 12.3391 2.6037 12.0787 2.86405L11.2761 3.66663L12.219 4.60944L13.0215 3.80685C13.2819 3.5465 13.2819 3.12439 13.0215 2.86404ZM13.9644 4.74966C14.7454 3.96861 14.7454 2.70228 13.9644 1.92124C13.1833 1.14019 11.917 1.14019 11.1359 1.92124L9.86208 3.19508L3.37059 9.68657C3.35416 9.703 3.33792 9.71923 3.32187 9.73529C2.80855 10.2485 2.48581 10.5712 2.23312 10.9466C2.00927 11.2793 1.82921 11.6394 1.69741 12.0181C1.54864 12.4455 1.48415 12.8973 1.38158 13.6159C1.37837 13.6383 1.37512 13.6611 1.37184 13.6841L1.3402 13.9055C1.30958 14.1199 1.38499 14.3358 1.54244 14.4845C1.69988 14.6332 1.91974 14.6961 2.13202 14.6533L2.51838 14.5753C3.1641 14.4451 3.57016 14.3632 3.95366 14.2123C4.29351 14.0785 4.61648 13.9053 4.91595 13.6962C5.25387 13.4603 5.54672 13.1674 6.01245 12.7016C6.02697 12.687 6.04167 12.6723 6.05653 12.6575L13.9644 4.74966ZM11.2761 5.55225L10.3333 4.60944L4.3134 10.6294C3.73579 11.207 3.51118 11.4356 3.3393 11.691C3.1794 11.9287 3.05079 12.1859 2.95665 12.4564C2.89271 12.64 2.84995 12.8342 2.798 13.1561C3.11078 13.0885 3.29318 13.0394 3.46532 12.9716C3.70806 12.8761 3.93876 12.7523 4.15266 12.603C4.38256 12.4425 4.58979 12.2386 5.11373 11.7147L11.2761 5.55225Z" fill="currentColor"/>
</svg>
