<svg width="100%" height="100%" viewBox="0 0 20 20" fill="none" xmlns="http://www.w3.org/2000/svg">
<path fill-rule="evenodd" clip-rule="evenodd" d="M13.9199 2.40167C14.8962 1.42536 16.4791 1.42535 17.4554 2.40167C18.4317 3.37798 18.4317 4.96089 17.4554 5.9372L11.7371 11.6555C11.7185 11.6741 11.7002 11.6925 11.682 11.7106C11.0999 12.2929 10.7338 12.659 10.3114 12.954C9.93706 13.2153 9.53335 13.4318 9.10853 13.599C8.62916 13.7877 8.12162 13.8901 7.31449 14.0528C7.28932 14.0579 7.26386 14.063 7.23809 14.0682L6.83149 14.1503C6.56614 14.2038 6.29131 14.1251 6.0945 13.9393C5.8977 13.7534 5.80343 13.4835 5.84171 13.2156L5.88125 12.9388C5.88536 12.91 5.88942 12.8816 5.89343 12.8535C6.02164 11.9553 6.10225 11.3905 6.28822 10.8562C6.45297 10.3829 6.67804 9.93276 6.95786 9.51695C7.27371 9.0476 7.67715 8.64426 8.31879 8.00276C8.33886 7.9827 8.35916 7.9624 8.3797 7.94187L13.9199 2.40167ZM12.9167 5.76192L9.55821 9.12038C8.83619 9.8424 8.55544 10.1282 8.34058 10.4475C8.14071 10.7445 7.97994 11.066 7.86227 11.4041C7.78235 11.6337 7.72889 11.8763 7.66395 12.2788C8.05493 12.1942 8.28293 12.1329 8.4981 12.0482C8.80154 11.9287 9.08991 11.7741 9.35728 11.5874C9.64466 11.3868 9.90369 11.1319 10.5586 10.477L14.0952 6.94043L12.9167 5.76192ZM15.2737 5.76192L14.0952 4.58341L15.0984 3.58018C15.4238 3.25474 15.9515 3.25474 16.2769 3.58018C16.6024 3.90561 16.6024 4.43325 16.2769 4.75869L15.2737 5.76192ZM5.96788 2.50007L9.16667 2.50007C9.62691 2.50007 10 2.87317 10 3.33341C10 3.79364 9.62691 4.16674 9.16667 4.16674H6C5.51954 4.16674 5.20931 4.16739 4.9732 4.18668C4.74681 4.20518 4.66288 4.23657 4.62168 4.25757C4.46487 4.33746 4.33739 4.46495 4.2575 4.62175C4.2365 4.66295 4.2051 4.74688 4.18661 4.97327C4.16732 5.20938 4.16667 5.51961 4.16667 6.00007V14.0001C4.16667 14.4805 4.16732 14.7908 4.18661 15.0269C4.2051 15.2533 4.2365 15.3372 4.2575 15.3784C4.33739 15.5352 4.46487 15.6627 4.62168 15.7426C4.66288 15.7636 4.74681 15.795 4.9732 15.8135C5.20931 15.8328 5.51954 15.8334 6 15.8334H14C14.4805 15.8334 14.7907 15.8328 15.0268 15.8135C15.2532 15.795 15.3371 15.7636 15.3783 15.7426C15.5351 15.6627 15.6626 15.5352 15.7425 15.3784C15.7635 15.3372 15.7949 15.2533 15.8134 15.0269C15.8327 14.7908 15.8333 14.4805 15.8333 14.0001V10.4167C15.8333 9.9565 16.2064 9.58341 16.6667 9.58341C17.1269 9.58341 17.5 9.9565 17.5 10.4167V14.0322C17.5 14.4715 17.5 14.8505 17.4745 15.1626C17.4476 15.4921 17.3882 15.8197 17.2275 16.1351C16.9878 16.6055 16.6054 16.9879 16.135 17.2276C15.8197 17.3883 15.492 17.4477 15.1625 17.4746C14.8504 17.5001 14.4714 17.5001 14.0321 17.5001H5.96786C5.52858 17.5001 5.14962 17.5001 4.83748 17.4746C4.50802 17.4477 4.18034 17.3883 3.86503 17.2276C3.39462 16.9879 3.01217 16.6055 2.77249 16.1351C2.61182 15.8197 2.55239 15.4921 2.52548 15.1626C2.49997 14.8505 2.49999 14.4715 2.5 14.0322V5.96795C2.49999 5.52866 2.49997 5.14969 2.52548 4.83755C2.55239 4.5081 2.61182 4.18041 2.77249 3.8651C3.01217 3.39469 3.39462 3.01224 3.86503 2.77256C4.18034 2.6119 4.50802 2.55247 4.83748 2.52555C5.14962 2.50004 5.52859 2.50006 5.96788 2.50007Z" fill="currentColor"/>
</svg>
