<svg width="100%" height="100%" viewBox="0 0 24 24" fill="none" xmlns="http://www.w3.org/2000/svg">
<path fill-rule="evenodd" clip-rule="evenodd" d="M19.5389 1.99964C19.5046 1.99981 19.4711 1.99998 19.4387 1.99998H16.6214C16.5936 1.99998 16.5651 1.99986 16.5358 1.99974C16.2267 1.99844 15.8386 1.99681 15.4842 2.13289C15.1785 2.25028 14.9063 2.44096 14.6914 2.68818C14.4424 2.97473 14.3114 3.33997 14.2069 3.63097C14.197 3.6585 14.1874 3.68537 14.1779 3.71145L13.0118 6.91829C13.0086 6.92703 13.0054 6.93577 13.0023 6.9445C12.9302 7.1425 12.8588 7.33888 12.8101 7.51195C12.7558 7.7048 12.7095 7.93457 12.7265 8.19661C12.7506 8.56595 12.8766 8.92138 13.0906 9.22333C13.2425 9.43757 13.4232 9.5868 13.5869 9.70236C13.7338 9.80609 13.913 9.91358 14.0937 10.022L14.6905 10.38C13.6872 12.1856 12.186 13.688 10.381 14.6902L10.0227 14.093C9.9143 13.9123 9.8068 13.7331 9.70308 13.5862C9.58752 13.4225 9.43829 13.2418 9.22406 13.0899C8.9221 12.8759 8.56667 12.7498 8.19733 12.7258C7.93529 12.7088 7.70552 12.7551 7.51267 12.8094C7.33959 12.8581 7.1432 12.9295 6.9452 13.0016L3.71217 14.1772C3.68609 14.1867 3.65922 14.1963 3.63169 14.2062C3.34068 14.3106 2.97545 14.4417 2.68889 14.6907C2.44168 14.9055 2.251 15.1778 2.1336 15.4835C1.99753 15.8379 1.99916 16.2259 2.00046 16.5351C2.00058 16.5644 2.0007 16.5929 2.0007 16.6207V19.438C2.0007 19.4704 2.00053 19.5039 2.00036 19.5382C1.99848 19.9074 1.9961 20.3771 2.19921 20.7983C2.3688 21.15 2.66438 21.4681 3.00277 21.6629C3.40702 21.8957 3.84972 21.9259 4.19184 21.9493C4.22183 21.9514 4.25105 21.9533 4.27939 21.9554C4.68281 21.985 5.09009 22 5.5007 22C14.6134 22 22.0007 14.6127 22.0007 5.49998C22.0007 5.08937 21.9857 4.68209 21.9561 4.27868C21.9541 4.25033 21.9521 4.22111 21.95 4.19112C21.9266 3.849 21.8964 3.4063 21.6636 3.00205C21.4688 2.66367 21.1508 2.36808 20.7991 2.19849C20.3779 1.99538 19.9081 1.99777 19.5389 1.99964ZM19.9235 4.00911C19.9286 4.04118 19.9341 4.08647 19.9403 4.15429C19.947 4.22803 19.9533 4.31337 19.9615 4.42474C19.9875 4.77959 20.0007 5.13815 20.0007 5.49998C20.0007 13.5081 13.5088 20 5.5007 20C5.13887 20 4.78031 19.9867 4.42546 19.9608C4.31409 19.9526 4.22875 19.9463 4.155 19.9396C4.08719 19.9334 4.0419 19.9278 4.00983 19.9228L4.00951 19.919C4.00153 19.8254 4.0007 19.6947 4.0007 19.438V16.6207C4.0007 16.4055 4.00123 16.2934 4.00672 16.2124C4.0069 16.2098 4.00708 16.2073 4.00725 16.205C4.00941 16.204 4.01167 16.203 4.01404 16.202C4.08829 16.1691 4.19346 16.1303 4.39566 16.0568L7.60249 14.8907C7.83713 14.8053 7.96213 14.7606 8.05451 14.7346C8.05775 14.7337 8.06084 14.7328 8.06378 14.732C8.06555 14.7345 8.06741 14.7371 8.06935 14.7398C8.12471 14.8182 8.19358 14.9318 8.32203 15.1458L9.14321 16.5145C9.40448 16.9499 9.95066 17.1204 10.4133 16.9109C13.2847 15.6105 15.6096 13.2822 16.9113 10.4132C17.1213 9.95048 16.9509 9.4039 16.5152 9.14249L15.1466 8.32131C14.9325 8.19286 14.819 8.12399 14.7406 8.06863C14.7378 8.06669 14.7352 8.06483 14.7327 8.06306C14.7335 8.06012 14.7344 8.05704 14.7353 8.05379C14.7613 7.96141 14.8061 7.83641 14.8914 7.60177L16.0575 4.39494C16.131 4.19275 16.1698 4.08757 16.2027 4.01332C16.2037 4.01095 16.2047 4.00868 16.2057 4.00653C16.2081 4.00635 16.2105 4.00618 16.2131 4.006C16.2941 4.00051 16.4062 3.99998 16.6214 3.99998H19.4387C19.6954 3.99998 19.8261 4.00082 19.9198 4.00879L19.9235 4.00911Z" fill="currentColor"/>
</svg>
