<svg width="100%" height="100%" viewBox="0 0 18 17" fill="none" xmlns="http://www.w3.org/2000/svg">
<path fill-rule="evenodd" clip-rule="evenodd" d="M7.85613 2.96506L12.7043 5.99518C13.1898 6.2986 13.5952 6.55194 13.898 6.78202C14.2062 7.01623 14.4956 7.28891 14.6559 7.66301C14.885 8.19754 14.885 8.80259 14.6559 9.33712C14.4956 9.71122 14.2062 9.9839 13.898 10.2181C13.5952 10.4482 13.1898 10.7015 12.7044 11.0049L7.85613 14.0351C7.31539 14.373 6.86807 14.6526 6.49755 14.8395C6.1252 15.0273 5.72198 15.1804 5.2887 15.1455C4.67806 15.0965 4.11831 14.7862 3.75303 14.2944C3.49386 13.9454 3.40996 13.5224 3.37187 13.1071C3.33396 12.6939 3.33397 12.1664 3.33398 11.5287V5.47145C3.33397 4.83377 3.33396 4.30627 3.37187 3.89303C3.40996 3.47774 3.49386 3.05468 3.75303 2.70572C4.1183 2.21391 4.67806 1.90367 5.2887 1.85458C5.72198 1.81975 6.12521 1.97283 6.49755 2.16062C6.86807 2.3475 7.31539 2.62708 7.85613 2.96506Z" fill="currentColor"/>
</svg>
