<svg width="100%" height="100%" viewBox="0 0 24 25" fill="none" xmlns="http://www.w3.org/2000/svg">
<path d="M22.11 21.96L2.38999 2.22998L1.10999 3.49998L6.24999 8.63998C6.09999 8.90998 5.99999 9.19998 5.99999 9.49998V15L9.49999 18.5V21.5H14.5V18.5L15.31 17.7L20.84 23.23L22.11 21.96ZM13.09 17.09L12.67 17.5H11.33L10.92 17.09L7.99999 14.17V10.39L13.89 16.28L13.09 17.09ZM12.2 9.49998L10.2 7.49998H14V3.49998H16V7.49998C17 7.49998 18 8.49998 18 9.49998V15L17.85 15.15L16 13.3V9.58998C16 9.55998 15.95 9.49998 15.92 9.49998H12.2ZM9.99999 7.29998L7.99999 5.29998V3.49998H9.99999V7.29998Z" fill="currentColor"/>
</svg>
