<svg width="100%" height="100%" viewBox="0 0 20 20" fill="none" xmlns="http://www.w3.org/2000/svg">
<path d="M1.66675 1.6665H6.66675V2.9165H2.91675V5.83317H1.66675V1.6665Z" fill="currentColor"/>
<path d="M1.66675 14.1665V18.3332H6.66675V17.0832H2.91675V14.1665H1.66675Z" fill="currentColor"/>
<path d="M18.3334 1.6665V5.83317H17.0834V2.9165H13.3334V1.6665H18.3334Z" fill="currentColor"/>
<path d="M18.3334 14.1665V18.3332H13.3334V17.0832H17.0834V14.1665H18.3334Z" fill="currentColor"/>
<path d="M7.50008 6.6665C7.50008 7.12674 7.12699 7.49984 6.66675 7.49984C6.20651 7.49984 5.83341 7.12674 5.83341 6.6665C5.83341 6.20627 6.20651 5.83317 6.66675 5.83317C7.12699 5.83317 7.50008 6.20627 7.50008 6.6665Z" fill="currentColor"/>
<path fill-rule="evenodd" clip-rule="evenodd" d="M4.16675 9.1665V4.1665H9.16675V9.1665H4.16675ZM5.41675 7.9165V5.4165H7.91675V7.9165H5.41675Z" fill="currentColor"/>
<path d="M7.50008 12.4998V14.1665H5.83341V12.4998H7.50008Z" fill="currentColor"/>
<path fill-rule="evenodd" clip-rule="evenodd" d="M4.16675 15.8332V10.8332H9.16675V15.8332H4.16675ZM5.41675 14.5832V12.0832H7.91675V14.5832H5.41675Z" fill="currentColor"/>
<path d="M10.8334 10.8332H13.7501V13.3332H12.5001V12.0832H12.0834V13.3332H10.8334V10.8332Z" fill="currentColor"/>
<path d="M14.1667 5.83317H12.5001V7.49984H14.1667V5.83317Z" fill="currentColor"/>
<path fill-rule="evenodd" clip-rule="evenodd" d="M10.8334 4.1665V9.1665H15.8334V4.1665H10.8334ZM14.5834 7.9165V5.4165H12.0834V7.9165H14.5834Z" fill="currentColor"/>
<path d="M10.8334 14.5832V15.8332H14.1667V14.5832H10.8334Z" fill="currentColor"/>
<path d="M14.5834 13.3332H15.8334V10.8332H14.5834V13.3332Z" fill="currentColor"/>
<path d="M15.8334 14.1665V15.8332H14.5834V14.1665H15.8334Z" fill="currentColor"/>
</svg>
