<svg width="100%" height="100%" viewBox="0 0 16 16" fill="none" xmlns="http://www.w3.org/2000/svg">
<path d="M8 11.3333C9.84094 11.3333 11.3333 9.84093 11.3333 7.99998C11.3333 6.15903 9.84094 4.66665 8 4.66665C6.15905 4.66665 4.66666 6.15903 4.66666 7.99998C4.66666 9.84093 6.15905 11.3333 8 11.3333Z" fill="currentColor"/>
<path fill-rule="evenodd" clip-rule="evenodd" d="M14.6667 7.99998C14.6667 11.6819 11.6819 14.6666 8 14.6666C4.3181 14.6666 1.33333 11.6819 1.33333 7.99998C1.33333 4.31808 4.3181 1.33331 8 1.33331C11.6819 1.33331 14.6667 4.31808 14.6667 7.99998ZM13.3333 7.99998C13.3333 10.9455 10.9455 13.3333 8 13.3333C5.05448 13.3333 2.66666 10.9455 2.66666 7.99998C2.66666 5.05446 5.05448 2.66665 8 2.66665C10.9455 2.66665 13.3333 5.05446 13.3333 7.99998Z" fill="currentColor"/>
</svg>
