<svg width="100%" height="100%" viewBox="0 0 20 20" fill="none" xmlns="http://www.w3.org/2000/svg">
<path fill-rule="evenodd" clip-rule="evenodd" d="M2.49984 1.6665C2.96007 1.6665 3.33317 2.0396 3.33317 2.49984L3.33317 4.79151L4.44407 3.78862C5.91784 2.46956 7.86605 1.6665 9.99984 1.6665C14.6022 1.6665 18.3332 5.39747 18.3332 9.99984C18.3332 14.6022 14.6022 18.3332 9.99984 18.3332C6.03288 18.3332 2.71513 15.5621 1.87301 11.8509C1.77117 11.4021 2.05245 10.9557 2.50128 10.8538C2.95011 10.752 3.39651 11.0333 3.49836 11.4821C4.172 14.4508 6.82817 16.6665 9.99984 16.6665C13.6817 16.6665 16.6665 13.6817 16.6665 9.99984C16.6665 6.31794 13.6817 3.33317 9.99984 3.33317C8.29248 3.33317 6.73675 3.97391 5.5569 5.02935L4.66651 5.83317L6.6665 5.83317C7.12674 5.83317 7.49984 6.20627 7.49984 6.6665C7.49984 7.12674 7.12674 7.49984 6.6665 7.49984L2.49984 7.49984C2.0396 7.49984 1.6665 7.12674 1.6665 6.6665L1.6665 2.49984C1.6665 2.0396 2.0396 1.6665 2.49984 1.6665Z" fill="currentColor"/>
</svg>
