<svg width="100%" height="100%" viewBox="0 0 20 20" fill="none" xmlns="http://www.w3.org/2000/svg">
<path fill-rule="evenodd" clip-rule="evenodd" d="M9.93333 6.33333C8.82876 6.33333 7.93333 7.22876 7.93333 8.33333C7.93333 9.4379 8.82876 10.3333 9.93333 10.3333C11.0379 10.3333 11.9333 9.4379 11.9333 8.33333C11.9333 7.22876 11.0379 6.33333 9.93333 6.33333ZM6.6 8.33333C6.6 6.49238 8.09238 5 9.93333 5C11.7743 5 13.2667 6.49238 13.2667 8.33333C13.2667 9.94597 12.1215 11.2911 10.6 11.6L10.6 14.3333C10.6 14.7015 10.3015 15 9.93333 15C9.56514 15 9.26666 14.7015 9.26666 14.3333L9.26666 11.6C7.74517 11.2911 6.6 9.94597 6.6 8.33333Z" fill="currentColor"/>
<path fill-rule="evenodd" clip-rule="evenodd" d="M1.56237 9.26153C1.62932 4.68308 5.41752 1.00001 10.0695 1.00001C11.526 0.997769 12.9587 1.36631 14.2307 2.07043C15.5028 2.77455 16.5717 3.79072 17.3354 5.02185C17.4267 5.17797 17.453 5.36334 17.4086 5.53843C17.3642 5.71351 17.2527 5.86447 17.0978 5.9591C16.943 6.05374 16.757 6.08456 16.5795 6.04501C16.4021 6.00546 16.2472 5.89867 16.1479 5.74739C15.5091 4.7176 14.6148 3.86771 13.5506 3.27897C12.4864 2.69022 11.2878 2.38229 10.0695 2.38462C6.17813 2.38462 3.02595 5.45662 2.95807 9.25969L3.33001 8.89323C3.46133 8.76384 3.63905 8.69154 3.82407 8.69224C4.00908 8.69293 4.18625 8.76656 4.31658 8.89692C4.44691 9.02728 4.51974 9.20371 4.51904 9.38738C4.51835 9.57105 4.44418 9.74692 4.31286 9.8763L2.75072 11.4141C2.62011 11.5427 2.44366 11.6148 2.25976 11.6148C2.07586 11.6148 1.8994 11.5427 1.7688 11.4141L0.206657 9.8763C0.141573 9.8123 0.0898247 9.7362 0.0543677 9.65234C0.0189108 9.56848 0.000439098 9.47851 7.38027e-06 9.38757C-0.000424338 9.29662 0.0171923 9.20648 0.0518516 9.1223C0.0865108 9.03811 0.137534 8.96153 0.202008 8.89692C0.266481 8.83231 0.343143 8.78094 0.427615 8.74574C0.512088 8.71054 0.602717 8.6922 0.694328 8.69178C0.78594 8.69135 0.876739 8.70884 0.961542 8.74324C1.04634 8.77765 1.12349 8.8283 1.18857 8.8923L1.56237 9.26153ZM17.2359 8.58492C17.3664 8.45668 17.5427 8.38475 17.7264 8.38475C17.91 8.38475 18.0863 8.45668 18.2169 8.58492L19.7846 10.1228C19.8515 10.1863 19.9049 10.2623 19.9419 10.3465C19.9789 10.4307 19.9986 10.5214 19.9999 10.6133C20.0012 10.7051 19.9841 10.7963 19.9496 10.8815C19.9151 10.9668 19.8638 11.0443 19.7988 11.1097C19.7337 11.175 19.6562 11.2269 19.5708 11.2622C19.4854 11.2975 19.3938 11.3156 19.3012 11.3154C19.2087 11.3153 19.1171 11.2968 19.0318 11.2611C18.9466 11.2255 18.8693 11.1733 18.8045 11.1077L18.4233 10.7338C18.3582 15.3169 14.5542 19 9.88729 19C8.42722 19.0032 6.99062 18.6354 5.71424 17.9316C4.43786 17.2277 3.36419 16.2113 2.59543 14.9791C2.54732 14.9017 2.51504 14.8156 2.50043 14.7258C2.48581 14.636 2.48916 14.5443 2.51027 14.4558C2.53138 14.3673 2.56984 14.2838 2.62347 14.21C2.67709 14.1363 2.74481 14.0737 2.82278 14.026C2.90075 13.9782 2.98743 13.9462 3.07787 13.9317C3.16831 13.9172 3.26075 13.9205 3.3499 13.9414C3.43905 13.9624 3.52317 14.0006 3.59745 14.0538C3.67174 14.107 3.73474 14.1743 3.78285 14.2517C4.42659 15.2829 5.32553 16.1334 6.39407 16.7222C7.46261 17.311 8.66518 17.6185 9.88729 17.6154C13.7982 17.6154 16.9634 14.5388 17.0285 10.7357L16.6491 11.1077C16.5176 11.2368 16.3397 11.3088 16.1547 11.3078C15.9697 11.3067 15.7927 11.2328 15.6626 11.1021C15.5325 10.9715 15.46 10.795 15.461 10.6113C15.4621 10.4276 15.5366 10.2519 15.6681 10.1228L17.2359 8.58492Z" fill="currentColor"/>
</svg>
