<svg width="100%" height="100%" viewBox="0 0 20 20" fill="none" xmlns="http://www.w3.org/2000/svg">
<path fill-rule="evenodd" clip-rule="evenodd" d="M5.76477 2.50017C5.78633 2.50026 5.80738 2.50034 5.82784 2.50034H14.1798C14.2002 2.50034 14.2213 2.50026 14.2428 2.50017C14.4728 2.4993 14.7619 2.4982 15.0322 2.59143C15.2658 2.67198 15.4785 2.80344 15.655 2.97631C15.8592 3.17635 15.9875 3.43542 16.0896 3.64154C16.0992 3.66087 16.1085 3.67973 16.1177 3.69804L17.7785 7.01975C17.848 7.15853 17.9232 7.3088 17.9749 7.4413C18.0292 7.58021 18.1078 7.81777 18.0662 8.0997C18.0159 8.43984 17.8278 8.74426 17.546 8.94132C17.3125 9.10467 17.0648 9.14054 16.9163 9.15413C16.84 9.16112 16.756 9.16433 16.6705 9.16579V16.667C16.6705 17.1272 16.2974 17.5003 15.8371 17.5003C15.3769 17.5003 15.0038 17.1272 15.0038 16.667V9.167H5.0038V12.5003H11.6705V11.667C11.6705 11.2068 12.0436 10.8337 12.5038 10.8337C12.964 10.8337 13.3371 11.2068 13.3371 11.667L13.3371 14.6971C13.3372 15.0213 13.3372 15.3131 13.3173 15.5559C13.2961 15.8158 13.248 16.0921 13.1101 16.3628C12.9103 16.7548 12.5916 17.0735 12.1996 17.2733C11.9289 17.4112 11.6526 17.4593 11.3927 17.4805C11.1499 17.5004 10.8581 17.5004 10.5339 17.5003H6.14038C5.81614 17.5004 5.52437 17.5004 5.28161 17.4805C5.02163 17.4593 4.7454 17.4112 4.47465 17.2733C4.08265 17.0735 3.76394 16.7548 3.5642 16.3628C3.42625 16.0921 3.37817 15.8158 3.35693 15.5559C3.33709 15.3131 3.33711 15.0213 3.33713 14.6971L3.33713 9.16579C3.25161 9.16433 3.16761 9.16112 3.09127 9.15413C2.94275 9.14054 2.69509 9.10467 2.46155 8.94132C2.1798 8.74426 1.99166 8.43984 1.9414 8.0997C1.89975 7.81777 1.97842 7.58021 2.03268 7.4413C2.08443 7.3088 2.15962 7.15852 2.22906 7.01974C2.23301 7.01185 2.23694 7.00399 2.24085 6.99618L3.88992 3.69804C3.89907 3.67974 3.90841 3.66088 3.91798 3.64155C4.02007 3.43542 4.14838 3.17636 4.35263 2.97631C4.52912 2.80344 4.74183 2.67198 4.97537 2.59143C5.24565 2.4982 5.53475 2.4993 5.76477 2.50017ZM16.1554 7.50034L14.627 4.4434C14.5556 4.3006 14.5185 4.22734 14.4886 4.17586C14.4877 4.17431 14.4869 4.17283 14.486 4.17142C14.4844 4.1713 14.4827 4.17119 14.4809 4.17108C14.4215 4.16737 14.3394 4.167 14.1798 4.167H5.82784C5.66819 4.167 5.5861 4.16737 5.52668 4.17108C5.5249 4.17119 5.52319 4.1713 5.52155 4.17142C5.52072 4.17283 5.51986 4.17431 5.51896 4.17586C5.48908 4.22734 5.45203 4.3006 5.38063 4.4434L3.85216 7.50034H16.1554ZM5.0038 14.167V14.667C5.0038 15.0308 5.00445 15.2535 5.01806 15.4201C5.0244 15.4978 5.03237 15.5447 5.03909 15.5733C5.04228 15.5868 5.04496 15.5952 5.04657 15.5997C5.04812 15.604 5.04904 15.6058 5.04921 15.6062C5.08916 15.6846 5.1529 15.7483 5.2313 15.7883C5.23164 15.7884 5.23346 15.7894 5.23779 15.7909C5.2423 15.7925 5.25065 15.7952 5.26421 15.7984C5.29274 15.8051 5.3397 15.8131 5.41733 15.8194C5.58396 15.833 5.80668 15.8337 6.17046 15.8337H10.5038C10.8676 15.8337 11.0903 15.833 11.2569 15.8194C11.3346 15.8131 11.3815 15.8051 11.41 15.7984C11.4236 15.7952 11.432 15.7925 11.4365 15.7909C11.4408 15.7894 11.4426 15.7884 11.443 15.7883C11.5214 15.7483 11.5851 15.6846 11.6251 15.6062C11.6252 15.6058 11.6261 15.604 11.6277 15.5997C11.6293 15.5952 11.632 15.5868 11.6352 15.5733C11.6419 15.5447 11.6499 15.4978 11.6562 15.4201C11.6698 15.2535 11.6705 15.0308 11.6705 14.667V14.167H5.0038Z" fill="currentColor"/>
</svg>
