<svg width="100%" height="100%" viewBox="0 0 20 20" fill="none" xmlns="http://www.w3.org/2000/svg">
<path fill-rule="evenodd" clip-rule="evenodd" d="M9.99751 1.66699C10.2355 1.66699 10.4622 1.76878 10.6204 1.94669L13.6169 5.3178C13.6253 5.32729 13.634 5.33701 13.6429 5.34696C13.74 5.45571 13.8624 5.59265 13.9532 5.75549C14.032 5.89677 14.0898 6.04878 14.1247 6.20671C14.1651 6.38874 14.1646 6.57237 14.1642 6.71818C14.1642 6.73153 14.1642 6.74457 14.1642 6.75726V10.0338C14.1642 10.2116 14.1642 10.3803 14.1632 10.5401L15.3561 12.0312C15.3634 12.0403 15.3709 12.0497 15.3786 12.0593C15.4632 12.1645 15.5697 12.297 15.6484 12.4511C15.7167 12.5848 15.7666 12.7271 15.7968 12.8742C15.8316 13.0437 15.8312 13.2137 15.8309 13.3486C15.8309 13.361 15.8308 13.373 15.8308 13.3847V17.5003C15.8308 17.8542 15.6073 18.1695 15.2734 18.2867C14.9394 18.4038 14.5679 18.2973 14.3468 18.0209L11.2487 14.1483C11.1182 14.1554 10.9789 14.1598 10.8308 14.1625V16.667C10.8308 17.1272 10.4577 17.5003 9.99751 17.5003C9.53727 17.5003 9.16418 17.1272 9.16418 16.667V14.1625C9.01609 14.1598 8.87684 14.1554 8.74633 14.1483L5.64824 18.0209C5.42715 18.2973 5.05563 18.4038 4.72167 18.2867C4.38772 18.1695 4.16418 17.8542 4.16418 17.5003V13.3847C4.16418 13.373 4.16415 13.361 4.16412 13.3486C4.16381 13.2137 4.16342 13.0437 4.19821 12.8742C4.2284 12.7271 4.27833 12.5848 4.34665 12.4511C4.42536 12.297 4.53184 12.1645 4.61638 12.0593C4.62411 12.0497 4.63164 12.0403 4.63896 12.0312L5.83186 10.5401C5.83084 10.3803 5.83084 10.2116 5.83084 10.0338L5.83084 6.75726C5.83084 6.74457 5.83081 6.73154 5.83078 6.71818C5.83042 6.57237 5.82997 6.38874 5.87029 6.20671C5.90527 6.04877 5.96306 5.89678 6.04184 5.7555C6.13264 5.59266 6.25497 5.45571 6.35212 5.34697C6.36101 5.33701 6.3697 5.32729 6.37812 5.3178L9.37467 1.94669C9.53281 1.76878 9.75948 1.66699 9.99751 1.66699ZM6.2257 12.7157L5.94041 13.0724C5.88236 13.1449 5.85373 13.1809 5.83386 13.2079C5.83336 13.2086 5.83288 13.2092 5.83242 13.2099C5.83239 13.2106 5.83235 13.2115 5.83232 13.2123C5.83099 13.2458 5.83084 13.2918 5.83084 13.3847V15.1247L7.03914 13.6143C6.70894 13.3757 6.43145 13.0698 6.2257 12.7157ZM10.8308 12.4956V10.8337C10.8308 10.3734 10.4577 10.0003 9.99751 10.0003C9.53727 10.0003 9.16418 10.3734 9.16418 10.8337V12.4956C8.98443 12.492 8.83178 12.4857 8.69704 12.4747C8.40118 12.4505 8.26579 12.4078 8.18002 12.3641C7.94482 12.2442 7.7536 12.053 7.63375 11.8178C7.59005 11.732 7.5473 11.5967 7.52313 11.3008C7.49816 10.9952 7.49751 10.5975 7.49751 10.0003V7.50033H12.4975V10.0003C12.4975 10.5975 12.4969 10.9952 12.4719 11.3008C12.4477 11.5967 12.405 11.732 12.3613 11.8178C12.2414 12.053 12.0502 12.2442 11.815 12.3641C11.7292 12.4078 11.5938 12.4505 11.298 12.4747C11.1632 12.4857 11.0106 12.492 10.8308 12.4956ZM12.9559 13.6143L14.1642 15.1247V13.3847C14.1642 13.2918 14.164 13.2458 14.1627 13.2123C14.1627 13.2115 14.1626 13.2106 14.1626 13.2099C14.1621 13.2092 14.1617 13.2086 14.1612 13.2079C14.1413 13.1809 14.1127 13.1449 14.0546 13.0724L13.7693 12.7157C13.5636 13.0698 13.2861 13.3757 12.9559 13.6143ZM11.8455 5.83366L9.99751 3.75466L8.14951 5.83366H11.8455Z" fill="currentColor"/>
</svg>
