<svg width="100%" height="100%" viewBox="0 0 16 16" fill="none" xmlns="http://www.w3.org/2000/svg">
<path fill-rule="evenodd" clip-rule="evenodd" d="M8.77423 1.3335H11.8923C12.2437 1.33348 12.5469 1.33347 12.7966 1.35388C13.0602 1.37541 13.3223 1.42295 13.5746 1.55148C13.9509 1.74323 14.2569 2.04919 14.4486 2.42552C14.5771 2.67777 14.6247 2.93992 14.6462 3.20348C14.6666 3.45319 14.6666 3.75636 14.6666 4.10779V11.8925C14.6666 12.244 14.6666 12.5471 14.6462 12.7969C14.6247 13.0604 14.5771 13.3226 14.4486 13.5748C14.2569 13.9511 13.9509 14.2571 13.5746 14.4488C13.3223 14.5774 13.0602 14.6249 12.7966 14.6465C12.5469 14.6669 12.2437 14.6668 11.8923 14.6668H10.6666C10.2984 14.6668 9.99992 14.3684 9.99992 14.0002C9.99992 13.632 10.2984 13.3335 10.6666 13.3335H11.8666C12.251 13.3335 12.4991 13.333 12.688 13.3175C12.8691 13.3027 12.9363 13.2776 12.9693 13.2608C13.0947 13.1969 13.1967 13.0949 13.2606 12.9695C13.2774 12.9365 13.3025 12.8694 13.3173 12.6883C13.3327 12.4994 13.3333 12.2512 13.3333 11.8668V4.1335C13.3333 3.74913 13.3327 3.50095 13.3173 3.31205C13.3025 3.13095 13.2774 3.0638 13.2606 3.03084C13.1967 2.90539 13.0947 2.80341 12.9693 2.73949C12.9363 2.7227 12.8691 2.69758 12.688 2.68278C12.4991 2.66735 12.251 2.66683 11.8666 2.66683H8.79992C8.41555 2.66683 8.16737 2.66735 7.97848 2.68278C7.79737 2.69758 7.73023 2.7227 7.69726 2.73949C7.57182 2.80341 7.46983 2.9054 7.40592 3.03084C7.38912 3.0638 7.36401 3.13095 7.34921 3.31205C7.33378 3.50095 7.33326 3.74913 7.33326 4.1335V5.00016C7.33326 5.36835 7.03478 5.66683 6.66659 5.66683C6.2984 5.66683 5.99992 5.36835 5.99992 5.00016L5.99992 4.1078C5.99991 3.75637 5.9999 3.45319 6.0203 3.20348C6.04184 2.93992 6.08938 2.67777 6.21791 2.42552C6.40966 2.04919 6.71562 1.74323 7.09194 1.55148C7.3442 1.42295 7.60634 1.37541 7.8699 1.35388C8.11962 1.33347 8.42279 1.33348 8.77423 1.3335ZM8.66659 4.66683C8.66659 4.29864 8.96507 4.00016 9.33326 4.00016H11.3333C11.7014 4.00016 11.9999 4.29864 11.9999 4.66683C11.9999 5.03502 11.7014 5.3335 11.3333 5.3335H9.33326C8.96507 5.3335 8.66659 5.03502 8.66659 4.66683ZM8.66659 7.3335C8.66659 6.96531 8.96507 6.66683 9.33326 6.66683H11.3333C11.7014 6.66683 11.9999 6.96531 11.9999 7.3335C11.9999 7.70169 11.7014 8.00016 11.3333 8.00016H9.33326C8.96507 8.00016 8.66659 7.70169 8.66659 7.3335ZM5.27878 6.95878C5.53161 6.88192 5.80157 6.88192 6.0544 6.95878C6.23519 7.01374 6.37647 7.10659 6.48967 7.19438C6.59195 7.2737 6.70391 7.37552 6.8178 7.47907L8.44635 8.95958C8.4476 8.96071 8.44886 8.96185 8.45011 8.96299L9.7817 10.1735C10.0541 10.4212 10.0742 10.8428 9.82655 11.1153C9.57888 11.3877 9.15725 11.4078 8.88481 11.1601L8.66659 10.9617L8.66659 12.9548C8.66661 13.123 8.66663 13.2869 8.65529 13.4257C8.64284 13.578 8.61346 13.7579 8.52127 13.9388C8.39343 14.1897 8.18946 14.3937 7.93858 14.5215C7.75763 14.6137 7.57781 14.6431 7.42541 14.6555C7.28664 14.6669 7.12278 14.6669 6.95453 14.6668H4.37865C4.2104 14.6669 4.04654 14.6669 3.90777 14.6555C3.75537 14.6431 3.57555 14.6137 3.3946 14.5215C3.14372 14.3937 2.93975 14.1897 2.81191 13.9388C2.71972 13.7579 2.69034 13.578 2.67789 13.4257C2.66655 13.2869 2.66657 13.123 2.66659 12.9548L2.66659 10.9617L2.44837 11.1601C2.17593 11.4078 1.7543 11.3877 1.50663 11.1153C1.25896 10.8428 1.27904 10.4212 1.55147 10.1735L2.88304 8.96303C2.88431 8.96186 2.88559 8.9607 2.88687 8.95954L4.50062 7.49249C4.50555 7.48802 4.51047 7.48354 4.51539 7.47907C4.62927 7.37551 4.74124 7.2737 4.84351 7.19438C4.95671 7.10659 5.09799 7.01374 5.27878 6.95878ZM3.99992 9.74962V12.9335C3.99992 13.1312 4.00044 13.2394 4.00679 13.3171C4.00704 13.3202 4.0073 13.3231 4.00756 13.3259C4.01032 13.3261 4.01325 13.3264 4.01635 13.3266C4.09407 13.333 4.20224 13.3335 4.39992 13.3335H6.93326C7.13094 13.3335 7.23911 13.333 7.31683 13.3266C7.31993 13.3264 7.32286 13.3261 7.32563 13.3259C7.32588 13.3231 7.32614 13.3202 7.32639 13.3171C7.33274 13.2394 7.33326 13.1312 7.33326 12.9335L7.33326 9.74962L5.93566 8.47908C5.80124 8.35688 5.72843 8.29133 5.67255 8.248C5.67047 8.24638 5.66848 8.24485 5.66659 8.24342C5.6647 8.24485 5.66271 8.24638 5.66063 8.248C5.60475 8.29134 5.53194 8.35688 5.39752 8.47908L3.99992 9.74962Z" fill="currentColor"/>
</svg>
