<svg width="100%" height="100%" viewBox="0 0 20 20" fill="none" xmlns="http://www.w3.org/2000/svg">
<path fill-rule="evenodd" clip-rule="evenodd" d="M15.0013 3.33268C14.1307 3.33268 13.3346 4.10201 13.3346 5.16602C13.3346 5.65462 13.5391 6.15009 13.9582 6.73049C14.2472 7.13084 14.6014 7.52399 15.0013 7.95083C15.4012 7.52399 15.7554 7.13084 16.0444 6.73049C16.4635 6.15009 16.668 5.65462 16.668 5.16602C16.668 4.10201 15.8719 3.33268 15.0013 3.33268ZM13.1023 8.33268C12.9265 8.12603 12.7591 7.91692 12.6069 7.70611C12.0885 6.98803 11.668 6.15017 11.668 5.16602C11.668 3.2845 13.1105 1.66602 15.0013 1.66602C16.8921 1.66602 18.3346 3.2845 18.3346 5.16602C18.3346 6.15017 17.9141 6.98803 17.3957 7.70611C16.9666 8.30036 16.4172 8.8811 15.8967 9.43124C15.7996 9.53392 15.7034 9.63553 15.6093 9.73597C15.4517 9.90401 15.2316 9.99935 15.0013 9.99935H12.0846C11.3943 9.99935 10.8346 10.559 10.8346 11.2493C10.8346 11.9397 11.3943 12.4993 12.0846 12.4993H14.5846C16.1955 12.4993 17.5013 13.8052 17.5013 15.416C17.5013 17.0268 16.1955 18.3327 14.5846 18.3327H5.0013C4.77096 18.3327 4.55089 18.2373 4.39335 18.0693C4.29919 17.9689 4.20305 17.8672 4.10591 17.7646C3.58541 17.2144 3.03596 16.6337 2.60691 16.0394C2.08846 15.3214 1.66797 14.4835 1.66797 13.4993C1.66797 11.6178 3.11051 9.99935 5.0013 9.99935C6.8921 9.99935 8.33464 11.6178 8.33464 13.4993C8.33464 14.4835 7.91414 15.3214 7.39569 16.0394C7.24348 16.2503 7.07613 16.4594 6.90028 16.666H14.5846C15.275 16.666 15.8346 16.1064 15.8346 15.416C15.8346 14.7257 15.275 14.166 14.5846 14.166H12.0846C10.4738 14.166 9.16797 12.8602 9.16797 11.2493C9.16797 9.63852 10.4738 8.33268 12.0846 8.33268H13.1023ZM5.0013 16.2842C4.6014 15.8573 4.24724 15.4642 3.95819 15.0638C3.53914 14.4834 3.33464 13.988 3.33464 13.4993C3.33464 12.4353 4.13067 11.666 5.0013 11.666C5.87193 11.666 6.66797 12.4353 6.66797 13.4993C6.66797 13.988 6.46346 14.4834 6.04441 15.0638C5.75536 15.4642 5.40121 15.8573 5.0013 16.2842Z" fill="currentColor"/>
</svg>
