<svg width="100%" height="100%" viewBox="0 0 24 24" fill="none" xmlns="http://www.w3.org/2000/svg">
<path fill-rule="evenodd" clip-rule="evenodd" d="M9.32134 2.26916C8.77235 2.20898 8.27851 2.60525 8.21833 3.15424C8.15815 3.70324 8.55441 4.19707 9.10341 4.25725C10.5074 4.41116 13.3367 4.92827 15.47 5.70317C15.9891 5.89173 16.5628 5.62377 16.7513 5.10467C16.9399 4.58558 16.6719 4.0119 16.1528 3.82334C13.8264 2.97827 10.8309 2.43464 9.32134 2.26916ZM5.68456 5.66324C4.6671 5.66324 3.84228 6.48806 3.84228 7.50553C3.84228 8.52299 4.6671 9.34781 5.68456 9.34781C6.70203 9.34781 7.52685 8.52299 7.52685 7.50553C7.52685 6.48806 6.70203 5.66324 5.68456 5.66324ZM2 7.50553C2 5.4706 3.64964 3.82096 5.68456 3.82096C7.71949 3.82096 9.36913 5.4706 9.36913 7.50553C9.36913 8.1772 9.1894 8.8069 8.87542 9.34916L11.5112 11.7798L18.8772 4.98613C19.2511 4.64122 19.8339 4.66477 20.1788 5.03873C20.5237 5.4127 20.5002 5.99545 20.1262 6.34036L8.87596 16.7165C9.18961 17.2586 9.36913 17.8879 9.36913 18.5592C9.36913 20.5942 7.71949 22.2438 5.68456 22.2438C3.64964 22.2438 2 20.5942 2 18.5592C2 16.5243 3.64964 14.8747 5.68456 14.8747C6.37957 14.8747 7.02963 15.0671 7.58437 15.4016L10.1525 13.0329L7.58342 10.6638C7.02888 10.9979 6.37917 11.1901 5.68456 11.1901C3.64964 11.1901 2 9.54046 2 7.50553ZM13.2977 14.6803C13.6426 14.3063 14.2253 14.2827 14.5993 14.6276L20.1261 19.7243C20.5001 20.0692 20.5237 20.652 20.1788 21.026C19.834 21.4 19.2512 21.4235 18.8772 21.0787L13.3504 15.9819C12.9764 15.637 12.9528 15.0543 13.2977 14.6803ZM5.68456 16.7169C4.6671 16.7169 3.84228 17.5418 3.84228 18.5592C3.84228 19.5767 4.6671 20.4015 5.68456 20.4015C6.70203 20.4015 7.52685 19.5767 7.52685 18.5592C7.52685 17.5418 6.70203 16.7169 5.68456 16.7169ZM19.6451 8.17563C20.1526 7.95765 20.7406 8.19232 20.9586 8.69976C21.3509 9.61311 21.7085 11.0248 21.8053 12.5718C21.9021 14.1193 21.7438 15.8936 21.0166 17.4836C20.7869 17.9858 20.1936 18.2068 19.6913 17.9771C19.1891 17.7474 18.9681 17.154 19.1978 16.6518C19.7436 15.4585 19.8934 14.042 19.8092 12.6967C19.725 11.3508 19.4124 10.1675 19.121 9.48913C18.903 8.98169 19.1377 8.39361 19.6451 8.17563Z" fill="currentColor"/>
</svg>
