<svg width="100%" height="100%" viewBox="0 0 20 20" fill="none" xmlns="http://www.w3.org/2000/svg">
<path fill-rule="evenodd" clip-rule="evenodd" d="M2.64281 3.47631C3.26794 2.85119 4.11578 2.5 4.99984 2.5H14.9998C15.8839 2.5 16.7317 2.85119 17.3569 3.47631C17.982 4.10143 18.3332 4.94928 18.3332 5.83333V12.4999C18.3332 12.4999 18.3332 12.4999 18.3332 12.4999C18.3332 13.1832 18.1233 13.8501 17.7318 14.4101C17.3403 14.9702 16.7861 15.3964 16.1443 15.631C15.712 15.789 15.2335 15.5667 15.0755 15.1344C14.9175 14.7022 15.1398 14.2237 15.5721 14.0657C15.893 13.9484 16.1701 13.7353 16.3658 13.4552C16.5616 13.1752 16.6665 12.8418 16.6665 12.5001V5.83333C16.6665 5.39131 16.4909 4.96738 16.1783 4.65482C15.8658 4.34226 15.4419 4.16667 14.9998 4.16667H4.99984C4.55781 4.16667 4.13389 4.34226 3.82133 4.65482C3.50877 4.96738 3.33317 5.39131 3.33317 5.83333V12.5C3.33317 13.2298 3.80412 13.8532 4.46143 14.0783C4.89686 14.2273 5.12899 14.7012 4.97991 15.1366C4.83083 15.572 4.357 15.8041 3.92158 15.6551C2.61222 15.2068 1.6665 13.9652 1.6665 12.5V5.83333C1.6665 4.94928 2.01769 4.10143 2.64281 3.47631ZM8.23207 9.8989C8.70091 9.43006 9.3368 9.16667 9.99984 9.16667C10.6629 9.16667 11.2988 9.43006 11.7676 9.8989C12.2364 10.3677 12.4998 11.0036 12.4998 11.6667C12.4998 12.3297 12.2364 12.9656 11.7676 13.4344C11.2988 13.9033 10.6629 14.1667 9.99984 14.1667C9.3368 14.1667 8.70091 13.9033 8.23207 13.4344C7.76323 12.9656 7.49984 12.3297 7.49984 11.6667C7.49984 11.0036 7.76323 10.3677 8.23207 9.8989ZM9.99984 10.8333C9.77882 10.8333 9.56686 10.9211 9.41058 11.0774C9.2543 11.2337 9.1665 11.4457 9.1665 11.6667C9.1665 11.8877 9.2543 12.0996 9.41058 12.2559C9.56686 12.4122 9.77882 12.5 9.99984 12.5C10.2209 12.5 10.4328 12.4122 10.5891 12.2559C10.7454 12.0996 10.8332 11.8877 10.8332 11.6667C10.8332 11.4457 10.7454 11.2337 10.5891 11.0774C10.4328 10.9211 10.2209 10.8333 9.99984 10.8333ZM8.33317 16.6667C8.11216 16.6667 7.9002 16.7545 7.74392 16.9107C7.58763 17.067 7.49984 17.279 7.49984 17.5C7.49984 17.9602 7.12674 18.3333 6.6665 18.3333C6.20627 18.3333 5.83317 17.9602 5.83317 17.5C5.83317 16.837 6.09656 16.2011 6.5654 15.7322C7.03424 15.2634 7.67013 15 8.33317 15H11.6665C12.3295 15 12.9654 15.2634 13.4343 15.7322C13.9031 16.2011 14.1665 16.837 14.1665 17.5C14.1665 17.9602 13.7934 18.3333 13.3332 18.3333C12.8729 18.3333 12.4998 17.9602 12.4998 17.5C12.4998 17.279 12.412 17.067 12.2558 16.9107C12.0995 16.7545 11.8875 16.6667 11.6665 16.6667H8.33317Z" fill="currentColor"/>
</svg>
