<svg width="100%" height="100%" viewBox="0 0 24 24" fill="none" xmlns="http://www.w3.org/2000/svg">
<path fill-rule="evenodd" clip-rule="evenodd" d="M10 4C6.68629 4 4 6.68629 4 10C4 13.3137 6.68629 16 10 16C13.3137 16 16 13.3137 16 10C16 6.68629 13.3137 4 10 4ZM2 10C2 5.58172 5.58172 2 10 2C14.4183 2 18 5.58172 18 10C18 11.8469 17.3741 13.5477 16.3229 14.9017L21.7076 20.2933C22.0978 20.6841 22.0974 21.3173 21.7067 21.7076C21.3159 22.0978 20.6827 22.0974 20.2924 21.7067L14.9096 16.3168C13.5542 17.3717 11.8505 18 10 18C5.58172 18 2 14.4183 2 10Z" fill="currentColor"/>
</svg>
