<svg width="100%" height="100%" viewBox="0 0 29 28" fill="none" xmlns="http://www.w3.org/2000/svg">
<g clip-path="url(#clip0_4377_2707)">
<path fill-rule="evenodd" clip-rule="evenodd" d="M9.54162 10.2302C9.85667 10.182 10.305 10.1526 11.0092 10.1083L19.9833 9.54336L13.0117 13.5956L10.5752 11.3183C10.0597 10.8365 9.73225 10.5289 9.51968 10.2914C9.50353 10.2733 9.48889 10.2566 9.47563 10.2411C9.49572 10.2375 9.51768 10.2339 9.54162 10.2302ZM14.1679 15.6224L21.1559 11.5606L16.2157 19.0906C15.8297 19.679 15.5831 20.0528 15.3858 20.3019C15.3709 20.3208 15.3569 20.3379 15.344 20.3536C15.3371 20.3345 15.3297 20.3136 15.322 20.2908C15.2205 19.9897 15.1146 19.5546 14.9499 18.8705L14.1679 15.6224ZM11.7679 15.6291C11.7681 15.63 11.7684 15.6309 11.7686 15.6319C11.7794 15.6704 11.7924 15.7239 11.8185 15.8324L12.6937 19.4679C12.8423 20.0856 12.972 20.6244 13.1111 21.0367C13.2435 21.429 13.461 21.9638 13.9403 22.3185C14.5324 22.7567 15.2966 22.8896 16.0018 22.6771C16.5727 22.505 16.958 22.0751 17.215 21.7505C17.4852 21.4094 17.7892 20.9459 18.1376 20.4148L23.7981 11.787C24.1034 11.3216 24.3754 10.9071 24.5613 10.5583C24.7445 10.2145 24.9583 9.7361 24.9121 9.18448C24.8535 8.48655 24.4846 7.85183 23.9071 7.45554C23.4507 7.14234 22.9292 7.09132 22.5397 7.08038C22.1447 7.06928 21.6499 7.10045 21.0944 7.13546C21.0773 7.13653 21.0602 7.13761 21.0431 7.13869L10.8098 7.7829C10.1739 7.8229 9.61941 7.85778 9.18837 7.9238C8.77856 7.98656 8.21304 8.10867 7.78052 8.52057C7.24658 9.02907 6.9844 9.76003 7.07343 10.492C7.14554 11.0849 7.50454 11.5386 7.78103 11.8475C8.07185 12.1724 8.4778 12.5518 8.94329 12.9869L11.6159 15.4849C11.6975 15.5611 11.7376 15.5988 11.7659 15.6271C11.7666 15.6278 11.7672 15.6285 11.7679 15.6291ZM6.86302 13.1212C6.53923 12.5641 5.82515 12.375 5.26809 12.6988L4.25943 13.2851C3.70237 13.6089 3.51326 14.323 3.83706 14.88C4.16085 15.4371 4.87493 15.6262 5.43199 15.3024L6.44065 14.7161C6.99771 14.3923 7.18682 13.6783 6.86302 13.1212ZM9.20815 17.1558C8.88435 16.5988 8.17028 16.4097 7.61321 16.7335L6.10023 17.6129C5.54316 17.9367 5.35406 18.6507 5.67785 19.2078C6.00165 19.7649 6.71572 19.954 7.27279 19.6302L8.78577 18.7508C9.34284 18.427 9.53194 17.7129 9.20815 17.1558ZM11.5533 21.1904C11.2295 20.6334 10.5154 20.4443 9.95833 20.7681L7.43669 22.2338C6.87963 22.5576 6.69053 23.2716 7.01432 23.8287C7.33811 24.3858 8.05219 24.5749 8.60926 24.2511L11.1309 22.7854C11.688 22.4616 11.8771 21.7475 11.5533 21.1904Z" fill="currentColor"/>
</g>
<defs>
<clipPath id="clip0_4377_2707">
<rect width="28" height="28" fill="white" transform="translate(0.5)"/>
</clipPath>
</defs>
</svg>
