<svg width="100%" height="100%" viewBox="0 0 20 20" fill="none" xmlns="http://www.w3.org/2000/svg">
<path fill-rule="evenodd" clip-rule="evenodd" d="M1.91075 1.91076C2.23619 1.58533 2.76382 1.58533 3.08926 1.91076L18.0893 16.9108C18.4147 17.2362 18.4147 17.7638 18.0893 18.0893C17.7638 18.4147 17.2362 18.4147 16.9107 18.0893L14.1667 15.3452V16.6667C14.1667 17.1269 13.7936 17.5 13.3333 17.5C12.8731 17.5 12.5 17.1269 12.5 16.6667V13.6785L10.8333 12.0119V16.6667C10.8333 17.1269 10.4602 17.5 10 17.5C9.53977 17.5 9.16667 17.1269 9.16667 16.6667V10.3452L1.91075 3.08928C1.58531 2.76384 1.58531 2.2362 1.91075 1.91076ZM16.6667 2.50002C17.1269 2.50002 17.5 2.87312 17.5 3.33335V11.9955C17.5 12.4557 17.1269 12.8288 16.6667 12.8288C16.2064 12.8288 15.8333 12.4557 15.8333 11.9955V3.33335C15.8333 2.87312 16.2064 2.50002 16.6667 2.50002ZM13.3333 5.83335C13.7936 5.83335 14.1667 6.20645 14.1667 6.66669V8.66589C14.1667 9.12613 13.7936 9.49923 13.3333 9.49923C12.8731 9.49923 12.5 9.12613 12.5 8.66589V6.66669C12.5 6.20645 12.8731 5.83335 13.3333 5.83335ZM6.66667 12.5C7.12691 12.5 7.5 12.8731 7.5 13.3334V16.6667C7.5 17.1269 7.12691 17.5 6.66667 17.5C6.20643 17.5 5.83334 17.1269 5.83334 16.6667V13.3334C5.83334 12.8731 6.20643 12.5 6.66667 12.5ZM3.33334 15C3.79358 15 4.16667 15.3731 4.16667 15.8334V16.6667C4.16667 17.1269 3.79358 17.5 3.33334 17.5C2.8731 17.5 2.50001 17.1269 2.50001 16.6667V15.8334C2.50001 15.3731 2.8731 15 3.33334 15Z" fill="currentColor"/>
</svg>
