<svg width="100%" height="100%" viewBox="0 0 20 20" fill="none" xmlns="http://www.w3.org/2000/svg">
<path fill-rule="evenodd" clip-rule="evenodd" d="M16.6667 2.5C17.1269 2.5 17.5 2.8731 17.5 3.33333V16.6667C17.5 17.1269 17.1269 17.5 16.6667 17.5C16.2064 17.5 15.8333 17.1269 15.8333 16.6667V3.33333C15.8333 2.8731 16.2064 2.5 16.6667 2.5ZM13.3333 5.83333C13.7936 5.83333 14.1667 6.20643 14.1667 6.66667V16.6667C14.1667 17.1269 13.7936 17.5 13.3333 17.5C12.8731 17.5 12.5 17.1269 12.5 16.6667V6.66667C12.5 6.20643 12.8731 5.83333 13.3333 5.83333ZM10 9.16667C10.4602 9.16667 10.8333 9.53976 10.8333 10V16.6667C10.8333 17.1269 10.4602 17.5 10 17.5C9.53976 17.5 9.16667 17.1269 9.16667 16.6667V10C9.16667 9.53976 9.53976 9.16667 10 9.16667ZM6.66667 12.5C7.1269 12.5 7.5 12.8731 7.5 13.3333V16.6667C7.5 17.1269 7.1269 17.5 6.66667 17.5C6.20643 17.5 5.83333 17.1269 5.83333 16.6667V13.3333C5.83333 12.8731 6.20643 12.5 6.66667 12.5ZM3.33333 15C3.79357 15 4.16667 15.3731 4.16667 15.8333V16.6667C4.16667 17.1269 3.79357 17.5 3.33333 17.5C2.8731 17.5 2.5 17.1269 2.5 16.6667V15.8333C2.5 15.3731 2.8731 15 3.33333 15Z" fill="currentColor"/>
</svg>
