<svg width="100%" height="100%" viewBox="0 0 20 20" fill="none" xmlns="http://www.w3.org/2000/svg">
<path fill-rule="evenodd" clip-rule="evenodd" d="M10 9.16669C10.4602 9.16669 10.8333 9.53978 10.8333 10V16.6667C10.8333 17.1269 10.4602 17.5 10 17.5C9.53976 17.5 9.16667 17.1269 9.16667 16.6667V10C9.16667 9.53978 9.53976 9.16669 10 9.16669ZM6.66667 12.5C7.1269 12.5 7.5 12.8731 7.5 13.3334V16.6667C7.5 17.1269 7.1269 17.5 6.66667 17.5C6.20643 17.5 5.83333 17.1269 5.83333 16.6667V13.3334C5.83333 12.8731 6.20643 12.5 6.66667 12.5ZM3.33333 15C3.79357 15 4.16667 15.3731 4.16667 15.8334V16.6667C4.16667 17.1269 3.79357 17.5 3.33333 17.5C2.8731 17.5 2.5 17.1269 2.5 16.6667V15.8334C2.5 15.3731 2.8731 15 3.33333 15Z" fill="currentColor"/>
</svg>
