<svg width="100%" height="100%" viewBox="0 0 24 24" fill="none" xmlns="http://www.w3.org/2000/svg">
<path fill-rule="evenodd" clip-rule="evenodd" d="M12 4C7.58172 4 4 7.58172 4 12C4 16.4183 7.58172 20 12 20C16.4183 20 20 16.4183 20 12C20 7.58172 16.4183 4 12 4ZM2 12C2 6.47715 6.47715 2 12 2C17.5228 2 22 6.47715 22 12C22 17.5228 17.5228 22 12 22C6.47715 22 2 17.5228 2 12ZM7.85 9.3C7.85 8.49919 8.49919 7.85 9.3 7.85C10.1008 7.85 10.75 8.49919 10.75 9.3C10.75 10.1008 10.1008 10.75 9.3 10.75C8.49919 10.75 7.85 10.1008 7.85 9.3ZM13.25 9.3C13.25 8.49919 13.8992 7.85 14.7 7.85C15.5008 7.85 16.15 8.49919 16.15 9.3C16.15 10.1008 15.5008 10.75 14.7 10.75C13.8992 10.75 13.25 10.1008 13.25 9.3ZM9.19955 13.1994L9.19836 13.1978L9.19718 13.1963C9.19718 13.1963 9.19718 13.1963 9.19718 13.1963C9.19807 13.1974 9.19866 13.1982 9.19955 13.1994ZM14.8033 13.1956C14.8028 13.1963 14.8018 13.1976 14.8002 13.1995C14.7955 13.2056 14.7859 13.2175 14.7716 13.2345C14.7431 13.2685 14.6962 13.3223 14.6319 13.3893C14.5026 13.5243 14.3078 13.7078 14.0556 13.8913C13.5473 14.2609 12.8495 14.6 12 14.6C11.1505 14.6 10.4527 14.2609 9.94442 13.8913C9.69219 13.7078 9.49741 13.5243 9.36808 13.3893C9.30383 13.3223 9.25694 13.2685 9.22838 13.2345C9.21413 13.2175 9.20434 13.2054 9.19955 13.1994C9.19866 13.1982 9.19807 13.1974 9.19718 13.1963M14.8033 13.1956C14.8036 13.1953 14.8033 13.1956 14.8033 13.1956L14.8016 13.1978L14.8002 13.1995C14.8004 13.1993 14.8001 13.1997 14.8002 13.1995L15.6 13.8C14.8 13.2 14.8 13.1998 14.8002 13.1995C14.8018 13.1976 14.8028 13.1963 14.8033 13.1956Z" fill="currentColor"/>
</svg>
