<svg width="100%" height="100%" viewBox="0 0 18 17" fill="none" xmlns="http://www.w3.org/2000/svg">
<path fill-rule="evenodd" clip-rule="evenodd" d="M5.5727 2.125H12.4273C12.8007 2.12499 13.1228 2.12498 13.3881 2.14665C13.6682 2.16953 13.9467 2.22005 14.2147 2.35661C14.6146 2.56034 14.9397 2.88543 15.1434 3.28527C15.28 3.55329 15.3305 3.83182 15.3533 4.11186C15.375 4.37717 15.375 4.69929 15.375 5.07268V11.9273C15.375 12.3007 15.375 12.6228 15.3533 12.8881C15.3305 13.1682 15.28 13.4467 15.1434 13.7147C14.9397 14.1146 14.6146 14.4397 14.2147 14.6434C13.9467 14.78 13.6682 14.8305 13.3881 14.8533C13.1228 14.875 12.8007 14.875 12.4273 14.875H5.57268C5.19929 14.875 4.87717 14.875 4.61186 14.8533C4.33182 14.8305 4.05329 14.78 3.78527 14.6434C3.38543 14.4397 3.06034 14.1146 2.85661 13.7147C2.72005 13.4467 2.66953 13.1682 2.64665 12.8881C2.62498 12.6228 2.62499 12.3007 2.625 11.9273V5.0727C2.62499 4.6993 2.62498 4.37718 2.64665 4.11186C2.66953 3.83182 2.72005 3.55329 2.85661 3.28527C3.06034 2.88543 3.38543 2.56034 3.78527 2.35661C4.05329 2.22005 4.33182 2.16953 4.61186 2.14665C4.87718 2.12498 5.1993 2.12499 5.5727 2.125Z" fill="currentColor"/>
</svg>
