<svg width="100%" height="100%" viewBox="0 0 20 20" fill="none" xmlns="http://www.w3.org/2000/svg">
<path fill-rule="evenodd" clip-rule="evenodd" d="M10 0C10.5523 0 11 0.447715 11 1V2C11 2.55228 10.5523 3 10 3C9.44771 3 9 2.55228 9 2V1C9 0.447715 9.44771 0 10 0ZM2.79289 2.79289C3.18342 2.40237 3.81658 2.40237 4.20711 2.79289L5.02122 3.60701C5.41175 3.99753 5.41175 4.6307 5.02122 5.02122C4.6307 5.41175 3.99753 5.41175 3.60701 5.02122L2.79289 4.20711C2.40237 3.81658 2.40237 3.18342 2.79289 2.79289ZM17.2071 2.79288C17.5976 3.1834 17.5976 3.81656 17.2071 4.20709L16.393 5.02121C16.0025 5.41174 15.3693 5.41175 14.9788 5.02124C14.5883 4.63072 14.5882 3.99755 14.9788 3.60702L15.7929 2.79291C16.1834 2.40237 16.8165 2.40236 17.2071 2.79288ZM10 7C8.34315 7 7 8.34315 7 10C7 11.6569 8.34315 13 10 13C11.6569 13 13 11.6569 13 10C13 8.34315 11.6569 7 10 7ZM5 10C5 7.23858 7.23858 5 10 5C12.7614 5 15 7.23858 15 10C15 12.7614 12.7614 15 10 15C7.23858 15 5 12.7614 5 10ZM0 10C0 9.44771 0.447715 9 1 9H2C2.55228 9 3 9.44771 3 10C3 10.5523 2.55228 11 2 11H1C0.447715 11 0 10.5523 0 10ZM17 10C17 9.44771 17.4477 9 18 9H19C19.5523 9 20 9.44771 20 10C20 10.5523 19.5523 11 19 11H18C17.4477 11 17 10.5523 17 10ZM5.02299 14.9847C5.41253 15.3762 5.41095 16.0093 5.01945 16.3989L4.20534 17.2089C3.81384 17.5985 3.18068 17.5969 2.79113 17.2054C2.40158 16.8139 2.40316 16.1807 2.79466 15.7912L3.60878 14.9811C4.00028 14.5916 4.63344 14.5932 5.02299 14.9847ZM14.977 14.9846C15.3666 14.5932 15.9997 14.5916 16.3912 14.9811L17.2053 15.7912C17.5968 16.1808 17.5984 16.8139 17.2088 17.2054C16.8193 17.5969 16.1861 17.5985 15.7946 17.2089L14.9805 16.3989C14.589 16.0093 14.5875 15.3761 14.977 14.9846ZM10 17C10.5523 17 11 17.4477 11 18V19C11 19.5523 10.5523 20 10 20C9.44771 20 9 19.5523 9 19V18C9 17.4477 9.44771 17 10 17Z" fill="currentColor"/>
</svg>
