<svg width="100%" height="100%" viewBox="0 0 16 16" fill="none" xmlns="http://www.w3.org/2000/svg">
<path fill-rule="evenodd" clip-rule="evenodd" d="M4.19526 1.52864C4.45561 1.26829 4.87772 1.26829 5.13807 1.52864L7.13807 3.52864C7.39842 3.78899 7.39842 4.2111 7.13807 4.47145C6.87772 4.73179 6.45561 4.73179 6.19526 4.47145L5.33333 3.60952V11.3334C5.33333 11.7016 5.03486 12 4.66667 12C4.29848 12 4 11.7016 4 11.3334V3.60952L3.13807 4.47145C2.87772 4.73179 2.45561 4.73179 2.19526 4.47145C1.93491 4.2111 1.93491 3.78899 2.19526 3.52864L4.19526 1.52864ZM11.3333 4.00004C11.7015 4.00004 12 4.29852 12 4.66671V12.3906L12.8619 11.5286C13.1223 11.2683 13.5444 11.2683 13.8047 11.5286C14.0651 11.789 14.0651 12.2111 13.8047 12.4714L11.8047 14.4714C11.5444 14.7318 11.1223 14.7318 10.8619 14.4714L8.86193 12.4714C8.60158 12.2111 8.60158 11.789 8.86193 11.5286C9.12228 11.2683 9.54439 11.2683 9.80474 11.5286L10.6667 12.3906V4.66671C10.6667 4.29852 10.9651 4.00004 11.3333 4.00004Z" fill="currentColor"/>
</svg>
