<svg width="100%" height="100%" viewBox="0 0 20 20" fill="none" xmlns="http://www.w3.org/2000/svg">
<g clip-path="url(#clip0_38652_7507)">
<path d="M1.57711 9.61223L1.57717 9.61217L1.5695 9.60472C1.3707 9.41129 1.25 9.14154 1.25 8.83625L1.25 2.3525C1.25 1.73858 1.73858 1.25 2.3525 1.25L8.83625 1.25C9.14252 1.25 9.4161 1.37172 9.61193 1.56756L10.1355 1.04396L9.61193 1.56756L17.9482 9.90381C18.1495 10.1051 18.275 10.3806 18.275 10.6887C18.275 10.994 18.1543 11.2638 17.9555 11.4572L17.9554 11.4572L17.9482 11.4644L11.4644 17.9482C11.2617 18.1509 10.9856 18.275 10.6887 18.275C10.395 18.275 10.1161 18.1531 9.89986 17.9442L1.57711 9.61223Z" stroke="currentColor" stroke-width="1.5" fill="transparent"/>
<path d="M4.98238 6.94737C5.24294 7.20793 5.59633 7.35431 5.96481 7.35431C6.3333 7.35431 6.68669 7.20793 6.94725 6.94737C7.20781 6.68682 7.35419 6.33342 7.35419 5.96494C7.35419 5.59645 7.20781 5.24306 6.94725 4.9825C6.68669 4.72194 6.3333 4.57556 5.96481 4.57556C5.59633 4.57556 5.24294 4.72194 4.98238 4.9825C4.72182 5.24306 4.57544 5.59645 4.57544 5.96494C4.57544 6.33342 4.72182 6.68681 4.98238 6.94737Z" stroke="currentColor" stroke-width="1.5" fill="transparent"/>
</g>
<defs>
<clipPath id="clip0_38652_7507">
<rect width="20" height="20" rx="3" fill="white"/>
</clipPath>
</defs>
</svg>
