<svg width="100%" height="100%" viewBox="0 0 78 78" fill="none" xmlns="http://www.w3.org/2000/svg">
<path fill-rule="evenodd" clip-rule="evenodd" d="M7.6499 39.0004C7.6499 21.6863 21.6858 7.65039 38.9999 7.65039C55.2568 7.65039 68.6247 20.0254 70.1955 35.8684C70.2979 36.9018 69.4437 37.8504 68.2499 37.8504C67.1216 37.8504 66.102 36.9103 65.9408 35.6148C64.2735 22.2176 52.8483 11.8504 38.9999 11.8504C24.0054 11.8504 11.8499 24.0059 11.8499 39.0004C11.8499 52.8488 22.2171 64.274 35.6143 65.9412C36.9098 66.1025 37.8499 67.1221 37.8499 68.2504C37.8499 69.4442 36.9013 70.2984 35.8679 70.196C20.0249 68.6252 7.6499 55.2573 7.6499 39.0004Z" fill="currentColor"/>
<path fill-rule="evenodd" clip-rule="evenodd" d="M41.1 22.7504C41.1 21.5906 40.1598 20.6504 39 20.6504C37.8402 20.6504 36.9 21.5906 36.9 22.7504V37.1603C36.9 37.5642 36.688 37.9386 36.3416 38.1464L29.7945 42.0747C28.8 42.6714 28.4775 43.9613 29.0742 44.9558C29.6709 45.9504 30.9609 46.2728 31.9554 45.6761L40.0804 40.8011C40.7129 40.4216 41.1 39.738 41.1 39.0004V22.7504Z" fill="currentColor"/>
<path fill-rule="evenodd" clip-rule="evenodd" d="M46.112 46.1115C46.8792 45.3443 48.1231 45.3443 48.8903 46.1115L56.8749 54.0962L64.8596 46.1116C65.6268 45.3443 66.8707 45.3444 67.6379 46.1116C68.4051 46.8788 68.4051 48.1227 67.6379 48.8899L59.6533 56.8745L67.6379 64.8591C68.4051 65.6264 68.4051 66.8703 67.6379 67.6375C66.8707 68.4047 65.6268 68.4047 64.8596 67.6375L56.8749 59.6528L48.8903 67.6375C48.1231 68.4047 46.8792 68.4047 46.112 67.6375C45.3448 66.8703 45.3448 65.6264 46.112 64.8591L54.0966 56.8745L46.112 48.8899C45.3448 48.1227 45.3448 46.8788 46.112 46.1115Z" fill="currentColor"/>
</svg>
