<svg width="100%" height="100%" viewBox="0 0 20 21" fill="none" xmlns="http://www.w3.org/2000/svg">
<path fill-rule="evenodd" clip-rule="evenodd" d="M15.3038 2.35223C15.6292 2.0268 16.1569 2.0268 16.4823 2.35223C19.4927 5.36264 19.9707 9.94405 17.92 13.4543C17.6879 13.8516 17.1775 13.9856 16.7801 13.7534C16.3827 13.5213 16.2488 13.0109 16.4809 12.6135C18.159 9.74117 17.7654 5.99232 15.3038 3.53074C14.9784 3.20531 14.9784 2.67767 15.3038 2.35223ZM1.91086 2.41083C2.2363 2.08539 2.76394 2.08539 3.08937 2.41083L18.0894 17.4108C18.4148 17.7363 18.4148 18.2639 18.0894 18.5893C17.7639 18.9148 17.2363 18.9148 16.9109 18.5893L10.8336 12.5121V18.0007C10.8336 18.4609 10.4605 18.834 10.0003 18.834C9.54007 18.834 9.16697 18.4609 9.16697 18.0007V11.1918C8.30883 10.8885 7.66573 10.1299 7.52783 9.20631L5.99691 7.67539C5.59015 9.08599 5.94311 10.6694 7.05403 11.7803C7.37946 12.1057 7.37946 12.6333 7.05403 12.9588C6.72859 13.2842 6.20095 13.2842 5.87551 12.9588C4.09681 11.1801 3.70755 8.54006 4.70512 6.38359L3.46728 5.14575C1.85057 8.00527 2.26079 11.7013 4.69682 14.1373C5.02225 14.4628 5.02225 14.9904 4.69682 15.3159C4.37138 15.6413 3.84374 15.6413 3.51831 15.3159C0.426863 12.2244 0.00541186 7.47551 2.25269 3.93116L1.91086 3.58934C1.58543 3.2639 1.58543 2.73626 1.91086 2.41083ZM12.9466 4.70921C13.272 4.38377 13.7997 4.38377 14.1251 4.70921C15.7778 6.36192 16.2303 8.75843 15.4874 10.8174C15.3312 11.2503 14.8536 11.4746 14.4207 11.3184C13.9878 11.1622 13.7634 10.6847 13.9196 10.2517C14.4515 8.77762 14.1256 7.0667 12.9466 5.88772C12.6212 5.56228 12.6212 5.03464 12.9466 4.70921Z" fill="currentColor"/>
</svg>
