<svg width="100%" height="100%" viewBox="0 0 24 24" fill="none" xmlns="http://www.w3.org/2000/svg">
<path fill-rule="evenodd" clip-rule="evenodd" d="M11.1614 1.99983C11.2093 1.99991 11.2577 1.99998 11.3064 1.99998H12.6936C12.7423 1.99998 12.7907 1.99991 12.8386 1.99983C13.5221 1.99881 14.122 1.99792 14.6565 2.20814C15.1239 2.39196 15.5376 2.69018 15.8598 3.07545C16.2283 3.51606 16.4171 4.08543 16.6323 4.73414C16.6474 4.77965 16.6626 4.82555 16.678 4.87182L16.7208 4.99998H20C20.5523 4.99998 21 5.44769 21 5.99998C21 6.55226 20.5523 6.99998 20 6.99998H19V16.2413C19 17.0462 19 17.7106 18.9558 18.2518C18.9099 18.8139 18.8113 19.3306 18.564 19.8159C18.1805 20.5686 17.5686 21.1805 16.816 21.564C16.3306 21.8113 15.8139 21.9099 15.2518 21.9558C14.7106 22 14.0463 22 13.2413 22H10.7587C9.95372 22 9.28936 22 8.74817 21.9558C8.18608 21.9099 7.66937 21.8113 7.18404 21.564C6.43139 21.1805 5.81947 20.5686 5.43597 19.8159C5.18868 19.3306 5.09012 18.8139 5.04419 18.2518C4.99998 17.7106 4.99999 17.0462 5 16.2413L5 6.99998H4C3.44772 6.99998 3 6.55226 3 5.99998C3 5.44769 3.44772 4.99998 4 4.99998H7.27924L7.32196 4.87182C7.33738 4.82556 7.3526 4.77966 7.3677 4.73416C7.58286 4.08544 7.77171 3.51606 8.14017 3.07545C8.46236 2.69018 8.87612 2.39196 9.3435 2.20814C9.87802 1.99792 10.4779 1.99881 11.1614 1.99983ZM7.97694 6.99998C7.99245 7.00034 8.00792 7.00034 8.02334 6.99998H15.9767C15.9921 7.00034 16.0076 7.00034 16.0231 6.99998H17V16.2C17 17.0566 16.9992 17.6389 16.9624 18.0889C16.9266 18.5274 16.8617 18.7516 16.782 18.908C16.5903 19.2843 16.2843 19.5902 15.908 19.782C15.7516 19.8617 15.5274 19.9266 15.089 19.9624C14.6389 19.9992 14.0566 20 13.2 20H10.8C9.94342 20 9.36113 19.9992 8.91104 19.9624C8.47262 19.9266 8.24842 19.8617 8.09202 19.782C7.71569 19.5902 7.40973 19.2843 7.21799 18.908C7.1383 18.7516 7.07337 18.5274 7.03755 18.0889C7.00078 17.6389 7 17.0566 7 16.2V6.99998H7.97694ZM14.6094 4.99998H9.39062C9.54424 4.56079 9.60391 4.44277 9.6744 4.35847C9.7818 4.23005 9.91972 4.13064 10.0755 4.06937C10.2092 4.01679 10.3917 3.99998 11.3064 3.99998H12.6936C13.6083 3.99998 13.7908 4.01678 13.9245 4.06937C14.0803 4.13064 14.2182 4.23005 14.3256 4.35847C14.3961 4.44277 14.4558 4.56079 14.6094 4.99998ZM10 8.99998C10.5523 8.99998 11 9.44769 11 9.99998V17C11 17.5523 10.5523 18 10 18C9.44772 18 9 17.5523 9 17V9.99998C9 9.44769 9.44772 8.99998 10 8.99998ZM14 8.99998C14.5523 8.99998 15 9.44769 15 9.99998V17C15 17.5523 14.5523 18 14 18C13.4477 18 13 17.5523 13 17V9.99998C13 9.44769 13.4477 8.99998 14 8.99998Z" fill="currentColor"/>
</svg>
