<svg width="100%" height="100%" viewBox="0 0 24 25" fill="none" xmlns="http://www.w3.org/2000/svg">
<path fill-rule="evenodd" clip-rule="evenodd" d="M10.7571 2.91973C11.5467 2.56028 12.4533 2.56028 13.2429 2.91973C13.8037 3.17501 14.1973 3.64374 14.5285 4.13383C14.8583 4.62194 15.2195 5.27859 15.6563 6.07285L21.2914 16.3185C21.7008 17.0629 22.0412 17.6817 22.2648 18.1941C22.491 18.7127 22.6666 19.2685 22.5961 19.857C22.496 20.6925 22.0496 21.4477 21.3657 21.9381C20.884 22.2834 20.3123 22.3974 19.7489 22.4491C19.1923 22.5001 18.486 22.5001 17.6365 22.5001H6.36352C5.51401 22.5001 4.80772 22.5001 4.25106 22.4491C3.68765 22.3974 3.11595 22.2834 2.63432 21.9381C1.95043 21.4477 1.50395 20.6925 1.40384 19.857C1.33333 19.2685 1.50898 18.7127 1.73522 18.1941C1.95876 17.6817 2.29916 17.0629 2.70858 16.3185L8.34368 6.07287C8.78051 5.2786 9.14165 4.62195 9.47152 4.13383C9.80272 3.64374 10.1963 3.17501 10.7571 2.91973ZM12.4143 4.74001C12.1511 4.62019 11.8489 4.62019 11.5857 4.74001C11.5425 4.75968 11.4055 4.84397 11.1286 5.25369C10.8563 5.65655 10.539 6.23153 10.0723 7.07997L4.48438 17.2398C4.04561 18.0376 3.75075 18.5758 3.56835 18.9939C3.38441 19.4155 3.38365 19.5691 3.38963 19.619C3.42301 19.8976 3.57183 20.1493 3.7998 20.3127C3.84068 20.342 3.97565 20.4154 4.4337 20.4574C4.88793 20.4991 5.50158 20.5001 6.41206 20.5001H17.5879C18.4984 20.5001 19.1121 20.4991 19.5663 20.4574C20.0243 20.4154 20.1593 20.342 20.2002 20.3127C20.4282 20.1493 20.577 19.8976 20.6103 19.619C20.6163 19.5691 20.6156 19.4155 20.4316 18.9939C20.2492 18.5758 19.9544 18.0376 19.5156 17.2399L13.9277 7.07997C13.461 6.23153 13.1436 5.65655 12.8714 5.25369C12.5945 4.84397 12.4575 4.75968 12.4143 4.74001ZM12 9.50007C12.5523 9.50007 13 9.94778 13 10.5001V14.5001C13 15.0524 12.5523 15.5001 12 15.5001C11.4477 15.5001 11 15.0524 11 14.5001V10.5001C11 9.94778 11.4477 9.50007 12 9.50007ZM11 17.5001C11 16.9478 11.4477 16.5001 12 16.5001H12.01C12.5623 16.5001 13.01 16.9478 13.01 17.5001C13.01 18.0524 12.5623 18.5001 12.01 18.5001H12C11.4477 18.5001 11 18.0524 11 17.5001Z" fill="currentColor"/>
</svg>
