<svg width="100%" height="100%" viewBox="0 0 19 18" fill="none" xmlns="http://www.w3.org/2000/svg">
<path fill-rule="evenodd" clip-rule="evenodd" d="M8.68677 0.673027C8.89555 0.665175 9.10451 0.665179 9.31321 0.673028C9.41284 0.660632 9.51336 0.666499 9.60983 0.689483C10.2781 0.738518 10.9416 0.868232 11.5853 1.07831C13.1499 1.58891 14.5283 2.55137 15.5466 3.84432C16.565 5.13728 17.1776 6.70282 17.3074 8.34353C17.3437 8.80233 17.0012 9.20368 16.5423 9.23996C16.0835 9.27624 15.6822 8.93372 15.6459 8.47492C15.6153 8.08783 15.5511 7.70597 15.4549 7.33339H12.3057C12.3679 7.89038 12.399 8.45216 12.3983 9.01618C12.3977 9.47642 12.0242 9.84904 11.5639 9.84845C11.1037 9.84786 10.7311 9.47429 10.7317 9.01405C10.7324 8.45024 10.6973 7.88895 10.6274 7.33339H7.37307C7.30365 7.88436 7.26849 8.44098 7.26849 9.00012C7.26849 9.55921 7.30365 10.1158 7.37305 10.6667H9.41665C9.87689 10.6667 10.25 11.0398 10.25 11.5001C10.25 11.9603 9.87689 12.3334 9.41665 12.3334H7.69187C7.99226 13.4968 8.44965 14.6187 9.05489 15.6669C9.19693 15.6657 9.33919 15.66 9.48147 15.6497C9.94051 15.6165 10.3396 15.9617 10.3728 16.4207C10.4061 16.8797 10.0609 17.2788 9.60184 17.312C9.29481 17.3343 8.98784 17.3394 8.68228 17.3278C8.58564 17.3392 8.48822 17.3336 8.39456 17.3118C7.16658 17.2223 5.96841 16.8614 4.88876 16.2491C3.45717 15.4371 2.29806 14.2194 1.55763 12.7495C0.817187 11.2797 0.528572 9.62349 0.728176 7.98981C0.927781 6.35613 1.60667 4.81815 2.67922 3.5698C3.75177 2.32145 5.16996 1.41865 6.75493 0.975255C7.29176 0.825077 7.83958 0.729877 8.39015 0.689481C8.48662 0.666499 8.58714 0.660632 8.68677 0.673027ZM3.94337 4.65593C4.75956 3.70597 5.82594 3.00613 7.01937 2.63482C6.56394 3.60662 6.21475 4.6232 5.9769 5.66672H3.22673C3.43275 5.30993 3.67235 4.97138 3.94337 4.65593ZM10.3087 5.66672H7.6919C7.98316 4.53872 8.42199 3.44983 9.00007 2.42918C9.57843 3.44978 10.0174 4.53868 10.3087 5.66672ZM10.9811 2.63496C11.4366 3.60669 11.7858 4.62323 12.0237 5.66672H14.7733C14.6144 5.39161 14.4355 5.12713 14.2373 4.87555C13.4226 3.84119 12.3199 3.07122 11.0682 2.66274C11.0392 2.65328 11.0102 2.64402 10.9811 2.63496ZM2.54513 7.33339H5.69471C5.63302 7.88509 5.60183 8.44149 5.60183 9.00012C5.60183 9.5587 5.63302 10.1151 5.69469 10.6667H2.54491C2.33751 9.86323 2.28089 9.02394 2.38254 8.19194C2.41804 7.90141 2.47248 7.61465 2.54513 7.33339ZM3.22625 12.3334H5.97687C6.21479 13.3773 6.56412 14.3942 7.01976 15.3662C6.56674 15.2253 6.12783 15.0358 5.711 14.7993C4.67591 14.2123 3.81888 13.36 3.22625 12.3334Z" fill="currentColor"/>
<path d="M14.4167 11.2452C14.0999 11.2452 13.8431 11.502 13.8431 11.8187V13.5834C13.8431 13.7849 13.9488 13.9716 14.1216 14.0752L15.0039 14.6046C15.2755 14.7676 15.6278 14.6795 15.7908 14.4079C15.9538 14.1363 15.8657 13.784 15.5941 13.6211L14.9902 13.2587V11.8187C14.9902 11.502 14.7334 11.2452 14.4167 11.2452Z" fill="currentColor"/>
<path fill-rule="evenodd" clip-rule="evenodd" d="M14.4167 9.83344C12.3456 9.83344 10.6667 11.5124 10.6667 13.5834C10.6667 15.6545 12.3456 17.3334 14.4167 17.3334C16.4877 17.3334 18.1667 15.6545 18.1667 13.5834C18.1667 11.5124 16.4877 9.83344 14.4167 9.83344ZM11.8137 13.5834C11.8137 12.1459 12.9791 10.9805 14.4167 10.9805C15.8542 10.9805 17.0196 12.1459 17.0196 13.5834C17.0196 15.021 15.8542 16.1864 14.4167 16.1864C12.9791 16.1864 11.8137 15.021 11.8137 13.5834Z" fill="currentColor"/>
</svg>
