<svg width="100%" height="100%" viewBox="0 0 14 12" fill="none" xmlns="http://www.w3.org/2000/svg">
<path d="M1.16683 0.166668C0.706592 0.166668 0.333496 0.539764 0.333496 1C0.333496 1.46024 0.706592 1.83333 1.16683 1.83333H12.8335C13.2937 1.83333 13.6668 1.46024 13.6668 1C13.6668 0.539764 13.2937 0.166668 12.8335 0.166668H1.16683Z" fill="currentColor"/>
<path d="M1.16683 5.16667C0.706592 5.16667 0.333496 5.53976 0.333496 6C0.333496 6.46024 0.706592 6.83333 1.16683 6.83333H12.8335C13.2937 6.83333 13.6668 6.46024 13.6668 6C13.6668 5.53976 13.2937 5.16667 12.8335 5.16667H1.16683Z" fill="currentColor"/>
<path d="M0.333496 11C0.333496 10.5398 0.706592 10.1667 1.16683 10.1667H12.8335C13.2937 10.1667 13.6668 10.5398 13.6668 11C13.6668 11.4602 13.2937 11.8333 12.8335 11.8333H1.16683C0.706592 11.8333 0.333496 11.4602 0.333496 11Z" fill="currentColor"/>
</svg>
