<svg width="100%" height="100%" viewBox="0 0 16 16" fill="none" xmlns="http://www.w3.org/2000/svg">
<path fill-rule="evenodd" clip-rule="evenodd" d="M7.52864 2.19526C7.78899 1.93491 8.2111 1.93491 8.47145 2.19526L10.4714 4.19526C10.7318 4.45561 10.7318 4.87772 10.4714 5.13807C10.2111 5.39842 9.78899 5.39842 9.52864 5.13807L8.66671 4.27614V10C8.66671 10.3682 8.36823 10.6667 8.00004 10.6667C7.63185 10.6667 7.33337 10.3682 7.33337 10V4.27614L6.47145 5.13807C6.2111 5.39842 5.78899 5.39842 5.52864 5.13807C5.26829 4.87772 5.26829 4.45561 5.52864 4.19526L7.52864 2.19526ZM3.97872 8.66667H5.60004C5.96823 8.66667 6.26671 8.96514 6.26671 9.33333C6.26671 9.70152 5.96823 10 5.60004 10H4.00004C3.68029 10 3.47387 10.0004 3.31588 10.0111C3.16388 10.0215 3.10599 10.0393 3.07825 10.0507C2.9149 10.1184 2.78512 10.2482 2.71746 10.4115C2.70596 10.4393 2.68822 10.4972 2.67785 10.6492C2.66707 10.8072 2.66671 11.0136 2.66671 11.3333C2.66671 11.6531 2.66707 11.8595 2.67785 12.0175C2.68822 12.1695 2.70596 12.2274 2.71746 12.2551C2.78512 12.4185 2.9149 12.5483 3.07825 12.6159C3.10599 12.6274 3.16388 12.6452 3.31588 12.6555C3.47387 12.6663 3.68029 12.6667 4.00004 12.6667H12C12.3198 12.6667 12.5262 12.6663 12.6842 12.6555C12.8362 12.6452 12.8941 12.6274 12.9218 12.6159C13.0852 12.5483 13.215 12.4185 13.2826 12.2551C13.2941 12.2274 13.3119 12.1695 13.3222 12.0175C13.333 11.8595 13.3334 11.6531 13.3334 11.3333C13.3334 11.0136 13.333 10.8072 13.3222 10.6492C13.3119 10.4972 13.2941 10.4393 13.2826 10.4115C13.215 10.2482 13.0852 10.1184 12.9218 10.0507C12.8941 10.0393 12.8362 10.0215 12.6842 10.0111C12.5262 10.0004 12.3198 10 12 10H10.4C10.0319 10 9.73337 9.70152 9.73337 9.33333C9.73337 8.96514 10.0319 8.66667 10.4 8.66667H12.0214C12.3138 8.66666 12.5661 8.66665 12.775 8.6809C12.9948 8.6959 13.2148 8.7289 13.4321 8.81891C13.9221 9.0219 14.3115 9.41124 14.5145 9.9013C14.6045 10.1186 14.6375 10.3385 14.6525 10.5584C14.6667 10.7673 14.6667 11.0196 14.6667 11.312V11.3547C14.6667 11.6471 14.6667 11.8994 14.6525 12.1083C14.6375 12.3281 14.6045 12.5481 14.5145 12.7654C14.3115 13.2554 13.9221 13.6448 13.4321 13.8478C13.2148 13.9378 12.9948 13.9708 12.775 13.9858C12.5661 14 12.3138 14 12.0214 14H3.97871C3.68628 14 3.43396 14 3.22512 13.9858C3.00523 13.9708 2.78529 13.9378 2.56801 13.8478C2.07795 13.6448 1.6886 13.2554 1.48562 12.7654C1.39561 12.5481 1.36261 12.3281 1.34761 12.1083C1.33336 11.8994 1.33337 11.6471 1.33337 11.3547V11.312C1.33337 11.0196 1.33336 10.7673 1.34761 10.5584C1.36261 10.3385 1.39561 10.1186 1.48562 9.9013C1.6886 9.41124 2.07795 9.0219 2.56801 8.81891C2.78529 8.7289 3.00523 8.6959 3.22512 8.6809C3.43396 8.66665 3.68628 8.66666 3.97872 8.66667ZM10.6667 11.3333C10.6667 10.9651 10.9652 10.6667 11.3334 10.6667H11.34C11.7082 10.6667 12.0067 10.9651 12.0067 11.3333C12.0067 11.7015 11.7082 12 11.34 12H11.3334C10.9652 12 10.6667 11.7015 10.6667 11.3333Z" fill="currentColor"/>
</svg>
