<svg width="100%" height="100%" viewBox="0 0 20 20" fill="none" xmlns="http://www.w3.org/2000/svg">
<path fill-rule="evenodd" clip-rule="evenodd" d="M9.99967 3.33366C8.61896 3.33366 7.49967 4.45295 7.49967 5.83366C7.49967 7.21437 8.61896 8.33366 9.99967 8.33366C11.3804 8.33366 12.4997 7.21437 12.4997 5.83366C12.4997 4.45295 11.3804 3.33366 9.99967 3.33366ZM5.83301 5.83366C5.83301 3.53247 7.69849 1.66699 9.99967 1.66699C12.3009 1.66699 14.1663 3.53247 14.1663 5.83366C14.1663 8.13485 12.3009 10.0003 9.99967 10.0003C7.69849 10.0003 5.83301 8.13485 5.83301 5.83366ZM9.99967 12.5003C7.23825 12.5003 4.99967 14.7389 4.99967 17.5003C4.99967 17.9606 4.62658 18.3337 4.16634 18.3337C3.7061 18.3337 3.33301 17.9606 3.33301 17.5003C3.33301 13.8184 6.31778 10.8337 9.99967 10.8337C13.6816 10.8337 16.6663 13.8184 16.6663 17.5003C16.6663 17.9606 16.2932 18.3337 15.833 18.3337C15.3728 18.3337 14.9997 17.9606 14.9997 17.5003C14.9997 14.7389 12.7611 12.5003 9.99967 12.5003Z" fill="currentColor"/>
</svg>
