<svg width="100%" height="100%" viewBox="0 0 20 21" fill="none" xmlns="http://www.w3.org/2000/svg">
<path d="M18.6747 6.32619C18.5263 6.25074 18.36 6.21783 18.1941 6.23109C18.0282 6.24435 17.8692 6.30327 17.7347 6.40133L15.8608 7.7628V6.52831C15.8608 6.12976 15.7025 5.74753 15.4207 5.46571C15.1389 5.1839 14.7566 5.02557 14.3581 5.02557H9.23978C9.00065 5.02557 8.77132 5.12057 8.60223 5.28966C8.43314 5.45875 8.33814 5.68808 8.33814 5.92721C8.33814 6.16634 8.43314 6.39568 8.60223 6.56477C8.77132 6.73386 9.00065 6.82885 9.23978 6.82885H14.0575V11.9381C14.0576 12.0726 14.0877 12.2053 14.1457 12.3266C14.2037 12.4479 14.2881 12.5547 14.3926 12.6392C14.4039 12.6489 14.4159 12.658 14.4287 12.6677L17.7347 15.0721C17.8693 15.17 18.0283 15.2287 18.1941 15.2418C18.36 15.255 18.5262 15.2219 18.6745 15.1464C18.8227 15.0709 18.9472 14.9558 19.0341 14.8139C19.121 14.6721 19.1669 14.5089 19.1668 14.3425V7.1294C19.1668 6.96316 19.1208 6.80016 19.034 6.65841C18.9471 6.51667 18.8228 6.40169 18.6747 6.32619ZM17.3636 12.5715L15.8608 11.4791V9.99286L17.3636 8.90037V12.5715ZM3.99134 3.30327C3.91216 3.21401 3.81605 3.14136 3.70859 3.08952C3.60112 3.03768 3.48443 3.00769 3.36529 3.00128C3.24615 2.99487 3.12692 3.01217 3.01451 3.05218C2.90211 3.09219 2.79876 3.15411 2.71046 3.23436C2.62216 3.3146 2.55067 3.41157 2.50012 3.51965C2.44957 3.62773 2.42098 3.74477 2.416 3.86398C2.41102 3.98319 2.42975 4.1022 2.4711 4.21412C2.51246 4.32604 2.57561 4.42864 2.65691 4.51597L3.13944 5.02557H2.33623C1.93768 5.02557 1.55545 5.1839 1.27364 5.46571C0.991819 5.74753 0.833496 6.12976 0.833496 6.52831V14.9436C0.833496 15.3422 0.991819 15.7244 1.27364 16.0062C1.55545 16.288 1.93768 16.4463 2.33623 16.4463H13.5218L14.8931 17.9543C15.0547 18.128 15.2783 18.2309 15.5154 18.2408C15.7524 18.2507 15.9838 18.1668 16.1594 18.0072C16.335 17.8477 16.4406 17.6253 16.4533 17.3884C16.4661 17.1515 16.3849 16.9191 16.2275 16.7416L3.99134 3.30327ZM2.63677 14.6431V6.82885H4.77892L11.8831 14.6431H2.63677Z" fill="currentColor"/>
</svg>
