<svg width="100%" height="100%" viewBox="0 0 20 20" fill="none" xmlns="http://www.w3.org/2000/svg">
<path fill-rule="evenodd" clip-rule="evenodd" d="M10.5117 2.81305C10.7684 3.09749 10.8035 3.45697 10.8172 3.61693C10.8337 3.80974 10.8337 4.05314 10.8337 4.30888V15.6902C10.8337 15.946 10.8337 16.1894 10.8172 16.3822C10.8035 16.5421 10.7684 16.9016 10.5117 17.1861C10.233 17.495 9.81872 17.645 9.40675 17.5861C9.0275 17.5319 8.77037 17.2782 8.65745 17.1641C8.52133 17.0265 8.36552 16.8395 8.20182 16.643L5.99307 13.9925C5.67028 13.6052 5.60163 13.5333 5.53264 13.4847C5.45283 13.4286 5.36378 13.3869 5.26954 13.3615C5.18808 13.3396 5.08887 13.3329 4.58466 13.3329L3.8071 13.3329C3.59677 13.3329 3.39194 13.3329 3.21847 13.3188C3.02798 13.3032 2.8032 13.2665 2.57701 13.1512C2.26341 12.9914 2.00844 12.7365 1.84865 12.4229C1.7334 12.1967 1.69668 11.9719 1.68112 11.7814C1.66694 11.6079 1.66697 11.4031 1.66699 11.1928L1.667 8.83289C1.667 8.82402 1.667 8.81516 1.66699 8.8063C1.66697 8.59599 1.66694 8.39116 1.68112 8.21769C1.69668 8.0272 1.7334 7.80242 1.84865 7.57624C2.00844 7.26263 2.26341 7.00766 2.57701 6.84788C2.8032 6.73263 3.02798 6.6959 3.21847 6.68034C3.39194 6.66617 3.59676 6.66619 3.80708 6.66622C3.81593 6.66622 3.82479 6.66622 3.83366 6.66622H4.58466C5.08887 6.66622 5.18808 6.65952 5.26954 6.6376C5.36378 6.61225 5.45283 6.57054 5.53264 6.51438C5.60163 6.46583 5.67028 6.3939 5.99307 6.00656L8.20184 3.35603C8.36554 3.15954 8.52134 2.97254 8.65745 2.83499C8.77038 2.72087 9.02751 2.46721 9.40676 2.41299C9.81872 2.35409 10.233 2.50407 10.5117 2.81305ZM9.167 4.80126L7.27344 7.07353C7.25654 7.0938 7.23981 7.11392 7.22322 7.13388C6.97941 7.42706 6.76458 7.68542 6.49184 7.87735C6.25242 8.04585 5.98526 8.17098 5.70254 8.24704C5.38049 8.33369 5.04448 8.33334 4.66317 8.33294C4.63722 8.33291 4.61105 8.33289 4.58466 8.33289H3.83366C3.58656 8.33289 3.45135 8.33353 3.35419 8.34147C3.35032 8.34179 3.34666 8.34211 3.3432 8.34243C3.34288 8.34588 3.34257 8.34955 3.34225 8.35341C3.33431 8.45057 3.33366 8.58578 3.33366 8.83289V11.1662C3.33366 11.4133 3.33431 11.5485 3.34225 11.6457C3.34257 11.6496 3.34288 11.6532 3.3432 11.6567C3.34666 11.657 3.35032 11.6573 3.35419 11.6576C3.45135 11.6656 3.58656 11.6662 3.83366 11.6662H4.58466C4.61105 11.6662 4.63722 11.6662 4.66318 11.6662C5.04448 11.6658 5.38049 11.6654 5.70254 11.7521C5.98526 11.8281 6.25242 11.9533 6.49184 12.1218C6.76458 12.3137 6.97942 12.572 7.22322 12.8652C7.23982 12.8852 7.25655 12.9053 7.27344 12.9256L9.167 15.1978V4.80126ZM14.3794 3.85353C14.6863 3.51059 15.2132 3.4814 15.5561 3.78834C17.2596 5.31304 18.3337 7.53142 18.3337 9.99955C18.3337 12.4677 17.2596 14.6861 15.5561 16.2108C15.2132 16.5177 14.6863 16.4885 14.3794 16.1456C14.0724 15.8026 14.1016 15.2758 14.4446 14.9689C15.8098 13.747 16.667 11.9739 16.667 9.99955C16.667 8.02519 15.8098 6.25214 14.4446 5.03023C14.1016 4.72329 14.0724 4.19646 14.3794 3.85353ZM12.8335 6.83325C13.2015 6.55684 13.7239 6.63108 14.0003 6.99907C14.628 7.83481 15.0003 8.8749 15.0003 9.99955C15.0003 11.1242 14.628 12.1643 14.0003 13C13.7239 13.368 13.2015 13.4423 12.8335 13.1659C12.4655 12.8894 12.3913 12.3671 12.6677 11.9991C13.0861 11.442 13.3337 10.7509 13.3337 9.99955C13.3337 9.24819 13.0861 8.55706 12.6677 8.00003C12.3913 7.63204 12.4655 7.10966 12.8335 6.83325Z" fill="currentColor"/>
</svg>
