<svg width="100%" height="100%" viewBox="0 0 20 20" fill="none" xmlns="http://www.w3.org/2000/svg">
<path fill-rule="evenodd" clip-rule="evenodd" d="M9.98572 3.33362C10.3733 3.32705 10.7143 3.58863 10.8083 3.96472L12.6832 11.4645L13.3928 9.69067C13.5193 9.37429 13.8258 9.16683 14.1665 9.16683H17.4998C17.9601 9.16683 18.3332 9.53993 18.3332 10.0002C18.3332 10.4604 17.9601 10.8335 17.4998 10.8335H14.7307L13.2736 14.4763C13.1393 14.8119 12.804 15.0227 12.4434 14.9983C12.0828 14.9738 11.7791 14.7196 11.6914 14.3689L10.0623 7.85256L8.31467 16.0081C8.23453 16.3821 7.9101 16.6535 7.52783 16.6664C7.14557 16.6792 6.80364 16.4302 6.69857 16.0624L5.20459 10.8335H2.49984C2.0396 10.8335 1.6665 10.4604 1.6665 10.0002C1.6665 9.53993 2.0396 9.16683 2.49984 9.16683H5.83317C6.20524 9.16683 6.53223 9.41348 6.63444 9.77123L7.38427 12.3956L9.185 3.99222C9.26623 3.61317 9.59811 3.34018 9.98572 3.33362Z" fill="currentColor"/>
</svg>
