<svg width="100%" height="100%" viewBox="0 0 16 17" fill="none" xmlns="http://www.w3.org/2000/svg">
<path fill-rule="evenodd" clip-rule="evenodd" d="M4.33333 3.16666C3.78105 3.16666 3.33333 3.61438 3.33333 4.16666C3.33333 4.71895 3.78105 5.16666 4.33333 5.16666C4.88562 5.16666 5.33333 4.71895 5.33333 4.16666C5.33333 3.61438 4.88562 3.16666 4.33333 3.16666ZM2 4.16666C2 2.878 3.04467 1.83333 4.33333 1.83333C5.622 1.83333 6.66667 2.878 6.66667 4.16666C6.66667 5.22367 5.96383 6.11652 5 6.40337V10.5966C5.96383 10.8835 6.66667 11.7763 6.66667 12.8333C6.66667 14.122 5.622 15.1667 4.33333 15.1667C3.04467 15.1667 2 14.122 2 12.8333C2 11.7763 2.70284 10.8835 3.66667 10.5966V6.40337C2.70284 6.11652 2 5.22367 2 4.16666ZM9.5286 2.02859C9.78895 1.76824 10.2111 1.76824 10.4714 2.02859L11.6667 3.22385L12.8619 2.02859C13.1223 1.76824 13.5444 1.76824 13.8047 2.02859C14.0651 2.28894 14.0651 2.71105 13.8047 2.9714L12.6095 4.16666L13.8047 5.36192C14.0651 5.62227 14.0651 6.04438 13.8047 6.30473C13.5444 6.56508 13.1223 6.56508 12.8619 6.30473L11.6667 5.10947L10.4714 6.30473C10.2111 6.56508 9.78895 6.56508 9.5286 6.30473C9.26825 6.04438 9.26825 5.62227 9.5286 5.36192L10.7239 4.16666L9.5286 2.9714C9.26825 2.71105 9.26825 2.28894 9.5286 2.02859ZM11.6667 7.83333C12.0349 7.83333 12.3333 8.1318 12.3333 8.49999V10.5966C13.2972 10.8835 14 11.7763 14 12.8333C14 14.122 12.9553 15.1667 11.6667 15.1667C10.378 15.1667 9.33333 14.122 9.33333 12.8333C9.33333 11.7763 10.0362 10.8835 11 10.5966V8.49999C11 8.1318 11.2985 7.83333 11.6667 7.83333ZM4.33333 11.8333C3.78105 11.8333 3.33333 12.281 3.33333 12.8333C3.33333 13.3856 3.78105 13.8333 4.33333 13.8333C4.88562 13.8333 5.33333 13.3856 5.33333 12.8333C5.33333 12.281 4.88562 11.8333 4.33333 11.8333ZM11.6667 11.8333C11.1144 11.8333 10.6667 12.281 10.6667 12.8333C10.6667 13.3856 11.1144 13.8333 11.6667 13.8333C12.219 13.8333 12.6667 13.3856 12.6667 12.8333C12.6667 12.281 12.219 11.8333 11.6667 11.8333Z" fill="currentColor"/>
</svg>
