<svg width="100%" height="100%" viewBox="0 0 24 24" fill="none" xmlns="http://www.w3.org/2000/svg">
<path fill-rule="evenodd" clip-rule="evenodd" d="M17.0432 6.02892C15.4463 5.34427 13.7261 4.99412 11.9886 5.00007C10.2511 5.00603 8.53332 5.36797 6.94116 6.06356C5.34901 6.75915 3.91628 7.77362 2.73139 9.04439C2.35476 9.44833 1.72198 9.47045 1.31804 9.09382C0.914108 8.71718 0.891979 8.0844 1.26862 7.68047C2.63985 6.20984 4.29791 5.03581 6.14047 4.23083C7.98304 3.42584 9.97101 3.00698 11.9817 3.00009C13.9925 2.99319 15.9833 3.39841 17.8313 4.19074C19.6793 4.98307 21.3454 6.1457 22.7267 7.60688C23.1061 8.00823 23.0883 8.64114 22.687 9.02054C22.2856 9.39994 21.6527 9.38215 21.2733 8.98081C20.0797 7.7182 18.6401 6.71357 17.0432 6.02892ZM15.2414 10.2317C14.2187 9.79325 13.1171 9.56903 12.0044 9.57285C10.8917 9.57666 9.79162 9.80843 8.77198 10.2539C7.75234 10.6993 6.83478 11.3489 6.07592 12.1627C5.69926 12.5666 5.06648 12.5887 4.66257 12.212C4.25866 11.8354 4.23657 11.2026 4.61323 10.7987C5.55844 9.78508 6.70132 8.97592 7.97135 8.42111C9.24138 7.8663 10.6116 7.57761 11.9975 7.57286C13.3835 7.5681 14.7557 7.84739 16.0295 8.39347C17.3033 8.93956 18.4517 9.74086 19.4038 10.748C19.7832 11.1493 19.7655 11.7822 19.3642 12.1616C18.9628 12.541 18.3299 12.5233 17.9505 12.122C17.1861 11.3134 16.2641 10.6701 15.2414 10.2317ZM13.8902 14.5265C13.2981 14.2726 12.6603 14.1428 12.0161 14.145C11.3719 14.1472 10.735 14.2814 10.1447 14.5393C9.55435 14.7972 9.02313 15.1733 8.58378 15.6444C8.20712 16.0483 7.57434 16.0704 7.17043 15.6938C6.76652 15.3171 6.74443 14.6843 7.12109 14.2804C7.74678 13.6094 8.50333 13.0738 9.34405 12.7065C10.1848 12.3393 11.0918 12.1482 12.0093 12.145C12.9267 12.1419 13.835 12.3268 14.6782 12.6883C15.5215 13.0497 16.2817 13.5802 16.9119 14.2468C17.2914 14.6482 17.2736 15.2811 16.8723 15.6605C16.471 16.0399 15.8381 16.0222 15.4586 15.6208C15.0161 15.1527 14.4823 14.7803 13.8902 14.5265ZM12.0326 18.7172C11.9946 18.7172 11.9583 18.7322 11.9314 18.7591C11.9046 18.7859 11.8895 18.8223 11.8895 18.8602C11.8895 18.8982 11.9046 18.9346 11.9314 18.9614C11.9583 18.9882 11.9946 19.0033 12.0326 19.0033C12.0705 19.0033 12.1069 18.9882 12.1337 18.9614C12.1606 18.9346 12.1756 18.8982 12.1756 18.8602C12.1756 18.8223 12.1606 18.7859 12.1337 18.7591C12.1069 18.7322 12.0705 18.7172 12.0326 18.7172ZM10.5172 17.3449C10.9191 16.943 11.4642 16.7172 12.0326 16.7172C12.601 16.7172 13.146 16.943 13.5479 17.3449C13.9498 17.7468 14.1756 18.2919 14.1756 18.8602C14.1756 19.4286 13.9498 19.9737 13.5479 20.3756C13.146 20.7775 12.601 21.0033 12.0326 21.0033C11.4642 21.0033 10.9191 20.7775 10.5172 20.3756C10.1153 19.9737 9.88953 19.4286 9.88953 18.8602C9.88953 18.2919 10.1153 17.7468 10.5172 17.3449Z" fill="currentColor"/>
</svg>
