<svg width="100%" height="100%" viewBox="0 0 16 18" fill="none" xmlns="http://www.w3.org/2000/svg">
<path d="M9.06263 1.06757L8.72615 1.79337L8.72615 1.79337L9.06263 1.06757ZM9.50813 1.91318L10.3009 2.02047L10.3009 2.02047L9.50813 1.91318ZM8.17134 1.29346L7.53904 0.803365V0.803365L8.17134 1.29346ZM2.16081 9.04814L2.79305 9.53831L2.79312 9.53823L2.16081 9.04814ZM2.1437 9.07022L1.51137 8.57998L1.5037 8.59022L2.1437 9.07022ZM2.14368 9.07023L2.77598 9.5605L2.78368 9.55023L2.14368 9.07023ZM1.82851 9.49944L2.50184 9.93144L2.50185 9.93144L1.82851 9.49944ZM1.60008 10.1895L2.40005 10.1961L1.60008 10.1895ZM2.02471 11.1354L1.50718 11.7454L1.50719 11.7454L2.02471 11.1354ZM2.67529 11.3857L2.75151 10.5893H2.75151L2.67529 11.3857ZM3.18958 11.4V10.6H3.18942L3.18958 11.4ZM3.18959 11.4V12.2H3.18959L3.18959 11.4ZM7.12622 11.4L7.91899 11.5073C7.94996 11.2785 7.88056 11.0475 7.72864 10.8736C7.57673 10.6997 7.3571 10.6 7.12622 10.6L7.12622 11.4ZM6.49194 16.0868L5.69917 15.9795V15.9795L6.49194 16.0868ZM7.82873 16.7065L7.19642 16.2165H7.19642L7.82873 16.7065ZM13.8564 8.92981L13.2241 8.4396L13.2241 8.43972L13.8564 8.92981ZM14.1716 8.50056L14.8449 8.93257L14.8449 8.93256L14.1716 8.50056ZM14.4 7.81053L13.6 7.80388V7.80389L14.4 7.81053ZM13.9754 6.86464L14.4929 6.25458V6.25458L13.9754 6.86464ZM13.3248 6.61431L13.401 5.81795L13.401 5.81795L13.3248 6.61431ZM12.8105 6.60001L12.8105 7.40001H12.8106L12.8105 6.60001ZM8.87385 6.60002L8.08108 6.49273C8.05011 6.72152 8.11951 6.95254 8.27143 7.1264C8.42334 7.30027 8.64297 7.40002 8.87385 7.40002L8.87385 6.60002ZM8.72615 1.79337C8.72009 1.79056 8.71589 1.78728 8.71362 1.78508C8.71154 1.78307 8.71157 1.78247 8.71243 1.78411C8.71444 1.78793 8.71675 1.79562 8.71536 1.80589L10.3009 2.02047C10.3932 1.3388 10.0482 0.64267 9.3991 0.341772L8.72615 1.79337ZM8.80365 1.78355C8.80366 1.78353 8.80311 1.78424 8.80186 1.7854C8.80062 1.78654 8.79886 1.78797 8.79654 1.78949C8.79187 1.79256 8.7855 1.79561 8.7775 1.79764C8.7601 1.80205 8.74058 1.80006 8.72615 1.79337L9.3991 0.341773C8.73753 0.0350703 7.97492 0.241004 7.53904 0.803365L8.80365 1.78355ZM2.79312 9.53823L8.80365 1.78355L7.53904 0.803365L1.5285 8.55805L2.79312 9.53823ZM2.77594 9.56039L2.79305 9.53831L1.52857 8.55797L1.51145 8.58004L2.77594 9.56039ZM2.78368 9.55023L2.7837 9.55021L1.5037 8.59022L1.50368 8.59023L2.78368 9.55023ZM2.50185 9.93144C2.5631 9.83596 2.65483 9.71658 2.7759 9.56044L1.51147 8.58002C1.4037 8.71902 1.26298 8.89941 1.15518 9.06744L2.50185 9.93144ZM2.40005 10.1961C2.40075 10.112 2.43983 10.0281 2.50184 9.93144L1.15518 9.06744C1.05648 9.22127 0.804728 9.62681 0.800108 10.1828L2.40005 10.1961ZM2.54224 10.5253C2.45867 10.4544 2.3989 10.3351 2.40005 10.1961L0.800108 10.1828C0.795158 10.7784 1.04831 11.3561 1.50718 11.7454L2.54224 10.5253ZM2.75151 10.5893C2.64522 10.5792 2.58346 10.5603 2.54224 10.5253L1.50719 11.7454C1.93868 12.1115 2.41991 12.1649 2.59906 12.1821L2.75151 10.5893ZM3.18942 10.6C2.997 10.6 2.85557 10.5993 2.75151 10.5893L2.59906 12.1821C2.79526 12.2008 3.02084 12.2 3.18974 12.2L3.18942 10.6ZM3.18959 10.6H3.18958V12.2H3.18959V10.6ZM7.12622 10.6L3.18959 10.6L3.18959 12.2L7.12622 12.2L7.12622 10.6ZM7.28471 16.1941L7.91899 11.5073L6.33345 11.2927L5.69917 15.9795L7.28471 16.1941ZM7.27392 16.2066C7.27998 16.2094 7.28418 16.2127 7.28645 16.2149C7.28853 16.2169 7.2885 16.2175 7.28764 16.2159C7.28563 16.2121 7.28332 16.2044 7.28471 16.1941L5.69917 15.9795C5.60692 16.6612 5.95191 17.3573 6.60097 17.6582L7.27392 16.2066ZM7.19642 16.2165C7.19641 16.2165 7.19697 16.2158 7.19821 16.2146C7.19945 16.2135 7.20121 16.212 7.20353 16.2105C7.20821 16.2074 7.21458 16.2044 7.22257 16.2024C7.23997 16.198 7.25949 16.1999 7.27392 16.2066L6.60097 17.6582C7.26254 17.9649 8.02516 17.759 8.46103 17.1966L7.19642 16.2165ZM13.2241 8.43972L7.19642 16.2165L8.46103 17.1966L14.4887 9.4199L13.2241 8.43972ZM13.4982 8.06856C13.437 8.16405 13.3452 8.28345 13.2241 8.4396L14.4886 9.42002C14.5964 9.28101 14.7371 9.1006 14.8449 8.93257L13.4982 8.06856ZM13.6 7.80389C13.5993 7.88803 13.5602 7.9719 13.4982 8.06856L14.8449 8.93256C14.9436 8.77873 15.1953 8.37319 15.2 7.81718L13.6 7.80389ZM13.4578 7.47469C13.5414 7.54558 13.6012 7.66495 13.6 7.80388L15.2 7.81718C15.2049 7.22155 14.9518 6.64386 14.4929 6.25458L13.4578 7.47469ZM13.2486 7.41067C13.3549 7.42084 13.4166 7.43972 13.4578 7.47469L14.4929 6.25458C14.0614 5.88853 13.5802 5.8351 13.401 5.81795L13.2486 7.41067ZM12.8106 7.40001C13.0031 7.39997 13.1445 7.40071 13.2486 7.41067L13.401 5.81795C13.2048 5.79917 12.9792 5.79998 12.8103 5.80001L12.8106 7.40001ZM8.87385 7.40002L12.8105 7.40001L12.8105 5.80001L8.87385 5.80001L8.87385 7.40002ZM8.71536 1.80589L8.08108 6.49273L9.66662 6.7073L10.3009 2.02047L8.71536 1.80589Z" fill="currentColor"/>
</svg>
