<svg width="54" height="54" viewBox="0 0 54 54" fill="none" xmlns="http://www.w3.org/2000/svg">
<circle cx="27" cy="27" r="27" fill="white"/>
<path d="M27 7L27 47" stroke="#E9E9E9" stroke-width="0.341772"/>
<path d="M7 27H47" stroke="#E9E9E9" stroke-width="0.341772"/>
<path fill-rule="evenodd" clip-rule="evenodd" d="M27 3.41772C13.9759 3.41772 3.41772 13.9759 3.41772 27C3.41772 40.0241 13.9759 50.5823 27 50.5823C40.0241 50.5823 50.5823 40.0241 50.5823 27C50.5823 13.9759 40.0241 3.41772 27 3.41772ZM0 27C0 12.0883 12.0883 0 27 0C41.9117 0 54 12.0883 54 27C54 41.9117 41.9117 54 27 54C12.0883 54 0 41.9117 0 27Z" fill="#E9E9E9"/>
<path d="M49.6281 31.142C49.646 31.0438 49.6632 30.9452 49.6798 30.8465L53.6159 31.5406L53.5638 31.836L49.6281 31.142Z" fill="#FF8980"/>
<path d="M4.32027 30.8465C4.33689 30.9452 4.35414 31.0438 4.37202 31.142L0.43625 31.836L0.384155 31.5406L4.32027 30.8465Z" fill="#FF8980"/>
<path d="M4.37209 22.8576C4.35421 22.9558 4.33696 23.0543 4.32034 23.1531L0.384225 22.459L0.43632 22.1636L4.37209 22.8576Z" fill="#FF8980"/>
<path d="M49.6798 23.1531C49.6631 23.0543 49.6459 22.9558 49.628 22.8576L53.5638 22.1636L53.6159 22.459L49.6798 23.1531Z" fill="#FF8980"/>
<path d="M49.8125 29.952C49.8252 29.8529 49.8373 29.7537 49.8487 29.6542L53.8173 30.1415L53.7808 30.4393L49.8125 29.952Z" fill="#FFB689"/>
<path d="M4.15171 29.6542C4.16313 29.7537 4.1752 29.8529 4.18789 29.952L0.219666 30.4393L0.183105 30.1415L4.15171 29.6542Z" fill="#FFB689"/>
<path d="M4.18793 24.0478C4.17523 24.1468 4.16317 24.2461 4.15174 24.3456L0.18327 23.8583L0.219831 23.5605L4.18793 24.0478Z" fill="#FFB689"/>
<path d="M49.8487 24.3456C49.8373 24.2461 49.8252 24.1468 49.8125 24.0478L53.7806 23.5605L53.8172 23.8583L49.8487 24.3456Z" fill="#FFB689"/>
<path d="M49.9995 27.1496C49.9998 27.0997 50 27.0498 50 26.9998C50 26.9497 49.9998 26.8996 49.9995 26.8496H54V27.1496H49.9995Z" fill="#C4C4C4"/>
<path d="M4.00048 27.1496H0V26.8496H4.00048C4.00016 26.8996 4 26.9497 4 26.9998C4 27.0498 4.00016 27.0997 4.00048 27.1496Z" fill="#C4C4C4"/>
</svg>
