<svg width="44" height="44" viewBox="0 0 44 44" fill="none" xmlns="http://www.w3.org/2000/svg">
<path d="M0 16C0 7.16344 7.16344 0 16 0H28C36.8366 0 44 7.16344 44 16V28C44 36.8366 36.8366 44 28 44H16C7.16344 44 0 36.8366 0 28V16Z" fill="#426CFF" fill-opacity="0.1"/>
<path d="M6 18C6 11.3726 11.3726 6 18 6H26C32.6274 6 38 11.3726 38 18V26C38 32.6274 32.6274 38 26 38H18C11.3726 38 6 32.6274 6 26V18Z" fill="#426CFF" fill-opacity="0.15"/>
<path d="M31.2857 22C31.2857 27.1284 27.1284 31.2857 22 31.2857C16.8716 31.2857 12.7143 27.1284 12.7143 22C12.7143 16.8716 16.8716 12.7143 22 12.7143C27.1284 12.7143 31.2857 16.8716 31.2857 22Z" fill="#426CFF" stroke="white" stroke-width="1.42857"/>
<path d="M12.6 18C12.6 15.0177 15.0177 12.6 18 12.6H26C28.9823 12.6 31.4 15.0177 31.4 18V26C31.4 28.9823 28.9823 31.4 26 31.4H18C15.0177 31.4 12.6 28.9823 12.6 26V18Z" fill="#426CFF" stroke="white" stroke-width="1.2"/>
<g clip-path="url(#clip0_31958_30211)">
<circle cx="18.889" cy="21.6885" r="3.88872" fill="white"/>
<circle cx="25.1104" cy="21.6885" r="3.88872" fill="white"/>
<circle cx="18.8886" cy="21.6884" r="2.72211" fill="#1C2D6B"/>
<circle cx="17.7228" cy="20.5214" r="0.777744" fill="white"/>
<circle cx="25.111" cy="21.6884" r="2.72211" fill="#1C2D6B"/>
<circle cx="23.9442" cy="20.5214" r="0.777744" fill="white"/>
</g>
<defs>
<clipPath id="clip0_31958_30211">
<rect width="13.9998" height="13.9998" fill="white" transform="translate(15.0002 15)"/>
</clipPath>
</defs>
</svg>
