<svg width="100%" height="100%" viewBox="0 0 20 20" fill="none" xmlns="http://www.w3.org/2000/svg">
<path d="M19.4 10C19.4 15.1915 15.1915 19.4 10 19.4C4.80852 19.4 0.6 15.1915 0.6 10C0.6 4.80852 4.80852 0.6 10 0.6C15.1915 0.6 19.4 4.80852 19.4 10Z" fill="#F8914A" stroke="white" stroke-width="1.2"  />
<path fill-rule="evenodd" clip-rule="evenodd" d="M10 4.85693C10.2841 4.85693 10.5143 5.08719 10.5143 5.37123V6.91413C10.5143 7.19817 10.2841 7.42843 10 7.42843C9.716 7.42843 9.48574 7.19817 9.48574 6.91413V5.37123C9.48574 5.08719 9.716 4.85693 10 4.85693ZM13.6373 6.36262C13.8382 6.56347 13.8382 6.88911 13.6373 7.08995L12.5465 8.18083C12.3456 8.38167 12.02 8.38167 11.8191 8.18083C11.6183 7.97998 11.6183 7.65435 11.8191 7.4535L12.91 6.36262C13.1109 6.16178 13.4365 6.16178 13.6373 6.36262ZM6.36375 6.36363C6.5646 6.16278 6.89023 6.16278 7.09108 6.36363L8.18296 7.45551C8.3838 7.65635 8.3838 7.98199 8.18296 8.18284C7.98211 8.38368 7.65648 8.38368 7.45563 8.18284L6.36375 7.09096C6.1629 6.89011 6.1629 6.56447 6.36375 6.36363ZM4.85706 9.99992C4.85706 9.71588 5.08731 9.48562 5.37135 9.48562H6.91425C7.19829 9.48562 7.42855 9.71588 7.42855 9.99992C7.42855 10.284 7.19829 10.5142 6.91425 10.5142H5.37135C5.08731 10.5142 4.85706 10.284 4.85706 9.99992ZM12.5715 9.99992C12.5715 9.71588 12.8018 9.48562 13.0858 9.48562H14.6287C14.9128 9.48562 15.143 9.71588 15.143 9.99992C15.143 10.284 14.9128 10.5142 14.6287 10.5142H13.0858C12.8018 10.5142 12.5715 10.284 12.5715 9.99992ZM8.18195 11.818C8.3828 12.0189 8.3828 12.3445 8.18195 12.5453L7.09007 13.6372C6.88923 13.8381 6.56359 13.8381 6.36275 13.6372C6.1619 13.4364 6.1619 13.1107 6.36275 12.9099L7.45463 11.818C7.65547 11.6172 7.98111 11.6172 8.18195 11.818ZM11.8181 11.818C12.019 11.6172 12.3446 11.6172 12.5455 11.818L13.6363 12.9089C13.8372 13.1097 13.8372 13.4354 13.6363 13.6362C13.4355 13.8371 13.1098 13.8371 12.909 13.6362L11.8181 12.5453C11.6173 12.3445 11.6173 12.0189 11.8181 11.818ZM10 12.5714C10.2841 12.5714 10.5143 12.8017 10.5143 13.0857V14.6286C10.5143 14.9126 10.2841 15.1429 10 15.1429C9.716 15.1429 9.48574 14.9126 9.48574 14.6286V13.0857C9.48574 12.8017 9.716 12.5714 10 12.5714Z" fill="white" stroke="white" stroke-width="0.514298" stroke-linecap="round" stroke-linejoin="round" />
</svg>
