<svg width="20" height="20" viewBox="0 0 20 20" fill="none" xmlns="http://www.w3.org/2000/svg">
<path fill-rule="evenodd" clip-rule="evenodd" d="M5.77076 4.34745C5.77076 3.92688 6.1117 3.58594 6.53227 3.58594H13.8431C14.2637 3.58594 14.6046 3.92688 14.6046 4.34745V4.87846H14.9462C16.1004 4.87846 17.0405 5.81558 17.0405 6.97272V15.1989C17.0405 16.3537 16.1011 17.2932 14.9462 17.2932H13.8415C13.4209 17.2932 13.0799 16.9522 13.0799 16.5317V16.0057H7.29379V16.5317C7.29379 16.9522 6.95285 17.2932 6.53227 17.2932H5.42752C4.27267 17.2932 3.33325 16.3537 3.33325 15.1989V6.97272C3.33325 5.81788 4.27267 4.87846 5.42751 4.87846L5.77076 4.87846V4.34745Z" fill="currentColor"/>
<path fill-rule="evenodd" clip-rule="evenodd" d="M11.697 7.76562C11.9536 7.76562 12.1617 7.97366 12.1617 8.23028V9.62423C12.1617 10.3941 11.5376 11.0182 10.7677 11.0182H8.90909C8.65247 11.0182 8.44444 11.2262 8.44444 11.4828V12.8768C8.44444 13.1334 8.23641 13.3414 7.97979 13.3414C7.72317 13.3414 7.51514 13.1334 7.51514 12.8768V11.4828C7.51514 10.713 8.13923 10.0889 8.90909 10.0889H10.7677C11.0243 10.0889 11.2324 9.88085 11.2324 9.62423V8.23028C11.2324 7.97366 11.4404 7.76562 11.697 7.76562Z" fill="white"/>
<path d="M10.5626 8.33594C10.3639 8.33594 10.2644 8.0957 10.4049 7.9552L11.5148 6.8453C11.6019 6.7582 11.7431 6.7582 11.8302 6.8453L12.9401 7.9552C13.0806 8.0957 12.9811 8.33594 12.7824 8.33594H11.6725H10.5626Z" fill="white"/>
</svg>
