<svg width="87" height="95" viewBox="0 0 87 95" fill="none" xmlns="http://www.w3.org/2000/svg">
<path d="M38.3586 8.54676C40.6903 4.6706 46.3097 4.6706 48.6414 8.54676L76.5301 54.9071C78.9357 58.9062 76.0555 64 71.3887 64H15.6113C10.9445 64 8.06427 58.9061 10.4699 54.9071L38.3586 8.54676Z" fill="#D7403B"/>
<path d="M42.2086 11.134C42.7892 10.1514 44.2108 10.1514 44.7914 11.134L72.034 57.2369C72.6249 58.2368 71.9041 59.5 70.7427 59.5H16.2573C15.0959 59.5 14.3751 58.2368 14.966 57.2369L42.2086 11.134Z" fill="#D7403B"/>
<path d="M42.2086 11.134C42.7892 10.1514 44.2108 10.1514 44.7914 11.134L72.034 57.2369C72.6249 58.2368 71.9041 59.5 70.7427 59.5H16.2573C15.0959 59.5 14.3751 58.2368 14.966 57.2369L42.2086 11.134Z" fill="url(#paint0_linear_2790_8137)" fill-opacity="0.7"/>
<path d="M42.2086 11.134C42.7892 10.1514 44.2108 10.1514 44.7914 11.134L72.034 57.2369C72.6249 58.2368 71.9041 59.5 70.7427 59.5H16.2573C15.0959 59.5 14.3751 58.2368 14.966 57.2369L42.2086 11.134Z" stroke="white" stroke-width="3" stroke-linejoin="round"/>
<path d="M46.4316 31.219L44.4999 42.8123L42.5682 31.219C42.5219 30.9386 42.5371 30.6516 42.6128 30.3777C42.6886 30.1039 42.823 29.8498 43.0068 29.6331C43.1906 29.4165 43.4194 29.2424 43.6772 29.123C43.9351 29.0036 44.2158 28.9418 44.4999 28.9418C44.784 28.9418 45.0648 29.0036 45.3226 29.123C45.5804 29.2424 45.8092 29.4165 45.993 29.6331C46.1768 29.8498 46.3112 30.1039 46.387 30.3777C46.4627 30.6516 46.478 30.9386 46.4316 31.219Z" stroke="white" stroke-width="4.625" stroke-linecap="round" stroke-linejoin="round"/>
<path d="M44.4992 52.8332C45.3506 52.8332 46.0409 52.143 46.0409 51.2915C46.0409 50.4401 45.3506 49.7499 44.4992 49.7499C43.6477 49.7499 42.9575 50.4401 42.9575 51.2915C42.9575 52.143 43.6477 52.8332 44.4992 52.8332Z" stroke="white" stroke-width="3.08333"/>
<rect x="0.5" y="65.5" width="86" height="29" rx="3.5" fill="#B42626"/>
<rect x="0.5" y="65.5" width="86" height="29" rx="3.5" stroke="white"/>
<path d="M21.2744 77V69.2227H26.2588V70.3936H22.6709V72.5205H25.915V73.6914H22.6709V77H21.2744ZM27.29 77V71.167H28.6221V72.1338H28.6865C28.8906 71.4678 29.46 71.0811 30.126 71.0811C30.2764 71.0811 30.4912 71.0918 30.6201 71.1133V72.3809C30.502 72.3379 30.2119 72.2949 29.9863 72.2949C29.2236 72.2949 28.665 72.8213 28.665 73.5625V77H27.29ZM33.832 77.1182C32.0703 77.1182 30.9961 75.9473 30.9961 74.1211C30.9961 72.3164 32.0918 71.0918 33.7568 71.0918C35.1855 71.0918 36.4209 71.9834 36.4209 74.0352V74.4648H32.3496C32.3657 75.4585 32.9512 76.0439 33.8428 76.0439C34.4443 76.0439 34.8525 75.7861 35.0244 75.4424H36.3672C36.1201 76.4521 35.1855 77.1182 33.832 77.1182ZM32.3604 73.5303H35.1104C35.0996 72.7354 34.5732 72.1553 33.7783 72.1553C32.9512 72.1553 32.4033 72.7837 32.3604 73.5303ZM41.3838 79.1914V76.0762H41.3301C41.1152 76.5059 40.6641 77.1074 39.6543 77.1074C38.2793 77.1074 37.248 76.0117 37.248 74.0889C37.248 72.1445 38.3115 71.0918 39.665 71.0918C40.6963 71.0918 41.126 71.7041 41.3301 72.123H41.4053V71.167H42.748V79.1914H41.3838ZM40.0303 75.9795C40.9111 75.9795 41.416 75.2168 41.416 74.0781C41.416 72.9502 40.9219 72.209 40.0303 72.209C39.1172 72.209 38.6445 72.9932 38.6445 74.0781C38.6445 75.1846 39.1279 75.9795 40.0303 75.9795ZM47.7969 74.5508V71.167H49.1611V77H47.8398V75.9688H47.7754C47.5068 76.6133 46.8945 77.0752 46.0244 77.0752C44.875 77.0752 44.0801 76.2803 44.0693 74.8838V71.167H45.4443V74.6689C45.4443 75.4102 45.8848 75.8828 46.5508 75.8828C47.1523 75.8828 47.7969 75.4424 47.7969 74.5508ZM53.0605 77.1182C51.2988 77.1182 50.2246 75.9473 50.2246 74.1211C50.2246 72.3164 51.3203 71.0918 52.9854 71.0918C54.4141 71.0918 55.6494 71.9834 55.6494 74.0352V74.4648H51.5781C51.5942 75.4585 52.1797 76.0439 53.0713 76.0439C53.6729 76.0439 54.0811 75.7861 54.2529 75.4424H55.5957C55.3486 76.4521 54.4141 77.1182 53.0605 77.1182ZM51.5889 73.5303H54.3389C54.3281 72.7354 53.8018 72.1553 53.0068 72.1553C52.1797 72.1553 51.6318 72.7837 51.5889 73.5303ZM58.0879 73.584V77H56.7129V71.167H58.0234V72.1553H58.0986C58.3672 71.5 58.958 71.0918 59.8281 71.0918C61.042 71.0918 61.8369 71.8867 61.8262 73.2832V77H60.4619V73.498C60.4619 72.7139 60.043 72.252 59.3232 72.252C58.5928 72.252 58.0879 72.7354 58.0879 73.584ZM66.0479 71.167V72.2197H64.8984V75.249C64.8984 75.8076 65.1777 75.9258 65.5215 75.9258C65.6826 75.9258 65.9512 75.915 66.123 75.9043V77.0215C65.9619 77.0537 65.6934 77.0752 65.3496 77.0752C64.3184 77.0752 63.5234 76.5703 63.5342 75.4746V72.2197H62.6963V71.167H63.5342V69.7705H64.8984V71.167H66.0479ZM22.4238 90H20.9307L23.6699 82.2227H25.3887L28.1387 90H26.6455L26.001 88.0771H23.0684L22.4238 90ZM23.4443 86.9492H25.625L24.5615 83.8125H24.4971L23.4443 86.9492ZM31.3613 90.1182C29.6211 90.1182 28.5684 88.8721 28.5684 87.1104C28.5684 85.3271 29.6533 84.0918 31.3613 84.0918C32.7793 84.0918 33.7676 84.9189 33.8643 86.1758H32.5537C32.4463 85.6172 32.0381 85.1875 31.3721 85.1875C30.5234 85.1875 29.9541 85.9072 29.9541 87.0781C29.9541 88.2812 30.5127 89.001 31.3721 89.001C31.9844 89.001 32.4355 88.6465 32.5537 88.0127H33.8643C33.7568 89.248 32.8223 90.1182 31.3613 90.1182ZM37.4414 90.1182C35.7012 90.1182 34.6484 88.8721 34.6484 87.1104C34.6484 85.3271 35.7334 84.0918 37.4414 84.0918C38.8594 84.0918 39.8477 84.9189 39.9443 86.1758H38.6338C38.5264 85.6172 38.1182 85.1875 37.4521 85.1875C36.6035 85.1875 36.0342 85.9072 36.0342 87.0781C36.0342 88.2812 36.5928 89.001 37.4521 89.001C38.0645 89.001 38.5156 88.6465 38.6338 88.0127H39.9443C39.8369 89.248 38.9023 90.1182 37.4414 90.1182ZM40.9756 90V84.167H42.3506V90H40.9756ZM41.6738 83.3398C41.2441 83.3398 40.8789 83.0068 40.8789 82.5879C40.8789 82.1797 41.2441 81.8467 41.6738 81.8467C42.1143 81.8467 42.4688 82.1797 42.4688 82.5879C42.4688 83.0068 42.1143 83.3398 41.6738 83.3398ZM45.8311 90.1074C44.4561 90.1074 43.4248 89.0117 43.4248 87.0889C43.4248 85.1445 44.4883 84.0918 45.8418 84.0918C46.873 84.0918 47.3027 84.7041 47.5068 85.123H47.5605V82.2227H48.9248V90H47.582V89.0762H47.5068C47.292 89.5059 46.8408 90.1074 45.8311 90.1074ZM46.207 88.9795C47.0879 88.9795 47.5928 88.2168 47.5928 87.0781C47.5928 85.9502 47.0986 85.209 46.207 85.209C45.2939 85.209 44.8213 85.9932 44.8213 87.0781C44.8213 88.1846 45.3047 88.9795 46.207 88.9795ZM52.8994 90.1182C51.1377 90.1182 50.0635 88.9473 50.0635 87.1211C50.0635 85.3164 51.1592 84.0918 52.8242 84.0918C54.2529 84.0918 55.4883 84.9834 55.4883 87.0352V87.4648H51.417C51.4331 88.4585 52.0186 89.0439 52.9102 89.0439C53.5117 89.0439 53.9199 88.7861 54.0918 88.4424H55.4346C55.1875 89.4521 54.2529 90.1182 52.8994 90.1182ZM51.4277 86.5303H54.1777C54.167 85.7354 53.6406 85.1553 52.8457 85.1553C52.0186 85.1553 51.4707 85.7837 51.4277 86.5303ZM57.9268 86.584V90H56.5518V84.167H57.8623V85.1553H57.9375C58.2061 84.5 58.7969 84.0918 59.667 84.0918C60.8809 84.0918 61.6758 84.8867 61.665 86.2832V90H60.3008V86.498C60.3008 85.7139 59.8818 85.252 59.1621 85.252C58.4316 85.252 57.9268 85.7354 57.9268 86.584ZM65.8867 84.167V85.2197H64.7373V88.249C64.7373 88.8076 65.0166 88.9258 65.3604 88.9258C65.5215 88.9258 65.79 88.915 65.9619 88.9043V90.0215C65.8008 90.0537 65.5322 90.0752 65.1885 90.0752C64.1572 90.0752 63.3623 89.5703 63.373 88.4746V85.2197H62.5352V84.167H63.373V82.7705H64.7373V84.167H65.8867Z" fill="white"/>
<defs>
<linearGradient id="paint0_linear_2790_8137" x1="43.5" y1="6" x2="62.484" y2="60.9372" gradientUnits="userSpaceOnUse">
<stop stop-color="#C0140F" stop-opacity="0"/>
<stop offset="1" stop-color="#C0140F"/>
</linearGradient>
</defs>
</svg>
