<svg width="100%" height="100%" viewBox="0 0 20 20" fill="none" xmlns="http://www.w3.org/2000/svg">
<path d="M19.4 10C19.4 15.1915 15.1915 19.4 10 19.4C4.80852 19.4 0.6 15.1915 0.6 10C0.6 4.80852 4.80852 0.6 10 0.6C15.1915 0.6 19.4 4.80852 19.4 10Z" fill="black" stroke="white" stroke-width="1.2"/>
<g clip-path="url(#clip0_31769_8694)">
<path fill-rule="evenodd" clip-rule="evenodd" d="M11.1312 4.68489C11.1673 4.41829 11.0306 4.15897 10.797 4.05068C10.5635 3.94239 10.2901 4.01166 10.1286 4.22009L5.62066 10.0361L5.60782 10.0527L5.60781 10.0527C5.522 10.1634 5.43483 10.2758 5.37143 10.3746C5.31116 10.4685 5.2021 10.6521 5.20011 10.8921C5.19782 11.1676 5.31516 11.429 5.51858 11.6016C5.69585 11.7519 5.89947 11.7791 6.00651 11.7893C6.11911 11.8001 6.25674 11.8001 6.39223 11.8H6.39225L9.34473 11.8L8.86902 15.3152C8.83294 15.5818 8.96956 15.8411 9.20315 15.9494C9.43674 16.0577 9.71006 15.9884 9.87161 15.78L14.3924 9.94738C14.4782 9.8367 14.5654 9.72427 14.6288 9.62545C14.689 9.53151 14.7981 9.34798 14.8001 9.10792C14.8024 8.83246 14.685 8.57106 14.4816 8.3985C14.3043 8.24811 14.1007 8.221 13.9937 8.21075C13.8811 8.19997 13.7434 8.2 13.6079 8.20003L10.6555 8.20003L11.1312 4.68489Z" fill="url(#paint0_linear_31769_8694)"/>
</g>
<defs>
<linearGradient id="paint0_linear_31769_8694" x1="5.20007" y1="4" x2="15.3777" y2="4.51172" gradientUnits="userSpaceOnUse">
<stop offset="0.285" stop-color="#00BA66"/>
<stop offset="1" stop-color="#6889FF"/>
</linearGradient>
<clipPath id="clip0_31769_8694">
<rect width="12.0001" height="12.0001" fill="white" transform="translate(4 4)"/>
</clipPath>
</defs>
</svg>
