<svg width="54" height="54" viewBox="0 0 54 54" fill="none" xmlns="http://www.w3.org/2000/svg">
<path fill-rule="evenodd" clip-rule="evenodd" d="M19.8207 16C18.3059 16 17.0778 17.228 17.0778 18.7428L17.0778 20.114L17.0778 20.1142L17.0778 29.7727C16.6783 29.9138 16.3921 30.2949 16.3921 30.7427C16.3921 31.1906 16.6783 31.5716 17.0778 31.7128L17.0778 34.0122C16.668 34.2494 16.3923 34.6926 16.3923 35.2001L16.3923 38.6286C16.3923 39.3861 17.0063 40.0001 17.7637 40.0001C18.5211 40.0001 19.1351 39.386 19.1351 38.6286L19.1351 36.571L34.9062 36.571L34.9062 38.6286C34.9062 39.3861 35.5203 40.0001 36.2777 40.0001C37.0351 40.0001 37.6491 39.386 37.6491 38.6286L37.6491 35.2001C37.6491 34.6925 37.3733 34.2493 36.9633 34.0122L36.9633 31.7127C37.3628 31.5715 37.649 31.1905 37.649 30.7427C37.649 30.2949 37.3628 29.9139 36.9633 29.7727L36.9633 20.1142L36.9633 20.114L36.9633 18.7428C36.9633 17.228 35.7353 16 34.2205 16L19.8207 16Z" fill="#F8914A"/>
<circle cx="23.9349" cy="24.9145" r="2.39997" fill="#F8914A" stroke="white" stroke-width="0.685707"/>
<circle cx="30.1068" cy="24.9145" r="2.39997" fill="#F8914A" stroke="white" stroke-width="0.685707"/>
<circle cx="23.2493" cy="24.2287" r="0.685707" fill="white"/>
<circle cx="29.4206" cy="24.2287" r="0.685707" fill="white"/>
<path d="M41.9999 26.9165L52.6665 26.9165" stroke="#D87832" stroke-width="0.7"/>
<path d="M1.99976 26.9165H12.6664" stroke="#D87832" stroke-width="0.7"/>
<path fill-rule="evenodd" clip-rule="evenodd" d="M6 27.416H0V26.416H6V27.416Z" fill="#D87832"/>
<path fill-rule="evenodd" clip-rule="evenodd" d="M54 27.416H48V26.416H54V27.416Z" fill="#D87832"/>
<g style="mix-blend-mode:multiply">
<path d="M54 26.916C54 41.8277 41.9117 53.916 27 53.916C12.0883 53.916 0 41.8277 0 26.916H54Z" fill="#FFB689" fill-opacity="0.5"/>
</g>
</svg>
