<svg width="100%" height="100%" viewBox="0 0 24 24" fill="none" xmlns="http://www.w3.org/2000/svg">
<path d="M17.88 13.18H17.885C17.885 13.18 16 15.945 14.415 18C13.045 19.775 12.645 21.295 12.53 22.03C12.485 22.3 12.265 22.5 12 22.5C11.735 22.5 11.515 22.3 11.47 22.03C11.355 21.295 10.955 19.775 9.58501 18C9.37501 17.725 9.16001 17.44 8.94501 17.15L14.12 11L18.285 6.06C18.745 7.025 19 8.105 19 9.25C19 10.7 18.585 12.045 17.88 13.18Z" fill="#48B564"/>
<path d="M14.12 11L8.945 17.15C7.535 15.26 6.115 13.18 6.115 13.18H6.12C5.97 12.94 5.835 12.695 5.72 12.44L9.88 7.5C9.485 7.975 9.25 8.585 9.25 9.25C9.25 10.77 10.48 12 12 12C12.855 12 13.62 11.61 14.12 11Z" fill="#FCC60E"/>
<path d="M14.2 2.37L9.91501 7.46L6.63501 4.6C7.91501 3.01 9.84501 2 12 2C12.77 2 13.51 2.13 14.2 2.37Z" fill="#2C85EB"/>
<path d="M9.915 7.45998L9.88 7.49998L5.72 12.44C5.26 11.475 5 10.395 5 9.24998C5 7.47998 5.615 5.85498 6.635 4.59998L9.915 7.45998Z" fill="#ED5748"/>
<path d="M14.12 11C14.515 10.525 14.75 9.915 14.75 9.25C14.75 7.73 13.52 6.5 12 6.5C11.145 6.5 10.38 6.89 9.88 7.5L14.2 2.37C15.995 2.98 17.465 4.325 18.285 6.06L14.12 11Z" fill="#5695F6"/>
</svg>
