<svg width="16" height="16" viewBox="0 0 16 16" fill="none" xmlns="http://www.w3.org/2000/svg">
<path fill-rule="evenodd" clip-rule="evenodd" d="M10.9997 2C11.166 2 11.3265 2.06501 11.4449 2.18087C11.5633 2.29681 11.6302 2.45453 11.6302 2.61968V3.95648H14C14.1663 3.95651 14.3262 4.02152 14.4446 4.13735C14.563 4.2533 14.6305 4.41095 14.6305 4.57616V12.7606H14.9999C15.1662 12.7607 15.326 12.8257 15.4445 12.9415C15.563 13.0575 15.6304 13.2151 15.6304 13.3803C15.6304 13.5455 15.563 13.7032 15.4445 13.8191C15.326 13.935 15.1662 14 14.9999 14H1.00014C0.833866 14 0.674023 13.935 0.555596 13.8191C0.437098 13.7032 0.369629 13.5455 0.369629 13.3803C0.369629 13.2151 0.437098 13.0575 0.555596 12.9415C0.674023 12.8257 0.833866 12.7607 1.00014 12.7606H1.36952V6.53264C1.36952 6.36743 1.43702 6.20978 1.55549 6.09383C1.6739 5.978 1.83379 5.91299 2.00003 5.91296H4.36984V2.61968C4.36984 2.45453 4.43678 2.29681 4.55517 2.18087C4.67361 2.06501 4.83406 2 5.00035 2H10.9997ZM5.63022 6.53264C5.63022 6.69782 5.56332 6.8555 5.44489 6.97145C5.32651 7.08725 5.16654 7.15225 5.00035 7.15232H2.63054V12.7606H6.36963V10.4456C6.36963 10.2803 6.43706 10.1228 6.5556 10.0068C6.67403 9.89094 6.83386 9.82592 7.00013 9.82592H8.99992C9.1662 9.82592 9.32603 9.89094 9.44446 10.0068C9.56299 10.1228 9.63043 10.2803 9.63043 10.4456V12.7606H13.3695V5.19584H10.9997C10.8335 5.19577 10.6735 5.13077 10.5552 5.01497C10.4367 4.89902 10.3698 4.74134 10.3698 4.57616V3.23936H5.63022V6.53264ZM7.63064 12.7606H8.36942V11.0653H7.63064V12.7606Z" fill="#555555"/>
<path fill-rule="evenodd" clip-rule="evenodd" d="M12 9.82605C12.1662 9.82612 12.3262 9.89113 12.4446 10.0069C12.563 10.1229 12.6299 10.2806 12.6299 10.4457C12.6299 10.6109 12.563 10.7686 12.4446 10.8845C12.3262 11.0003 12.1662 11.0653 12 11.0654H10.9995C10.8333 11.0653 10.6733 11.0003 10.555 10.8845C10.4365 10.7686 10.3696 10.6109 10.3696 10.4457C10.3696 10.2806 10.4365 10.1229 10.555 10.0069C10.6733 9.89112 10.8333 9.82611 10.9995 9.82605H12Z" fill="#00BA7C"/>
<path fill-rule="evenodd" clip-rule="evenodd" d="M12 7.86957C12.1662 7.86964 12.3262 7.93465 12.4446 8.05044C12.563 8.16638 12.6299 8.32408 12.6299 8.48925C12.6299 8.65441 12.563 8.81211 12.4446 8.92805C12.3262 9.04385 12.1662 9.10885 12 9.10892H10.9995C10.8333 9.10886 10.6733 9.04385 10.555 8.92805C10.4365 8.81211 10.3696 8.65442 10.3696 8.48925C10.3696 8.32407 10.4365 8.16638 10.555 8.05044C10.6733 7.93464 10.8333 7.86963 10.9995 7.86957H12Z" fill="#00BA7C"/>
<path fill-rule="evenodd" clip-rule="evenodd" d="M12 5.91309C12.1662 5.91316 12.3262 5.97817 12.4446 6.09396C12.563 6.2099 12.6299 6.3676 12.6299 6.53277C12.6299 6.69793 12.563 6.85563 12.4446 6.97157C12.3262 7.08736 12.1662 7.15237 12 7.15244H10.9995C10.8333 7.15238 10.6733 7.08737 10.555 6.97157C10.4365 6.85563 10.3696 6.69794 10.3696 6.53277C10.3696 6.36759 10.4365 6.2099 10.555 6.09396C10.6733 5.97816 10.8333 5.91315 10.9995 5.91309H12Z" fill="#00BA7C"/>
<path fill-rule="evenodd" clip-rule="evenodd" d="M8.49954 7.8695C8.66582 7.8695 8.82564 7.93451 8.94408 8.05038C9.06261 8.16633 9.13005 8.32394 9.13005 8.48918C9.13005 8.65443 9.06261 8.81203 8.94408 8.92799C8.82564 9.04385 8.66582 9.10886 8.49954 9.10886H7.49965C7.33336 9.10886 7.17354 9.04385 7.05511 8.92799C6.93658 8.81203 6.86914 8.65443 6.86914 8.48918C6.86914 8.32394 6.93658 8.16633 7.05511 8.05038C7.17354 7.93451 7.33336 7.8695 7.49965 7.8695H8.49954Z" fill="#00BA7C"/>
<path fill-rule="evenodd" clip-rule="evenodd" d="M8.49954 5.91302C8.66583 5.91302 8.82564 5.97803 8.94408 6.0939C9.06261 6.20985 9.13005 6.36746 9.13005 6.5327C9.13005 6.69795 9.06261 6.85555 8.94408 6.97151C8.82564 7.08737 8.66583 7.15238 8.49954 7.15238H7.49965C7.33336 7.15238 7.17354 7.08737 7.05511 6.97151C6.93658 6.85555 6.86914 6.69795 6.86914 6.5327C6.86914 6.36746 6.93658 6.20985 7.05511 6.0939C7.17354 5.97803 7.33336 5.91302 7.49965 5.91302H8.49954Z" fill="#00BA7C"/>
<path fill-rule="evenodd" clip-rule="evenodd" d="M8.49954 3.95654C8.66583 3.95654 8.82564 4.02155 8.94408 4.13742C9.06261 4.25337 9.13005 4.41098 9.13005 4.57622C9.13005 4.74147 9.06261 4.89907 8.94408 5.01503C8.82564 5.13089 8.66583 5.1959 8.49954 5.1959H7.49965C7.33336 5.1959 7.17354 5.13089 7.05511 5.01503C6.93658 4.89907 6.86914 4.74147 6.86914 4.57622C6.86914 4.41098 6.93658 4.25337 7.05511 4.13742C7.17354 4.02155 7.33336 3.95654 7.49965 3.95654H8.49954Z" fill="#00BA7C"/>
<path fill-rule="evenodd" clip-rule="evenodd" d="M5.00003 9.82611C5.16622 9.82618 5.32619 9.89118 5.44457 10.007C5.563 10.1229 5.6299 10.2806 5.6299 10.4458C5.6299 10.611 5.563 10.7687 5.44457 10.8846C5.32619 11.0004 5.16622 11.0654 5.00003 11.0655H3.9995C3.83332 11.0654 3.67333 11.0004 3.55496 10.8846C3.43654 10.7687 3.36963 10.611 3.36963 10.4458C3.36963 10.2806 3.43654 10.1229 3.55496 10.007C3.67333 9.89119 3.83332 9.82619 3.9995 9.82611H5.00003Z" fill="#00BA7C"/>
<path fill-rule="evenodd" clip-rule="evenodd" d="M5.00003 7.86963C5.16622 7.86969 5.32619 7.9347 5.44457 8.0505C5.563 8.16644 5.6299 8.32413 5.6299 8.48931C5.6299 8.65448 5.563 8.81217 5.44457 8.92812C5.32619 9.04392 5.16622 9.10892 5.00003 9.10899H3.9995C3.83332 9.10891 3.67333 9.04391 3.55496 8.92812C3.43654 8.81218 3.36963 8.65447 3.36963 8.48931C3.36963 8.32414 3.43654 8.16644 3.55496 8.0505C3.67333 7.93471 3.83332 7.86971 3.9995 7.86963H5.00003Z" fill="#00BA7C"/>
</svg>
