<svg width="18" height="18" viewBox="0 0 18 18" fill="none" xmlns="http://www.w3.org/2000/svg">
<path d="M8.6302 2.62392C8.72231 2.45724 8.9619 2.45725 9.05401 2.62391L16.4686 16.0408C16.5578 16.2022 16.4411 16.4 16.2567 16.4H1.42752C1.24315 16.4 1.12644 16.2022 1.21561 16.0408L8.6302 2.62392Z" fill="#ECC441" stroke="black" stroke-width="1.2"/>
<path d="M9.35109 8.00338L8.83918 11.0757L8.32726 8.00338C8.31498 7.92909 8.31902 7.85302 8.33909 7.78045C8.35916 7.70787 8.39479 7.64054 8.4435 7.58312C8.49221 7.5257 8.55283 7.47957 8.62116 7.44793C8.68948 7.41629 8.76388 7.3999 8.83918 7.3999C8.91447 7.3999 8.98887 7.41629 9.0572 7.44793C9.12552 7.47957 9.18614 7.5257 9.23485 7.58312C9.28356 7.64054 9.31919 7.70787 9.33926 7.78045C9.35934 7.85302 9.36337 7.92909 9.35109 8.00338Z" stroke="black" stroke-width="1.22566" stroke-linecap="round" stroke-linejoin="round"/>
<path d="M8.83922 13.7317C9.06486 13.7317 9.24777 13.5487 9.24777 13.3231C9.24777 13.0975 9.06486 12.9146 8.83922 12.9146C8.61358 12.9146 8.43066 13.0975 8.43066 13.3231C8.43066 13.5487 8.61358 13.7317 8.83922 13.7317Z" stroke="black" stroke-width="0.817108"/>
</svg>
