<svg width="77" height="84" viewBox="0 0 77 84" fill="none" xmlns="http://www.w3.org/2000/svg">
<path d="M33.3586 8.54676C35.6903 4.6706 41.3097 4.6706 43.6414 8.54676L71.5301 54.9071C73.9357 58.9062 71.0555 64 66.3887 64H10.6113C5.9445 64 3.06427 58.9061 5.46993 54.9071L33.3586 8.54676Z" fill="#D7403B"/>
<path d="M37.2086 11.134C37.7892 10.1514 39.2108 10.1514 39.7914 11.134L67.034 57.2369C67.6249 58.2368 66.9041 59.5 65.7427 59.5H11.2573C10.0959 59.5 9.37509 58.2368 9.96595 57.2369L37.2086 11.134Z" fill="#D7403B"/>
<path d="M37.2086 11.134C37.7892 10.1514 39.2108 10.1514 39.7914 11.134L67.034 57.2369C67.6249 58.2368 66.9041 59.5 65.7427 59.5H11.2573C10.0959 59.5 9.37509 58.2368 9.96595 57.2369L37.2086 11.134Z" fill="url(#paint0_linear_1689_14968)" fill-opacity="0.7"/>
<path d="M37.2086 11.134C37.7892 10.1514 39.2108 10.1514 39.7914 11.134L67.034 57.2369C67.6249 58.2368 66.9041 59.5 65.7427 59.5H11.2573C10.0959 59.5 9.37509 58.2368 9.96595 57.2369L37.2086 11.134Z" stroke="white" stroke-width="3" stroke-linejoin="round"/>
<path d="M41.4316 31.219L39.4999 42.8123L37.5682 31.219C37.5219 30.9386 37.5371 30.6516 37.6128 30.3777C37.6886 30.1039 37.823 29.8498 38.0068 29.6331C38.1906 29.4165 38.4194 29.2424 38.6772 29.123C38.9351 29.0036 39.2158 28.9418 39.4999 28.9418C39.784 28.9418 40.0648 29.0036 40.3226 29.123C40.5804 29.2424 40.8092 29.4165 40.993 29.6331C41.1768 29.8498 41.3112 30.1039 41.387 30.3777C41.4627 30.6516 41.478 30.9386 41.4316 31.219Z" stroke="white" stroke-width="4.625" stroke-linecap="round" stroke-linejoin="round"/>
<path d="M39.4992 52.8332C40.3506 52.8332 41.0409 52.143 41.0409 51.2915C41.0409 50.4401 40.3506 49.7499 39.4992 49.7499C38.6477 49.7499 37.9575 50.4401 37.9575 51.2915C37.9575 52.143 38.6477 52.8332 39.4992 52.8332Z" stroke="white" stroke-width="3.08333"/>
<rect x="2.5" y="65.5" width="72" height="18" rx="3.5" fill="#B42626"/>
<rect x="2.5" y="65.5" width="72" height="18" rx="3.5" stroke="white"/>
<path d="M10.8887 71.4258C10.8779 73.1768 11.6299 74.9492 13.1982 75.7012L12.3711 76.7969C11.3237 76.2812 10.6201 75.3145 10.2119 74.1328C9.7876 75.4004 9.03027 76.437 7.92383 76.9795L7.0752 75.873C8.72949 75.1104 9.51367 73.2412 9.51367 71.4258V69.9648H10.8887V71.4258ZM15.0029 69.2129V72.9834H16.4424V74.1436H15.0029V78.9883H13.6279V69.2129H15.0029ZM24.8535 70.0615V70.9854C24.8535 72.21 24.8535 73.585 24.4561 75.6582L23.0811 75.5186C23.4517 73.6709 23.4678 72.2959 23.4785 71.1465H17.7207V70.0615H24.8535ZM25.7129 76.6787V77.7959H16.7969V76.6787H19.9873V73.3164H21.3516V76.6787H25.7129ZM36.5518 69.2129V72.8438H37.9912V73.9609H36.5518V79.0098H35.1768V69.2129H36.5518ZM33.8125 70.1152V71.2217H30.5898V75.5078C32.0078 75.4917 33.1787 75.4272 34.4785 75.1963L34.6289 76.3457C33.1143 76.6035 31.7822 76.6465 30.0527 76.6357H29.2256V70.1152H33.8125ZM40 69.6533V70.8135H41.998V69.6533H43.373V73.918H38.6357V69.6533H40ZM40 72.8438H41.998V71.8447H40V72.8438ZM46.1016 69.2129V71.1143H47.4229V72.2207H46.1016V74.1865H44.7266V69.2129H46.1016ZM46.1016 74.5518V77.2051H40.9775V77.8389H46.3809V78.9238H39.6348V76.2275H44.7373V75.6152H39.6133V74.5518H46.1016ZM58.2617 69.7822V70.6631C58.2617 71.5762 58.2617 72.5752 58.0146 73.9395H59.3037V75.0459H55.4902V78.999H54.1152V75.0459H50.3877V73.9395H56.6289C56.876 72.6772 56.8975 71.7212 56.8975 70.8779H51.4082V69.7822H58.2617ZM68.1338 75.4326V78.9883H66.7695V76.5068H61.4199V75.4326H68.1338ZM68.1338 69.2129V74.9922H66.7695V73.7568H64.5781C64.1108 74.2617 63.418 74.5625 62.623 74.5625C61.1406 74.5625 60.0127 73.542 60.0234 72.124C60.0127 70.7383 61.1406 69.7285 62.623 69.7393C63.418 69.7339 64.1108 70.0293 64.5781 70.5234H66.7695V69.2129H68.1338ZM62.623 70.8887C61.8604 70.8887 61.3125 71.3613 61.3232 72.124C61.3125 72.9297 61.8604 73.3916 62.623 73.3916C63.3428 73.3916 63.9014 72.9297 63.9014 72.124C63.9014 71.3613 63.3428 70.8887 62.623 70.8887ZM65.1475 72.6611H66.7695V71.6299H65.1582C65.1851 71.7856 65.2012 71.9521 65.2012 72.124C65.2012 72.312 65.1797 72.4893 65.1475 72.6611Z" fill="white"/>
<defs>
<linearGradient id="paint0_linear_1689_14968" x1="38.5" y1="6" x2="57.484" y2="60.9372" gradientUnits="userSpaceOnUse">
<stop stop-color="#C0140F" stop-opacity="0"/>
<stop offset="1" stop-color="#C0140F"/>
</linearGradient>
</defs>
</svg>
